SplineFontDB: 3.0
FontName: Estedad-Bold
FullName: Estedad Bold
FamilyName: Estedad Bold
Weight: Bold
Copyright: Copyright (c) 2017-2018 by Amin Abedi (@aminabedi68)-www.opentypeshop.com,\nwith Reserved Font Name Estedad.\n\nThis Font Software is licensed under the SIL Open Font License, Version 1.1.
Version: 2.3
StrokeWidth: 100
ItalicAngle: 0
UnderlinePosition: -509
UnderlineWidth: 101
Ascent: 1638
Descent: 410
InvalidEm: 0
sfntRevision: 0x00024ccd
LayerCount: 2
Layer: 0 0 "Back" 1
Layer: 1 0 "Fore" 0
XUID: [1021 89 1101065813 28845]
StyleMap: 0x0000
FSType: 0
OS2Version: 0
OS2_WeightWidthSlopeOnly: 0
OS2_UseTypoMetrics: 1
CreationTime: 1496828874
ModificationTime: 1547317810
PfmFamily: 17
TTFWeight: 700
TTFWidth: 5
LineGap: 0
VLineGap: 213
OS2TypoAscent: 562
OS2TypoAOffset: 1
OS2TypoDescent: -790
OS2TypoDOffset: 1
OS2TypoLinegap: 0
OS2WinAscent: -542
OS2WinAOffset: 1
OS2WinDescent: 92
OS2WinDOffset: 1
HheadAscent: -542
HheadAOffset: 1
HheadDescent: -92
HheadDOffset: 1
OS2CapHeight: 1400
OS2XHeight: 1012
OS2Vendor: 'AA68'
Lookup: 2 0 0 "Multiple substitution 0" { "Multiple substitution 0 subtable"  } []
Lookup: 2 0 0 "Multiple substitution 1" { "Multiple substitution 1 subtable"  } []
Lookup: 1 9 0 "'fina' Terminal Forms in Arabic lookup 2" { "'fina' Terminal Forms in Arabic lookup 2 subtable"  } ['fina' ('arab' <'FAR ' 'KUR ' 'dflt' > ) ]
Lookup: 1 9 0 "'medi' Medial Forms in Arabic lookup 3" { "'medi' Medial Forms in Arabic lookup 3 subtable"  } ['medi' ('arab' <'FAR ' 'KUR ' 'dflt' > ) ]
Lookup: 1 9 0 "'init' Initial Forms in Arabic lookup 4" { "'init' Initial Forms in Arabic lookup 4 subtable"  } ['init' ('arab' <'FAR ' 'KUR ' 'dflt' > ) ]
Lookup: 4 9 1 "'rlig' Required Ligatures in Arabic lookup 5" { "'rlig' Required Ligatures in Arabic lookup 5 subtable"  } ['rlig' ('arab' <'FAR ' 'KUR ' 'dflt' > ) ]

StartChar: period
Encoding: 46 46 0
Width: 498
VWidth: 1955
Flags: HMW
LayerCount: 2
Fore
SplineSet
99 80 m 0
 99 151 156 206 227 206 c 0
 298 206 354 151 354 80 c 0
 354 9 298 -47 227 -47 c 0
 156 -47 99 9 99 80 c 0
EndSplineSet
Colour: ff0000
EndChar

StartChar: slash
Encoding: 47 47 1
Width: 1050
VWidth: 1647
Flags: HMW
LayerCount: 2
Fore
SplineSet
747 1486 m 1
 974 1381 l 1
 303 -75 l 1
 76 30 l 1
 747 1486 l 1
EndSplineSet
Colour: ffff
EndChar

StartChar: asterisk
Encoding: 42 42 2
Width: 1133
VWidth: 1647
Flags: HMW
LayerCount: 2
Fore
SplineSet
158 1097 m 1
 213 1268 l 1
 476 1183 l 1
 476 1459 l 1
 656 1459 l 1
 656 1182 l 1
 920 1268 l 1
 975 1097 l 1
 712 1011 l 1
 876 787 l 1
 730 681 l 1
 566 905 l 1
 403 681 l 1
 257 787 l 1
 421 1011 l 1
 158 1097 l 1
EndSplineSet
Colour: ff00ff
EndChar

StartChar: parenleft
Encoding: 40 40 3
Width: 598
VWidth: 1647
Flags: HMW
LayerCount: 2
Fore
SplineSet
516 46 m 1
 306 -89 l 1
 167 146 75 387 75 706 c 0
 75 1024 167 1265 306 1500 c 1
 516 1365 l 1
 397 1173 325 978 325 706 c 0
 325 434 397 238 516 46 c 1
EndSplineSet
Colour: ffff
EndChar

StartChar: parenright
Encoding: 41 41 4
Width: 598
VWidth: 1647
Flags: HMW
LayerCount: 2
Fore
SplineSet
82 1365 m 1
 292 1500 l 1
 431 1265 523 1024 523 705 c 0
 523 387 431 146 292 -89 c 1
 82 46 l 1
 201 238 273 433 273 705 c 0
 273 977 201 1173 82 1365 c 1
EndSplineSet
Colour: ffff
EndChar

StartChar: uni0660
Encoding: 1632 1632 5
Width: 845
VWidth: 1954
Flags: HMW
LayerCount: 2
Fore
SplineSet
422 623 m 0
 325 623 250 548 250 451 c 0
 250 354 326 277 422 277 c 0
 518 277 595 354 595 451 c 0
 595 547 519 623 422 623 c 0
422 798 m 0
 614 798 770 644 770 451 c 0
 770 258 616 102 422 102 c 0
 228 102 75 259 75 451 c 0
 75 644 229 798 422 798 c 0
EndSplineSet
PairPos2: "'kern' Horizontal Kerning in Arabic lookup 3 per glyph data 0" uni0662 dx=-125 dy=0 dh=-125 dv=0 dx=0 dy=0 dh=0 dv=0
PairPos2: "'kern' Horizontal Kerning in Arabic lookup 3 per glyph data 0" uni0666 dx=-25 dy=0 dh=-25 dv=0 dx=0 dy=0 dh=0 dv=0
PairPos2: "'kern' Horizontal Kerning in Arabic lookup 3 per glyph data 0" uni0667 dx=-100 dy=0 dh=-100 dv=0 dx=0 dy=0 dh=0 dv=0
PairPos2: "'kern' Horizontal Kerning in Arabic lookup 3 per glyph data 0" uni0661 dx=50 dy=0 dh=50 dv=0 dx=0 dy=0 dh=0 dv=0
Colour: ffff
EndChar

StartChar: uni0661
Encoding: 1633 1633 6
Width: 618
VWidth: 1854
Flags: HMW
LayerCount: 2
Fore
SplineSet
543 -50 m 1
 293 -50 l 1
 293 444 221 785 65 1217 c 1
 302 1300 l 1
 462 845 543 472 543 -50 c 1
EndSplineSet
PairPos2: "'kern' Horizontal Kerning in Arabic lookup 3 per glyph data 0" uni0660 dx=-50 dy=0 dh=-50 dv=0 dx=0 dy=0 dh=0 dv=0
PairPos2: "'kern' Horizontal Kerning in Arabic lookup 3 per glyph data 0" uni0665 dx=-50 dy=0 dh=-50 dv=0 dx=0 dy=0 dh=0 dv=0
Colour: ffff
EndChar

StartChar: uni0662
Encoding: 1634 1634 7
Width: 1086
VWidth: 1854
Flags: HMW
LayerCount: 2
Fore
SplineSet
426 952 m 0
 462.229592468 874.106376194 513 850 587 850 c 0
 743 850 761 1004 761 1300 c 1
 1011 1300 l 1
 1011 1055 1010 600 587 600 c 0
 556 600 522 603 492 609 c 1
 528 401 543 189 543 -50 c 1
 293 -50 l 1
 293 458 196 827 66 1227 c 1
 305 1300 l 1
 341 1175 386 1038 426 952 c 0
EndSplineSet
Colour: ffff
EndChar

StartChar: uni0663
Encoding: 1635 1635 8
Width: 1473
VWidth: 1854
Flags: HMW
LayerCount: 2
Fore
SplineSet
929 1051 m 0
 929 892 945 855 1031 855 c 0
 1119 855 1146 884 1146 1059 c 0
 1146 1145 1136 1197 1122 1265 c 1
 1367 1315 l 1
 1384 1231 1398 1158 1398 1059 c 0
 1398 857 1321 605 1031 605 c 0
 928 605 840 642 779 706 c 1
 720 644 637 605 538 605 c 0
 523 605 505 606 492 607 c 1
 528 399 543 188 543 -50 c 1
 293 -50 l 1
 293 459 186 826 66 1227 c 1
 305 1300 l 1
 332 1216 343 1178 366 1094 c 0
 398 981 455 855 533 855 c 0
 595 855 632 900 657 1027 c 0
 674 1112 685 1174 693 1273 c 1
 944 1251 l 1
 934 1174 929 1128 929 1051 c 0
EndSplineSet
PairPos2: "'kern' Horizontal Kerning in Arabic lookup 3 per glyph data 0" uni0668 dx=-50 dy=0 dh=-50 dv=0 dx=0 dy=0 dh=0 dv=0
Colour: ffff
EndChar

StartChar: uni0664
Encoding: 1636 1636 9
Width: 997
VWidth: 1854
Flags: HMW
LayerCount: 2
Fore
SplineSet
714 1300 m 1
 714 1050 l 1
 475 1050 386 1014 386 912 c 0
 386 834 478 776 721 776 c 1
 721 526 l 1
 459 526 325 459 325 345 c 0
 325 260 389 200 533 200 c 2
 847 200 l 1
 847 -50 l 1
 533 -50 l 2
 238 -50 75 71 75 295 c 0
 75 476 139 568 233 643 c 1
 172 702 136 816 136 912 c 0
 136 1233 434 1300 714 1300 c 1
EndSplineSet
PairPos2: "'kern' Horizontal Kerning in Arabic lookup 3 per glyph data 0" uni0666 dx=50 dy=0 dh=50 dv=0 dx=0 dy=0 dh=0 dv=0
Colour: ffff
EndChar

StartChar: uni0665
Encoding: 1637 1637 10
Width: 1196
VWidth: 1854
Flags: HMW
LayerCount: 2
Fore
SplineSet
1121 359 m 0
 1121 44 885 -80 601 -80 c 0
 328 -80 75 41 75 356 c 0
 75 610 206 819 423 1039 c 1
 397 1063 371 1085 345 1107 c 1
 503 1300 l 1
 760 1083 1121 763 1121 359 c 0
601 864 m 1
 408 668 325 519 325 356 c 0
 325 214 398 170 601 170 c 0
 809 170 871 207 871 359 c 0
 871 517 757 690 601 864 c 1
EndSplineSet
PairPos2: "'kern' Horizontal Kerning in Arabic lookup 3 per glyph data 0" uni0667 dx=-100 dy=0 dh=-100 dv=0 dx=0 dy=0 dh=0 dv=0
PairPos2: "'kern' Horizontal Kerning in Arabic lookup 3 per glyph data 0" uni0661 dx=50 dy=0 dh=50 dv=0 dx=0 dy=0 dh=0 dv=0
Colour: ffff
EndChar

StartChar: uni0666
Encoding: 1638 1638 11
Width: 1168
VWidth: 1854
Flags: HMW
LayerCount: 2
Fore
SplineSet
124 1056 m 1
 178 1300 l 1
 307 1271 465 1250 618 1250 c 0
 711 1250 794 1258 864 1270 c 1
 986 1162 l 1
 982 1064 979 966 979 875 c 0
 979 499 1016 331 1102 -19 c 1
 859 -78 l 1
 763 276 729 489 729 875 c 0
 729 917 729 961 730 1004 c 1
 692 1001 656 1000 618 1000 c 0
 451 1000 273 1022 124 1056 c 1
EndSplineSet
PairPos2: "'kern' Horizontal Kerning in Arabic lookup 3 per glyph data 0" uni0668 dx=-200 dy=0 dh=-200 dv=0 dx=0 dy=0 dh=0 dv=0
PairPos2: "'kern' Horizontal Kerning in Arabic lookup 3 per glyph data 0" uni066B dx=-150 dy=0 dh=-150 dv=0 dx=0 dy=0 dh=0 dv=0
PairPos2: "'kern' Horizontal Kerning in Arabic lookup 3 per glyph data 0" uni0660 dx=-200 dy=0 dh=-200 dv=0 dx=0 dy=0 dh=0 dv=0
PairPos2: "'kern' Horizontal Kerning in Arabic lookup 3 per glyph data 0" uni0665 dx=-175 dy=0 dh=-175 dv=0 dx=0 dy=0 dh=0 dv=0
PairPos2: "'kern' Horizontal Kerning in Arabic lookup 3 per glyph data 0" uni0664 dx=-50 dy=0 dh=-50 dv=0 dx=0 dy=0 dh=0 dv=0
Colour: ffff
EndChar

StartChar: uni0667
Encoding: 1639 1639 12
Width: 1315
VWidth: 1854
Flags: HMW
LayerCount: 2
Fore
SplineSet
1047 1300 m 1
 1244 1147 l 1
 997 818 848 558 768 -47 c 1
 548 -47 l 1
 472 546 317 819 71 1147 c 1
 269 1300 l 1
 444 1080 568 878 658 583 c 1
 749 880 872 1080 1047 1300 c 1
EndSplineSet
PairPos2: "'kern' Horizontal Kerning in Arabic lookup 3 per glyph data 0" uni066B dx=-125 dy=0 dh=-125 dv=0 dx=0 dy=0 dh=0 dv=0
PairPos2: "'kern' Horizontal Kerning in Arabic lookup 3 per glyph data 0" uni0668 dx=-150 dy=0 dh=-150 dv=0 dx=0 dy=0 dh=0 dv=0
PairPos2: "'kern' Horizontal Kerning in Arabic lookup 3 per glyph data 0" uni0665 dx=-100 dy=0 dh=-100 dv=0 dx=0 dy=0 dh=0 dv=0
PairPos2: "'kern' Horizontal Kerning in Arabic lookup 3 per glyph data 0" uni0660 dx=-100 dy=0 dh=-100 dv=0 dx=0 dy=0 dh=0 dv=0
Colour: ffff
EndChar

StartChar: uni0668
Encoding: 1640 1640 13
Width: 1315
VWidth: 1854
Flags: HMW
LayerCount: 2
Fore
SplineSet
268 -77 m 1
 71 76 l 1
 318 405 467 665 547 1270 c 1
 767 1270 l 1
 843 677 998 404 1244 76 c 1
 1046 -77 l 1
 871 143 747 345 657 640 c 1
 566 343 443 143 268 -77 c 1
EndSplineSet
PairPos2: "'kern' Horizontal Kerning in Arabic lookup 3 per glyph data 0" uni0667 dx=-150 dy=0 dh=-150 dv=0 dx=0 dy=0 dh=0 dv=0
PairPos2: "'kern' Horizontal Kerning in Arabic lookup 3 per glyph data 0" uni0662 dx=-175 dy=0 dh=-175 dv=0 dx=0 dy=0 dh=0 dv=0
PairPos2: "'kern' Horizontal Kerning in Arabic lookup 3 per glyph data 0" uni0663 dx=-200 dy=0 dh=-200 dv=0 dx=0 dy=0 dh=0 dv=0
Colour: ffff
EndChar

StartChar: uni0669
Encoding: 1641 1641 14
Width: 1035
VWidth: 1854
Flags: HMW
LayerCount: 2
Fore
SplineSet
603 732 m 1
 603 797 l 2
 603 1000 558 1050 467 1050 c 0
 403 1050 325 973 325 824 c 0
 325 752 346 723 501 723 c 0
 538 723 571 726 603 732 c 1
609 480 m 1
 574 475 538 473 501 473 c 0
 306 473 75 558 75 824 c 0
 75 1036 199 1300 467 1300 c 0
 774 1300 853 1019 853 797 c 0
 853 731 854 670 855 616 c 0
 863 253 894 185 970 23 c 1
 740 -77 l 1
 666 94 622 205 609 480 c 1
EndSplineSet
PairPos2: "'kern' Horizontal Kerning in Arabic lookup 3 per glyph data 0" uni0665 dx=-50 dy=0 dh=-50 dv=0 dx=0 dy=0 dh=0 dv=0
PairPos2: "'kern' Horizontal Kerning in Arabic lookup 3 per glyph data 0" uni0668 dx=-150 dy=0 dh=-150 dv=0 dx=0 dy=0 dh=0 dv=0
PairPos2: "'kern' Horizontal Kerning in Arabic lookup 3 per glyph data 0" uni066B dx=200 dy=0 dh=200 dv=0 dx=0 dy=0 dh=0 dv=0
Colour: ffff
EndChar

StartChar: uni06F4
Encoding: 1780 1780 19
Width: 1179
VWidth: 1854
Flags: HMW
LayerCount: 2
Fore
SplineSet
498 560 m 1
 535 311 543 196 543 -47 c 1
 293 -47 l 1
 293 431 209 806 76 1224 c 1
 313 1300 l 1
 340 1239 382 1127 400 1064 c 1
 467 1233 600 1300 771 1300 c 0
 837 1300 907 1289 978 1270 c 1
 923 1027 l 1
 860 1042 810 1050 742 1050 c 0
 635 1050 548 988 548 850 c 0
 548 787 557 765 615 751 c 0
 650 743 699 740 761 740 c 0
 821 740 919 748 983 754 c 1
 1005 501 l 1
 935 492 867 487 804 487 c 0
 683 487 586 507 498 560 c 1
EndSplineSet
PairPos2: "'kern' Horizontal Kerning in Arabic lookup 3 per glyph data 1" uni06F8 dx=-50 dy=0 dh=-50 dv=0 dx=0 dy=0 dh=0 dv=0
PairPos2: "'kern' Horizontal Kerning in Arabic lookup 3 per glyph data 1" uni06F0 dx=-25 dy=0 dh=-25 dv=0 dx=0 dy=0 dh=0 dv=0
Colour: ffff
EndChar

StartChar: uni06F5
Encoding: 1781 1781 20
Width: 1276
VWidth: 1854
Flags: HMW
LayerCount: 2
Fore
SplineSet
523 240 m 0
 523 273 523 286 523 319 c 1
 773 319 l 1
 773 286 773 273 773 240 c 0
 773 199 806 170 852 170 c 0
 887 170 951 181 951 321 c 0
 951 471 845 670 642 877 c 1
 401 668 325 473 325 336 c 0
 325 185 395 170 434 170 c 0
 487 170 523 203 523 240 c 0
646 -10 m 1
 584 -57 510 -80 434 -80 c 0
 240 -80 75 86 75 336 c 0
 75 550 185 799 451 1041 c 1
 376 1097 l 1
 519 1300 l 1
 589 1251 658 1202 721 1146 c 0
 1012 891 1201 604 1201 321 c 0
 1201 80 1040 -80 852 -80 c 0
 777 -80 704 -55 646 -10 c 1
EndSplineSet
PairPos2: "'kern' Horizontal Kerning in Arabic lookup 3 per glyph data 1" uni06F9 dx=-75 dy=0 dh=-75 dv=0 dx=0 dy=0 dh=0 dv=0
PairPos2: "'kern' Horizontal Kerning in Arabic lookup 3 per glyph data 1" uni06F7 dx=-100 dy=0 dh=-100 dv=0 dx=0 dy=0 dh=0 dv=0
PairPos2: "'kern' Horizontal Kerning in Arabic lookup 3 per glyph data 1" uni06F3 dx=-25 dy=0 dh=-25 dv=0 dx=0 dy=0 dh=0 dv=0
PairPos2: "'kern' Horizontal Kerning in Arabic lookup 3 per glyph data 1" uni06F2 dx=-25 dy=0 dh=-25 dv=0 dx=0 dy=0 dh=0 dv=0
PairPos2: "'kern' Horizontal Kerning in Arabic lookup 3 per glyph data 1" uni06F1 dx=50 dy=0 dh=50 dv=0 dx=0 dy=0 dh=0 dv=0
Colour: ffff
EndChar

StartChar: uni06F6
Encoding: 1782 1782 21
Width: 1034
VWidth: 1854
Flags: HMW
LayerCount: 2
Fore
SplineSet
565 709 m 0
 679 709 775 764 856 814 c 1
 1017 620 l 1
 713 432 473 222 283 -77 c 1
 67 46 l 1
 181 212 288 340 425 474 c 1
 257 510 81 624 81 853 c 0
 81 1110 272 1300 514 1300 c 0
 678 1300 779 1224 863 1142 c 1
 693 959 l 1
 648 1006 604 1050 514 1050 c 0
 409 1050 331 981 331 853 c 0
 331 771 407 709 565 709 c 0
EndSplineSet
Colour: ffff
EndChar

StartChar: uni0654
Encoding: 1620 1620 25
Width: 0
VWidth: 1854
Flags: HMW
AnchorPoint: "Anchor-1" 0 1598 basemark 0
AnchorPoint: "Anchor-1" 1 1209 mark 0
AnchorPoint: "Anchor-4" 1 1209 mark 0
AnchorPoint: "Anchor-5" 1 1209 mark 0
LayerCount: 2
Fore
SplineSet
-202 1510 m 1
 -249 1612 l 1
 -165 1649 l 1
 -200 1698 -218 1753 -218 1806 c 0
 -218 1914 -137 2007 0 2007 c 0
 29 2007 58 2007 87 2007 c 1
 87 1897 l 1
 58 1897 29 1897 0 1897 c 0
 -82 1897 -108 1855 -108 1806 c 0
 -108 1773 -93 1731 -61 1696 c 1
 157 1796 l 1
 204 1695 l 1
 -202 1510 l 1
EndSplineSet
Colour: ff00
EndChar

StartChar: uni0653
Encoding: 1619 1619 27
Width: 0
VWidth: 1854
Flags: HMW
AnchorPoint: "Anchor-1" 0 1598 basemark 0
AnchorPoint: "Anchor-1" 1 1209 mark 0
AnchorPoint: "Anchor-4" 1 1209 mark 0
AnchorPoint: "Anchor-5" 1 1209 mark 0
LayerCount: 2
Fore
SplineSet
-264 1559 m 1
 -234 1621 -174 1694 -79 1694 c 0
 -39 1694 2 1679 40 1650 c 0
 63 1631 81 1627 94 1627 c 0
 124 1627 157 1657 177 1704 c 1
 279 1662 l 1
 250 1592 189 1517 94 1517 c 0
 53 1517 11 1532 -28 1562 c 0
 -50 1580 -67 1584 -79 1584 c 0
 -109 1584 -144 1553 -165 1510 c 1
 -264 1559 l 1
EndSplineSet
Colour: ff00
EndChar

StartChar: uni0652
Encoding: 1618 1618 28
Width: 0
VWidth: 1854
Flags: HMW
AnchorPoint: "Anchor-1" 0 1598 basemark 0
AnchorPoint: "Anchor-1" 1 1209 mark 0
AnchorPoint: "Anchor-4" 1 1209 mark 0
AnchorPoint: "Anchor-5" 1 1209 mark 0
LayerCount: 2
Fore
SplineSet
0 1797 m 0
 -55 1797 -98 1754 -98 1699 c 0
 -98 1644 -55 1600 0 1600 c 0
 54 1600 99 1645 99 1699 c 0
 99 1753 55 1797 0 1797 c 0
0 1907 m 0
 115 1907 209 1815 209 1699 c 0
 209 1583 116 1490 0 1490 c 0
 -117 1490 -208 1584 -208 1699 c 0
 -208 1814 -117 1907 0 1907 c 0
EndSplineSet
Colour: ff00
EndChar

StartChar: uni0651
Encoding: 1617 1617 29
Width: 0
VWidth: 1854
Flags: HMW
AnchorPoint: "Anchor-1" 0 1598 basemark 0
AnchorPoint: "Anchor-1" 0 1209 mark 0
AnchorPoint: "Anchor-4" 0 1209 mark 0
AnchorPoint: "Anchor-5" 0 1209 mark 0
LayerCount: 2
Fore
SplineSet
161 1726 m 0
 161 1782 150 1823 132 1873 c 1
 235 1910 l 1
 256 1853 271 1798 271 1726 c 0
 271 1624 208 1549 124 1549 c 0
 77 1549 32 1574 0 1611 c 1
 -34 1571 -77 1549 -124 1549 c 0
 -208 1549 -271 1624 -271 1726 c 0
 -271 1798 -256 1853 -235 1910 c 1
 -132 1873 l 1
 -150 1823 -161 1782 -161 1726 c 0
 -161 1664 -136 1659 -124 1659 c 0
 -109 1659 -80 1672 -64 1721 c 0
 -59 1738 -55 1758 -55 1782 c 2
 -55 1862 l 1
 55 1862 l 1
 55 1782 l 2
 55 1758 59 1737 64 1720 c 0
 79 1671 109 1659 124 1659 c 0
 136 1659 161 1664 161 1726 c 0
EndSplineSet
Colour: ff00
EndChar

StartChar: uni064E
Encoding: 1614 1614 30
Width: 0
VWidth: 1854
Flags: HMW
AnchorPoint: "Anchor-1" 0 1598 basemark 0
AnchorPoint: "Anchor-1" 1 1209 mark 0
AnchorPoint: "Anchor-4" 1 1209 mark 0
AnchorPoint: "Anchor-5" 1 1209 mark 0
LayerCount: 2
Fore
SplineSet
157 1796 m 1
 204 1695 l 1
 -202 1510 l 1
 -249 1611 l 1
 157 1796 l 1
EndSplineSet
Colour: ff00
EndChar

StartChar: uni064F
Encoding: 1615 1615 31
Width: 0
VWidth: 1854
Flags: HMW
AnchorPoint: "Anchor-1" 0 1598 basemark 0
AnchorPoint: "Anchor-1" 1 1209 mark 0
AnchorPoint: "Anchor-4" 1 1209 mark 0
AnchorPoint: "Anchor-5" 1 1209 mark 0
LayerCount: 2
Fore
SplineSet
-26 1669 m 1
 -88 1700 -153 1751 -153 1836 c 0
 -153 1939 -62 2014 26 2014 c 0
 136 2014 182 1912 182 1845 c 0
 182 1767 150 1697 102 1641 c 0
 25 1550 -91 1491 -204 1471 c 1
 -224 1579 l 1
 -155 1591 -83 1623 -26 1669 c 1
49 1756 m 1
 65 1785 72 1814 72 1845 c 0
 72 1876 50 1904 26 1904 c 0
 -2 1904 -43 1869 -43 1836 c 0
 -43 1813 -15 1780 49 1756 c 1
EndSplineSet
Colour: ff00
EndChar

StartChar: uni064C
Encoding: 1612 1612 34
Width: 0
VWidth: 1854
Flags: HMW
AnchorPoint: "Anchor-1" 0 1598 basemark 0
AnchorPoint: "Anchor-1" 1 1209 mark 0
AnchorPoint: "Anchor-4" 1 1209 mark 0
AnchorPoint: "Anchor-5" 1 1209 mark 0
LayerCount: 2
Fore
SplineSet
-209 1852 m 0
 -209 1797 -192 1750 -164 1709 c 1
 -254 1647 l 1
 -293 1706 -319 1775 -319 1852 c 0
 -319 2052 -158 2213 42 2213 c 1
 42 2103 l 1
 -97 2103 -209 1990 -209 1852 c 0
EndSplineSet
Refer: 31 1615 N 1 0 0 1 0 0 2
Colour: ff00
EndChar

StartChar: GAFbar
Encoding: 1114122 -1 44
Width: 999
VWidth: 1804
Flags: HMW
LayerCount: 2
Fore
SplineSet
814 1921 m 1
 844 1775 l 1
 591 1723 332 1620 116 1482 c 1
 35 1608 l 1
 269 1758 543 1865 814 1921 c 1
EndSplineSet
Colour: ff00ff
EndChar

StartChar: dotlessfinalBEH
Encoding: 1114123 -1 45
Width: 1973
VWidth: 1854
Flags: HMW
AnchorPoint: "Anchor-5" 944 823 basechar 0
AnchorPoint: "Anchor-3" 767 -4 basechar 0
LayerCount: 2
Fore
SplineSet
1830 588 m 1
 1794 464 1776 380 1776 322 c 0
 1776 215 1839 200 1973 200 c 1
 1973 -50 l 1
 1783 -50 1638 4 1568 131 c 1
 1363 -12 1078 -48 767 -48 c 0
 413 -48 52 46 52 413 c 0
 52 519 89 644 129 750 c 1
 362 655 l 1
 332 584 302 469 302 413 c 0
 302 283 405 202 767 202 c 0
 1341 202 1508 321 1588 649 c 1
 1830 588 l 1
EndSplineSet
Colour: ffff
EndChar

StartChar: dotlessinitialFEH
Encoding: 1114124 -1 46
Width: 921
VWidth: 1854
Flags: HMW
AnchorPoint: "Anchor-5" 463 1073 basechar 0
AnchorPoint: "Anchor-3" 422 -4 basechar 0
LayerCount: 2
Fore
SplineSet
612 563 m 1
 590 764 517 873 457 873 c 0
 401 873 330 789 330 660 c 0
 330 574 365 547 481 547 c 0
 530 547 571 553 612 563 c 1
0 -50 m 0
 -69 -50 -125 6 -125 75 c 0
 -125 143 -70 202 0 202 c 0
 310 202 522 228 581 303 c 1
 547 299 516 297 481 297 c 0
 289 297 80 394 80 651 c 0
 80 862 218 1123 463 1123 c 0
 845 1123 868 604 868 446 c 0
 868 -34 373 -50 0 -50 c 0
EndSplineSet
Colour: ffff
EndChar

StartChar: dotlessfinalFEH
Encoding: 1114125 -1 47
Width: 1876
VWidth: 2374
Flags: HMW
AnchorPoint: "Anchor-5" 1406 887 basechar 0
AnchorPoint: "Anchor-3" 891 0 basechar 0
LayerCount: 2
Fore
SplineSet
1419 284 m 1
 1509 328 1557 385 1557 489 c 0
 1557 608 1509 640 1422 640 c 0
 1332 640 1287 609 1287 489 c 0
 1287 387 1335 328 1419 284 c 1
1417 14 m 1
 1265 -34 1086 -50 891 -50 c 0
 515 -50 54 -17 54 400 c 0
 54 535 93 649 126 741 c 1
 364 664 l 1
 335 579 304 480 304 400 c 0
 304 263 450 200 891 200 c 0
 974 200 1053 204 1125 211 c 1
 1068 289 1037 383 1037 489 c 0
 1037 731 1203 890 1422 890 c 0
 1636 890 1807 732 1807 489 c 0
 1807 382 1775 285 1716 207 c 1
 1768 202 1821 200 1876 200 c 1
 1876 -50 l 1
 1713 -50 1550 -31 1417 14 c 1
EndSplineSet
Colour: ffff
EndChar

StartChar: dotlessmedialFEH
Encoding: 1114126 -1 48
Width: 908
VWidth: 1870
Flags: HMW
LayerCount: 2
Fore
SplineSet
454 282 m 1
 541 327 589 387 589 489 c 0
 589 608 541 640 454 640 c 0
 364 640 319 609 319 489 c 0
 319 386 368 326 454 282 c 1
0 200 m 0
 55 200 110 202 160 207 c 1
 101 285 69 381 69 489 c 0
 69 731 235 890 454 890 c 0
 668 890 839 732 839 489 c 0
 839 381 806 284 748 207 c 1
 800 202 852 200 908 200 c 1
 908 -50 l 1
 747 -50 586 -31 454 13 c 1
 320 -32 161 -50 0 -50 c 0
 -69 -50 -125 6 -125 75 c 0
 -125 144 -69 200 0 200 c 0
EndSplineSet
Colour: ffff
EndChar

StartChar: dotlessfinalQAF
Encoding: 1114127 -1 49
Width: 1505
VWidth: 1854
Flags: HMW
AnchorPoint: "Anchor-3" 728 -504 basechar 0
AnchorPoint: "Anchor-5" 1047 726 basechar 0
LayerCount: 2
Fore
SplineSet
1047 526 m 0
 969 526 914 433 914 304 c 0
 914 235 950 200 1065 200 c 2
 1197 200 l 1
 1172.88378906 384.887695312 1130.859375 526 1047 526 c 0
303 -3 m 0
 303 -180 471 -304 728 -304 c 0
 948 -304 1117 -211 1177 -50 c 1
 1065 -50 l 2
 873 -50 664 47 664 304 c 0
 664 515 802 776 1047 776 c 0
 1375 776 1434 384 1448 200 c 1
 1505 200 l 1
 1505 -50 l 1
 1437 -50 l 1
 1363 -396 1040 -554 728 -554 c 0
 411 -554 53 -380 53 -3 c 0
 53 195 148 406 260 600 c 1
 470 470 l 1
 374 306 303 125 303 -3 c 0
EndSplineSet
Colour: ffff
EndChar

StartChar: uniFEFB
Encoding: 65275 65275 51
Width: 1092
VWidth: 1854
Flags: HMW
AnchorPoint: "Anchor-4" 188 1146 baselig 1
AnchorPoint: "Anchor-4" 892 1211 baselig 0
AnchorPoint: "Anchor-2" 266 0 baselig 1
AnchorPoint: "Anchor-2" 855 0 baselig 0
LayerCount: 2
Fore
SplineSet
697 448 m 1
 609 347 516 267 428 194 c 1
 470 186 515 182 554 182 c 0
 742 182 764 230 764 249 c 0
 764 279 741 354 697 448 c 1
147 283 m 1
 284 380 418 488 541 648 c 1
 404 843 238 960 75 1071 c 1
 218 1278 l 1
 387 1159 545 1009 682 829 c 1
 743 964 767 1091 767 1261 c 1
 1017 1261 l 1
 1017 992 954 836 840 645 c 1
 919 510 980 377 980 253 c 0
 980 -16 695 -50 562 -50 c 0
 401 -50 258 3 147 73 c 1
 147 283 l 1
EndSplineSet
PairPos2: "'kern' Horizontal Kerning in Arabic lookup 2 per glyph data 0" uni0686 dx=-150 dy=0 dh=-150 dv=0 dx=0 dy=0 dh=0 dv=0
PairPos2: "'kern' Horizontal Kerning in Arabic lookup 2 per glyph data 0" uni063A dx=-150 dy=0 dh=-150 dv=0 dx=0 dy=0 dh=0 dv=0
PairPos2: "'kern' Horizontal Kerning in Arabic lookup 2 per glyph data 0" uni0639 dx=-150 dy=0 dh=-150 dv=0 dx=0 dy=0 dh=0 dv=0
PairPos2: "'kern' Horizontal Kerning in Arabic lookup 2 per glyph data 0" uni062E dx=-150 dy=0 dh=-150 dv=0 dx=0 dy=0 dh=0 dv=0
PairPos2: "'kern' Horizontal Kerning in Arabic lookup 2 per glyph data 0" uni062D dx=-150 dy=0 dh=-150 dv=0 dx=0 dy=0 dh=0 dv=0
PairPos2: "'kern' Horizontal Kerning in Arabic lookup 2 per glyph data 0" uni062C dx=-150 dy=0 dh=-150 dv=0 dx=0 dy=0 dh=0 dv=0
Ligature2: "'rlig' Required Ligatures in Arabic lookup 5 subtable" uniFEDF uniFE8E
LCarets2: 1 0
Colour: ffff
EndChar

StartChar: uniFEFC
Encoding: 65276 65276 52
Width: 1372
VWidth: 1854
Flags: HMW
AnchorPoint: "Anchor-2" 976 0 baselig 0
AnchorPoint: "Anchor-2" 266 0 baselig 1
AnchorPoint: "Anchor-4" 988 1211 baselig 0
AnchorPoint: "Anchor-4" 151 1211 baselig 1
LayerCount: 2
Fore
SplineSet
1372 -50 m 1
 1195 -50 1039 5 953 131 c 1
 778 -14 500 -50 100 -50 c 1
 100 200 l 1
 759 200 863 281 863 516 c 2
 863 1259 l 1
 1113 1259 l 1
 1113 517 l 2
 1113 380 1136 300 1166 263 c 0
 1193 230 1242 200 1372 200 c 1
 1372 -50 l 1
524 365 m 1
 274 365 l 1
 274 673 220 911 101 1186 c 1
 331 1286 l 1
 464 977 524 703 524 365 c 1
EndSplineSet
PairPos2: "'kern' Horizontal Kerning in Arabic lookup 2 per glyph data 0" uni0686 dx=-150 dy=0 dh=-150 dv=0 dx=0 dy=0 dh=0 dv=0
PairPos2: "'kern' Horizontal Kerning in Arabic lookup 2 per glyph data 0" uni063A dx=-180 dy=0 dh=-180 dv=0 dx=0 dy=0 dh=0 dv=0
PairPos2: "'kern' Horizontal Kerning in Arabic lookup 2 per glyph data 0" uni0639 dx=-180 dy=0 dh=-180 dv=0 dx=0 dy=0 dh=0 dv=0
PairPos2: "'kern' Horizontal Kerning in Arabic lookup 2 per glyph data 0" uni062E dx=-150 dy=0 dh=-150 dv=0 dx=0 dy=0 dh=0 dv=0
PairPos2: "'kern' Horizontal Kerning in Arabic lookup 2 per glyph data 0" uni062D dx=-150 dy=0 dh=-150 dv=0 dx=0 dy=0 dh=0 dv=0
PairPos2: "'kern' Horizontal Kerning in Arabic lookup 2 per glyph data 0" uni062C dx=-150 dy=0 dh=-150 dv=0 dx=0 dy=0 dh=0 dv=0
Ligature2: "'rlig' Required Ligatures in Arabic lookup 5 subtable" uniFEE0 uniFE8E
LCarets2: 1 0
Colour: ffff
EndChar

StartChar: uni060C
Encoding: 1548 1548 59
Width: 558
VWidth: 1854
Flags: HMW
LayerCount: 2
Fore
SplineSet
276 635 m 1
 353 581 l 1
 300 520 235 390 235 295 c 1
 338 295 438 253 438 151 c 0
 438 81 399 0 286 0 c 0
 177 0 120 77 120 190 c 0
 120 392 196 537 276 635 c 1
EndSplineSet
EndChar

StartChar: uni0615
Encoding: 1557 1557 61
Width: 0
VWidth: 1854
Flags: HMW
AnchorPoint: "Anchor-5" 1 1209 mark 0
AnchorPoint: "Anchor-4" 1 1209 mark 0
AnchorPoint: "Anchor-1" 1 1209 mark 0
AnchorPoint: "Anchor-1" 0 1598 basemark 0
LayerCount: 2
Fore
SplineSet
224 1431 m 1
 408 1440 447 1470 447 1516 c 0
 447 1549 431 1565 394 1565 c 0
 353 1565 285 1530 224 1431 c 1
557 1516 m 0
 557 1326 327 1321 119 1319 c 2
 -5 1319 l 1
 -5 1429 l 1
 95 1429 l 1
 95 1842 l 1
 205 1842 l 1
 205 1585 l 1
 264 1643 328 1675 394 1675 c 0
 481 1675 557 1613 557 1516 c 0
EndSplineSet
Colour: ff00
EndChar

StartChar: less
Encoding: 60 60 63
Width: 775
VWidth: 1819
Flags: HMW
LayerCount: 2
Fore
SplineSet
545 1200 m 1
 670 1071 l 1
 309 728 l 1
 670 384 l 1
 545 255 l 1
 47 728 l 1
 545 1200 l 1
EndSplineSet
Colour: ff00ff
EndChar

StartChar: greater
Encoding: 62 62 65
Width: 775
VWidth: 1819
Flags: HMW
LayerCount: 2
Fore
SplineSet
172 255 m 1
 47 384 l 1
 408 727 l 1
 47 1071 l 1
 172 1200 l 1
 670 727 l 1
 172 255 l 1
EndSplineSet
Colour: ff00
EndChar

StartChar: braceleft
Encoding: 123 123 66
Width: 806
VWidth: 1647
Flags: HMW
LayerCount: 2
Fore
SplineSet
100 792 m 1
 188 811 285 833 285 945 c 2
 285 1221 l 2
 285 1356 401 1459 547 1459 c 0
 706 1459 l 1
 706 1248 l 1
 547 1248 l 0
 535 1248 535 1248 535 1236 c 2
 535 945 l 2
 535 851 498 767 437 705 c 1
 498 643 535 559 535 465 c 2
 535 174 l 2
 535 162 535 162 547 162 c 0
 706 162 l 1
 706 -47 l 1
 547 -47 l 0
 402 -47 285 53 285 189 c 2
 285 465 l 2
 285 577 188 599 100 618 c 1
 100 792 l 1
EndSplineSet
Colour: ffff00
EndChar

StartChar: braceright
Encoding: 125 125 67
Width: 806
VWidth: 1647
Flags: HMW
LayerCount: 2
Fore
SplineSet
706 620 m 1
 618 601 521 579 521 467 c 2
 521 191 l 2
 521 56 405 -47 259 -47 c 0
 100 -47 l 1
 100 164 l 1
 259 164 l 0
 271 164 271 164 271 176 c 2
 271 467 l 2
 271 561 308 645 369 707 c 1
 308 769 271 853 271 947 c 2
 271 1238 l 2
 271 1250 271 1250 259 1250 c 0
 100 1250 l 1
 100 1459 l 1
 259 1459 l 0
 404 1459 521 1359 521 1223 c 2
 521 947 l 2
 521 835 618 813 706 794 c 1
 706 620 l 1
EndSplineSet
Colour: ffff00
EndChar

StartChar: uni061F
Encoding: 1567 1567 70
Width: 1067
VWidth: 1854
Flags: HMW
LayerCount: 2
Fore
SplineSet
735 938 m 1
 739 966 742 993 742 1024 c 0
 742 1163 680 1248 539 1248 c 0
 412 1248 331 1134 331 1018 c 0
 331 894 403 832 482 764 c 0
 576 683 679 593 679 380 c 1
 429 380 l 1
 429 549 340 614 251 678 c 0
 162.177734375 741.872070312 75 810 75 983 c 0
 75 1226 240 1459 539 1459 c 0
 839 1459 992 1248 992 1024 c 0
 992 989 988 943 982 908 c 1
 735 938 l 1
EndSplineSet
Refer: 0 46 S -1 0 0 1 778 0 2
Colour: ffff00
EndChar

StartChar: uni0621
Encoding: 1569 1569 71
Width: 878
VWidth: 1854
Flags: HMW
AnchorPoint: "Anchor-5" 431 831 basechar 0
AnchorPoint: "Anchor-3" 431 65 basechar 0
LayerCount: 2
Fore
SplineSet
581 514 m 1
 547 554 508 591 431 591 c 0
 356 591 274 531 274 410 c 0
 274 350 328 312 502 310 c 1
 726 403 l 1
 796 237 l 1
 153 -29 l 1
 83 137 l 1
 216 192 l 1
 145 234 94 303 94 410 c 0
 94 625 256 771 431 771 c 0
 571 771 660 698 718 629 c 1
 581 514 l 1
EndSplineSet
Colour: ff00ff
EndChar

StartChar: uni0627
Encoding: 1575 1575 72
Width: 500
VWidth: 1854
Flags: HMW
AnchorPoint: "Anchor-5" 251 1211 basechar 0
AnchorPoint: "Anchor-3" 251 0 basechar 0
LayerCount: 2
Fore
SplineSet
375 -47 m 1
 125 -47 l 1
 125 1259 l 1
 375 1259 l 1
 375 -47 l 1
EndSplineSet
PairPos2: "'kern' Horizontal Kerning in Arabic lookup 2 per glyph data 1" uni063A dx=-225 dy=0 dh=-225 dv=0 dx=0 dy=0 dh=0 dv=0
PairPos2: "'kern' Horizontal Kerning in Arabic lookup 2 per glyph data 1" uni0639 dx=-225 dy=0 dh=-225 dv=0 dx=0 dy=0 dh=0 dv=0
PairPos2: "'kern' Horizontal Kerning in Arabic lookup 2 per glyph data 0" uni0639 dx=-200 dy=0 dh=-200 dv=0 dx=0 dy=0 dh=0 dv=0
PairPos2: "'kern' Horizontal Kerning in Arabic lookup 2 per glyph data 0" uni063A dx=-200 dy=0 dh=-200 dv=0 dx=0 dy=0 dh=0 dv=0
PairPos2: "'kern' Horizontal Kerning in Arabic lookup 2 per glyph data 0" uni0622 dx=200 dy=0 dh=200 dv=0 dx=0 dy=0 dh=0 dv=0
Substitution2: "'medi' Medial Forms in Arabic lookup 3 subtable" uniFE8E
Substitution2: "'fina' Terminal Forms in Arabic lookup 2 subtable" uniFE8E
Colour: ffff
EndChar

StartChar: uni062D
Encoding: 1581 1581 73
Width: 1464
VWidth: 1854
Flags: HMW
AnchorPoint: "Anchor-5" 507 853 basechar 0
AnchorPoint: "Anchor-3" 805 -736 basechar 0
LayerCount: 2
Fore
SplineSet
1289 -438 m 1
 1376 -671 l 1
 1207 -736 1027 -786 805 -786 c 0
 475 -786 51 -642 51 -226 c 0
 51 206 518 402 932 532 c 1
 589 639 l 18
 555 650 528 653 507 653 c 0
 404 653 370 569 347 385 c 1
 99 412 l 1
 124 663 225 903 507 903 c 0
 558 903 612 896 670 875 c 10
 1306 646 l 1
 1301 390 l 1
 729 247 301 66 301 -226 c 0
 301 -416 502 -536 805 -536 c 0
 997 -536 1138 -493 1289 -438 c 1
EndSplineSet
Substitution2: "'init' Initial Forms in Arabic lookup 4 subtable" uniFEA3
Substitution2: "'medi' Medial Forms in Arabic lookup 3 subtable" uniFEA4
Substitution2: "'fina' Terminal Forms in Arabic lookup 2 subtable" uniFEA2
Colour: ffff
EndChar

StartChar: uni062F
Encoding: 1583 1583 74
Width: 936
VWidth: 1854
Flags: HMW
AnchorPoint: "Anchor-5" 485 904 basechar 0
AnchorPoint: "Anchor-3" 469 0 basechar 0
LayerCount: 2
Fore
SplineSet
883 327 m 0
 883 27 573 -50 352 -50 c 0
 257 -50 155 -33 64 -9 c 1
 125 231 l 1
 196 213 277 200 352 200 c 0
 565 200 633 267 633 327 c 0
 633 452 540 598 333 773 c 1
 493 963 l 1
 725 768 883 565 883 327 c 0
EndSplineSet
PairPos2: "'kern' Horizontal Kerning in Arabic lookup 2 per glyph data 3" uniFEDB dx=-300 dy=0 dh=-300 dv=0 dx=0 dy=0 dh=0 dv=0
PairPos2: "'kern' Horizontal Kerning in Arabic lookup 2 per glyph data 3" uniFB94 dx=-300 dy=0 dh=-300 dv=0 dx=0 dy=0 dh=0 dv=0
PairPos2: "'kern' Horizontal Kerning in Arabic lookup 2 per glyph data 3" uniFB90 dx=-300 dy=0 dh=-300 dv=0 dx=0 dy=0 dh=0 dv=0
PairPos2: "'kern' Horizontal Kerning in Arabic lookup 2 per glyph data 3" uni06AF dx=-300 dy=0 dh=-300 dv=0 dx=0 dy=0 dh=0 dv=0
PairPos2: "'kern' Horizontal Kerning in Arabic lookup 2 per glyph data 3" uni06A9 dx=-300 dy=0 dh=-300 dv=0 dx=0 dy=0 dh=0 dv=0
PairPos2: "'kern' Horizontal Kerning in Arabic lookup 2 per glyph data 1" uni063A dx=-250 dy=0 dh=-250 dv=0 dx=0 dy=0 dh=0 dv=0
PairPos2: "'kern' Horizontal Kerning in Arabic lookup 2 per glyph data 1" uni0639 dx=-250 dy=0 dh=-250 dv=0 dx=0 dy=0 dh=0 dv=0
Substitution2: "'fina' Terminal Forms in Arabic lookup 2 subtable" uniFEAA
Colour: ffff
EndChar

StartChar: uni0631
Encoding: 1585 1585 75
Width: 834
VWidth: 1854
Flags: HMW
AnchorPoint: "Anchor-3" 488 -402 basechar 0
AnchorPoint: "Anchor-5" 556 571 basechar 0
LayerCount: 2
Fore
SplineSet
430 548 m 1
 663 640 l 1
 730 468 781 292 781 131 c 0
 781 -202 531 -436 169 -572 c 1
 84 -337 l 1
 373 -236 531 -87 531 131 c 0
 531 243 493 403 430 548 c 1
EndSplineSet
PairPos2: "'kern' Horizontal Kerning in Arabic lookup 2 per glyph data 7" uni06CE dx=-100 dy=0 dh=-100 dv=0 dx=0 dy=0 dh=0 dv=0
PairPos2: "'kern' Horizontal Kerning in Arabic lookup 2 per glyph data 7" uni06C6 dx=-150 dy=0 dh=-150 dv=0 dx=0 dy=0 dh=0 dv=0
PairPos2: "'kern' Horizontal Kerning in Arabic lookup 2 per glyph data 7" uni06BE dx=-250 dy=0 dh=-250 dv=0 dx=0 dy=0 dh=0 dv=0
PairPos2: "'kern' Horizontal Kerning in Arabic lookup 2 per glyph data 7" uniFBE8 dx=-225 dy=0 dh=-225 dv=0 dx=0 dy=0 dh=0 dv=0
PairPos2: "'kern' Horizontal Kerning in Arabic lookup 2 per glyph data 7" uni06BA dx=-150 dy=0 dh=-150 dv=0 dx=0 dy=0 dh=0 dv=0
PairPos2: "'kern' Horizontal Kerning in Arabic lookup 2 per glyph data 7" uniE017 dx=-325 dy=0 dh=-325 dv=0 dx=0 dy=0 dh=0 dv=0
PairPos2: "'kern' Horizontal Kerning in Arabic lookup 2 per glyph data 7" uniE015 dx=-250 dy=0 dh=-250 dv=0 dx=0 dy=0 dh=0 dv=0
PairPos2: "'kern' Horizontal Kerning in Arabic lookup 2 per glyph data 7" uni06B5 dx=-112 dy=0 dh=-112 dv=0 dx=0 dy=0 dh=0 dv=0
PairPos2: "'kern' Horizontal Kerning in Arabic lookup 2 per glyph data 7" uniFB6C dx=-250 dy=0 dh=-250 dv=0 dx=0 dy=0 dh=0 dv=0
PairPos2: "'kern' Horizontal Kerning in Arabic lookup 2 per glyph data 7" uni06A4 dx=-250 dy=0 dh=-250 dv=0 dx=0 dy=0 dh=0 dv=0
PairPos2: "'kern' Horizontal Kerning in Arabic lookup 2 per glyph data 7" uni0695 dx=-150 dy=0 dh=-150 dv=0 dx=0 dy=0 dh=0 dv=0
PairPos2: "'kern' Horizontal Kerning in Arabic lookup 2 per glyph data 7" uni06D5 dx=-250 dy=0 dh=-250 dv=0 dx=0 dy=0 dh=0 dv=0
PairPos2: "'kern' Horizontal Kerning in Arabic lookup 2 per glyph data 7" uniE012 dx=-150 dy=0 dh=-150 dv=0 dx=0 dy=0 dh=0 dv=0
PairPos2: "'kern' Horizontal Kerning in Arabic lookup 2 per glyph data 4" parenleft dx=-300 dy=0 dh=-300 dv=0 dx=0 dy=0 dh=0 dv=0
PairPos2: "'kern' Horizontal Kerning in Arabic lookup 2 per glyph data 4" less dx=-420 dy=0 dh=-420 dv=0 dx=0 dy=0 dh=0 dv=0
PairPos2: "'kern' Horizontal Kerning in Arabic lookup 2 per glyph data 4" guillemotleft dx=-420 dy=0 dh=-420 dv=0 dx=0 dy=0 dh=0 dv=0
PairPos2: "'kern' Horizontal Kerning in Arabic lookup 2 per glyph data 4" bracketleft dx=-300 dy=0 dh=-300 dv=0 dx=0 dy=0 dh=0 dv=0
PairPos2: "'kern' Horizontal Kerning in Arabic lookup 2 per glyph data 3" uniFEDB dx=-300 dy=0 dh=-300 dv=0 dx=0 dy=0 dh=0 dv=0
PairPos2: "'kern' Horizontal Kerning in Arabic lookup 2 per glyph data 3" uniFB94 dx=-300 dy=0 dh=-300 dv=0 dx=0 dy=0 dh=0 dv=0
PairPos2: "'kern' Horizontal Kerning in Arabic lookup 2 per glyph data 3" uniFB90 dx=-300 dy=0 dh=-300 dv=0 dx=0 dy=0 dh=0 dv=0
PairPos2: "'kern' Horizontal Kerning in Arabic lookup 2 per glyph data 3" uni06AF dx=-300 dy=0 dh=-300 dv=0 dx=0 dy=0 dh=0 dv=0
PairPos2: "'kern' Horizontal Kerning in Arabic lookup 2 per glyph data 3" uni06A9 dx=-300 dy=0 dh=-300 dv=0 dx=0 dy=0 dh=0 dv=0
PairPos2: "'kern' Horizontal Kerning in Arabic lookup 2 per glyph data 2" uni0621 dx=-200 dy=0 dh=-200 dv=0 dx=0 dy=0 dh=0 dv=0
PairPos2: "'kern' Horizontal Kerning in Arabic lookup 2 per glyph data 2" uni064A dx=-100 dy=0 dh=-100 dv=0 dx=0 dy=0 dh=0 dv=0
PairPos2: "'kern' Horizontal Kerning in Arabic lookup 2 per glyph data 2" uni0649 dx=-100 dy=0 dh=-100 dv=0 dx=0 dy=0 dh=0 dv=0
PairPos2: "'kern' Horizontal Kerning in Arabic lookup 2 per glyph data 2" uni06CC dx=-100 dy=0 dh=-100 dv=0 dx=0 dy=0 dh=0 dv=0
PairPos2: "'kern' Horizontal Kerning in Arabic lookup 2 per glyph data 2" uniFEFB dx=-325 dy=0 dh=-325 dv=0 dx=0 dy=0 dh=0 dv=0
PairPos2: "'kern' Horizontal Kerning in Arabic lookup 2 per glyph data 2" uniFEF9 dx=-325 dy=0 dh=-325 dv=0 dx=0 dy=0 dh=0 dv=0
PairPos2: "'kern' Horizontal Kerning in Arabic lookup 2 per glyph data 2" uniFEF7 dx=-325 dy=0 dh=-325 dv=0 dx=0 dy=0 dh=0 dv=0
PairPos2: "'kern' Horizontal Kerning in Arabic lookup 2 per glyph data 2" uniFEF5 dx=-325 dy=0 dh=-325 dv=0 dx=0 dy=0 dh=0 dv=0
PairPos2: "'kern' Horizontal Kerning in Arabic lookup 2 per glyph data 2" uniFEEB dx=-250 dy=0 dh=-250 dv=0 dx=0 dy=0 dh=0 dv=0
PairPos2: "'kern' Horizontal Kerning in Arabic lookup 2 per glyph data 2" uniFEE7 dx=-225 dy=0 dh=-225 dv=0 dx=0 dy=0 dh=0 dv=0
PairPos2: "'kern' Horizontal Kerning in Arabic lookup 2 per glyph data 2" uniFEE3 dx=-250 dy=0 dh=-250 dv=0 dx=0 dy=0 dh=0 dv=0
PairPos2: "'kern' Horizontal Kerning in Arabic lookup 2 per glyph data 2" uniFEDF dx=-250 dy=0 dh=-250 dv=0 dx=0 dy=0 dh=0 dv=0
PairPos2: "'kern' Horizontal Kerning in Arabic lookup 2 per glyph data 2" uniFEDB dx=-500 dy=0 dh=-500 dv=0 dx=0 dy=0 dh=0 dv=0
PairPos2: "'kern' Horizontal Kerning in Arabic lookup 2 per glyph data 2" uniFED7 dx=-250 dy=0 dh=-250 dv=0 dx=0 dy=0 dh=0 dv=0
PairPos2: "'kern' Horizontal Kerning in Arabic lookup 2 per glyph data 2" uniFED3 dx=-250 dy=0 dh=-250 dv=0 dx=0 dy=0 dh=0 dv=0
PairPos2: "'kern' Horizontal Kerning in Arabic lookup 2 per glyph data 2" uniFECF dx=-300 dy=0 dh=-300 dv=0 dx=0 dy=0 dh=0 dv=0
PairPos2: "'kern' Horizontal Kerning in Arabic lookup 2 per glyph data 2" uniFECB dx=-300 dy=0 dh=-300 dv=0 dx=0 dy=0 dh=0 dv=0
PairPos2: "'kern' Horizontal Kerning in Arabic lookup 2 per glyph data 2" uniFEC7 dx=-300 dy=0 dh=-300 dv=0 dx=0 dy=0 dh=0 dv=0
PairPos2: "'kern' Horizontal Kerning in Arabic lookup 2 per glyph data 2" uniFEC3 dx=-300 dy=0 dh=-300 dv=0 dx=0 dy=0 dh=0 dv=0
PairPos2: "'kern' Horizontal Kerning in Arabic lookup 2 per glyph data 2" uniFEBF dx=-300 dy=0 dh=-300 dv=0 dx=0 dy=0 dh=0 dv=0
PairPos2: "'kern' Horizontal Kerning in Arabic lookup 2 per glyph data 2" uniFEBB dx=-300 dy=0 dh=-300 dv=0 dx=0 dy=0 dh=0 dv=0
PairPos2: "'kern' Horizontal Kerning in Arabic lookup 2 per glyph data 2" uniFEB7 dx=-200 dy=0 dh=-200 dv=0 dx=0 dy=0 dh=0 dv=0
PairPos2: "'kern' Horizontal Kerning in Arabic lookup 2 per glyph data 2" uniFEB3 dx=-200 dy=0 dh=-200 dv=0 dx=0 dy=0 dh=0 dv=0
PairPos2: "'kern' Horizontal Kerning in Arabic lookup 2 per glyph data 2" uniFEA7 dx=-250 dy=0 dh=-250 dv=0 dx=0 dy=0 dh=0 dv=0
PairPos2: "'kern' Horizontal Kerning in Arabic lookup 2 per glyph data 2" uniFEA3 dx=-250 dy=0 dh=-250 dv=0 dx=0 dy=0 dh=0 dv=0
PairPos2: "'kern' Horizontal Kerning in Arabic lookup 2 per glyph data 2" uniFE9F dx=-250 dy=0 dh=-250 dv=0 dx=0 dy=0 dh=0 dv=0
PairPos2: "'kern' Horizontal Kerning in Arabic lookup 2 per glyph data 2" uniFE9B dx=-225 dy=0 dh=-225 dv=0 dx=0 dy=0 dh=0 dv=0
PairPos2: "'kern' Horizontal Kerning in Arabic lookup 2 per glyph data 2" uniFE97 dx=-225 dy=0 dh=-225 dv=0 dx=0 dy=0 dh=0 dv=0
PairPos2: "'kern' Horizontal Kerning in Arabic lookup 2 per glyph data 2" uniFE91 dx=-225 dy=0 dh=-225 dv=0 dx=0 dy=0 dh=0 dv=0
PairPos2: "'kern' Horizontal Kerning in Arabic lookup 2 per glyph data 2" uniFE8B dx=-225 dy=0 dh=-225 dv=0 dx=0 dy=0 dh=0 dv=0
PairPos2: "'kern' Horizontal Kerning in Arabic lookup 2 per glyph data 2" uniFB94 dx=-400 dy=0 dh=-400 dv=0 dx=0 dy=0 dh=0 dv=0
PairPos2: "'kern' Horizontal Kerning in Arabic lookup 2 per glyph data 2" uniFB90 dx=-400 dy=0 dh=-400 dv=0 dx=0 dy=0 dh=0 dv=0
PairPos2: "'kern' Horizontal Kerning in Arabic lookup 2 per glyph data 2" uniFB7C dx=-250 dy=0 dh=-250 dv=0 dx=0 dy=0 dh=0 dv=0
PairPos2: "'kern' Horizontal Kerning in Arabic lookup 2 per glyph data 2" uni06CA dx=-150 dy=0 dh=-150 dv=0 dx=0 dy=0 dh=0 dv=0
PairPos2: "'kern' Horizontal Kerning in Arabic lookup 2 per glyph data 2" uni06C0 dx=-250 dy=0 dh=-250 dv=0 dx=0 dy=0 dh=0 dv=0
PairPos2: "'kern' Horizontal Kerning in Arabic lookup 2 per glyph data 2" uni06AF dx=-400 dy=0 dh=-400 dv=0 dx=0 dy=0 dh=0 dv=0
PairPos2: "'kern' Horizontal Kerning in Arabic lookup 2 per glyph data 2" uni06A9 dx=-400 dy=0 dh=-400 dv=0 dx=0 dy=0 dh=0 dv=0
PairPos2: "'kern' Horizontal Kerning in Arabic lookup 2 per glyph data 2" uni0698 dx=-150 dy=0 dh=-150 dv=0 dx=0 dy=0 dh=0 dv=0
PairPos2: "'kern' Horizontal Kerning in Arabic lookup 2 per glyph data 2" uni0686 dx=-125 dy=0 dh=-125 dv=0 dx=0 dy=0 dh=0 dv=0
PairPos2: "'kern' Horizontal Kerning in Arabic lookup 2 per glyph data 2" uni067E dx=-250 dy=0 dh=-250 dv=0 dx=0 dy=0 dh=0 dv=0
PairPos2: "'kern' Horizontal Kerning in Arabic lookup 2 per glyph data 2" uni0648 dx=-150 dy=0 dh=-150 dv=0 dx=0 dy=0 dh=0 dv=0
PairPos2: "'kern' Horizontal Kerning in Arabic lookup 2 per glyph data 2" uni0647 dx=-250 dy=0 dh=-250 dv=0 dx=0 dy=0 dh=0 dv=0
PairPos2: "'kern' Horizontal Kerning in Arabic lookup 2 per glyph data 2" uni0646 dx=-150 dy=0 dh=-150 dv=0 dx=0 dy=0 dh=0 dv=0
PairPos2: "'kern' Horizontal Kerning in Arabic lookup 2 per glyph data 2" uni0645 dx=-250 dy=0 dh=-250 dv=0 dx=0 dy=0 dh=0 dv=0
PairPos2: "'kern' Horizontal Kerning in Arabic lookup 2 per glyph data 2" uni0644 dx=-112 dy=0 dh=-112 dv=0 dx=0 dy=0 dh=0 dv=0
PairPos2: "'kern' Horizontal Kerning in Arabic lookup 2 per glyph data 2" uni0643 dx=-300 dy=0 dh=-300 dv=0 dx=0 dy=0 dh=0 dv=0
PairPos2: "'kern' Horizontal Kerning in Arabic lookup 2 per glyph data 2" uni0642 dx=-150 dy=0 dh=-150 dv=0 dx=0 dy=0 dh=0 dv=0
PairPos2: "'kern' Horizontal Kerning in Arabic lookup 2 per glyph data 2" uni0641 dx=-250 dy=0 dh=-250 dv=0 dx=0 dy=0 dh=0 dv=0
PairPos2: "'kern' Horizontal Kerning in Arabic lookup 2 per glyph data 2" uni0638 dx=-300 dy=0 dh=-300 dv=0 dx=0 dy=0 dh=0 dv=0
PairPos2: "'kern' Horizontal Kerning in Arabic lookup 2 per glyph data 2" uni0637 dx=-300 dy=0 dh=-300 dv=0 dx=0 dy=0 dh=0 dv=0
PairPos2: "'kern' Horizontal Kerning in Arabic lookup 2 per glyph data 2" uni0636 dx=-300 dy=0 dh=-300 dv=0 dx=0 dy=0 dh=0 dv=0
PairPos2: "'kern' Horizontal Kerning in Arabic lookup 2 per glyph data 2" uni0635 dx=-300 dy=0 dh=-300 dv=0 dx=0 dy=0 dh=0 dv=0
PairPos2: "'kern' Horizontal Kerning in Arabic lookup 2 per glyph data 2" uni0634 dx=-200 dy=0 dh=-200 dv=0 dx=0 dy=0 dh=0 dv=0
PairPos2: "'kern' Horizontal Kerning in Arabic lookup 2 per glyph data 2" uni0633 dx=-200 dy=0 dh=-200 dv=0 dx=0 dy=0 dh=0 dv=0
PairPos2: "'kern' Horizontal Kerning in Arabic lookup 2 per glyph data 2" uni0632 dx=-150 dy=0 dh=-150 dv=0 dx=0 dy=0 dh=0 dv=0
PairPos2: "'kern' Horizontal Kerning in Arabic lookup 2 per glyph data 2" uni0631 dx=-150 dy=0 dh=-150 dv=0 dx=0 dy=0 dh=0 dv=0
PairPos2: "'kern' Horizontal Kerning in Arabic lookup 2 per glyph data 2" uni0630 dx=-250 dy=0 dh=-250 dv=0 dx=0 dy=0 dh=0 dv=0
PairPos2: "'kern' Horizontal Kerning in Arabic lookup 2 per glyph data 2" uni062F dx=-250 dy=0 dh=-250 dv=0 dx=0 dy=0 dh=0 dv=0
PairPos2: "'kern' Horizontal Kerning in Arabic lookup 2 per glyph data 2" uni062E dx=-125 dy=0 dh=-125 dv=0 dx=0 dy=0 dh=0 dv=0
PairPos2: "'kern' Horizontal Kerning in Arabic lookup 2 per glyph data 2" uni062D dx=-125 dy=0 dh=-125 dv=0 dx=0 dy=0 dh=0 dv=0
PairPos2: "'kern' Horizontal Kerning in Arabic lookup 2 per glyph data 2" uni062C dx=-125 dy=0 dh=-125 dv=0 dx=0 dy=0 dh=0 dv=0
PairPos2: "'kern' Horizontal Kerning in Arabic lookup 2 per glyph data 2" uni062B dx=-250 dy=0 dh=-250 dv=0 dx=0 dy=0 dh=0 dv=0
PairPos2: "'kern' Horizontal Kerning in Arabic lookup 2 per glyph data 2" uni062A dx=-250 dy=0 dh=-250 dv=0 dx=0 dy=0 dh=0 dv=0
PairPos2: "'kern' Horizontal Kerning in Arabic lookup 2 per glyph data 2" uni0629 dx=-250 dy=0 dh=-250 dv=0 dx=0 dy=0 dh=0 dv=0
PairPos2: "'kern' Horizontal Kerning in Arabic lookup 2 per glyph data 2" uni0628 dx=-250 dy=0 dh=-250 dv=0 dx=0 dy=0 dh=0 dv=0
PairPos2: "'kern' Horizontal Kerning in Arabic lookup 2 per glyph data 2" uni0627 dx=-250 dy=0 dh=-250 dv=0 dx=0 dy=0 dh=0 dv=0
PairPos2: "'kern' Horizontal Kerning in Arabic lookup 2 per glyph data 2" uni0624 dx=-150 dy=0 dh=-150 dv=0 dx=0 dy=0 dh=0 dv=0
PairPos2: "'kern' Horizontal Kerning in Arabic lookup 2 per glyph data 2" uni0623 dx=-250 dy=0 dh=-250 dv=0 dx=0 dy=0 dh=0 dv=0
PairPos2: "'kern' Horizontal Kerning in Arabic lookup 2 per glyph data 2" uni0622 dx=-250 dy=0 dh=-250 dv=0 dx=0 dy=0 dh=0 dv=0
PairPos2: "'kern' Horizontal Kerning in Arabic lookup 2 per glyph data 2" uniFB58 dx=-100 dy=0 dh=-100 dv=0 dx=0 dy=0 dh=0 dv=0
PairPos2: "'kern' Horizontal Kerning in Arabic lookup 2 per glyph data 2" uniFEF3 dx=-100 dy=0 dh=-100 dv=0 dx=0 dy=0 dh=0 dv=0
PairPos2: "'kern' Horizontal Kerning in Arabic lookup 2 per glyph data 2" uniFBFE dx=-100 dy=0 dh=-100 dv=0 dx=0 dy=0 dh=0 dv=0
PairPos2: "'kern' Horizontal Kerning in Arabic lookup 2 per glyph data 1" uni063A dx=-200 dy=0 dh=-200 dv=0 dx=0 dy=0 dh=0 dv=0
PairPos2: "'kern' Horizontal Kerning in Arabic lookup 2 per glyph data 1" uni0639 dx=-200 dy=0 dh=-200 dv=0 dx=0 dy=0 dh=0 dv=0
Substitution2: "'fina' Terminal Forms in Arabic lookup 2 subtable" uniFEAE
Colour: ffff
EndChar

StartChar: uni0633
Encoding: 1587 1587 76
Width: 2448
VWidth: 1854
Flags: HMW
AnchorPoint: "Anchor-3" 721 -502 basechar 0
AnchorPoint: "Anchor-5" 1820 574 basechar 0
LayerCount: 2
Fore
SplineSet
1277 639 m 1
 1375 383 l 2
 1434 226 1500 200 1543 200 c 0
 1572 200 1637 226 1661 368 c 2
 1701 619 l 1
 1947 579 l 1
 1917 389 l 2
 1915 375 1915 358 1915 337 c 0
 1915 218 1968 200 2033 200 c 0
 2113 200 2145 235 2145 387 c 0
 2145 481 2118 599 2087 692 c 1
 2327 767 l 1
 2366 654 2395 516 2395 387 c 0
 2395 197 2312 -50 2033 -50 c 0
 1943 -50 1849 -17 1777 51 c 1
 1714 -13 1633 -50 1543 -50 c 0
 1503 -50 1464 -42 1430 -30 c 1
 1371 -391 1029 -551 719 -551 c 0
 395 -551 53 -373 53 11 c 0
 53 211 165 435 363 670 c 1
 553 510 l 1
 379 303 303 123 303 11 c 0
 303 -183 464 -301 719 -301 c 0
 987 -301 1188 -170 1188 74 c 0
 1188 135 1174 205 1141 293 c 2
 1043 549 l 1
 1277 639 l 1
EndSplineSet
Substitution2: "'init' Initial Forms in Arabic lookup 4 subtable" uniFEB3
Substitution2: "'medi' Medial Forms in Arabic lookup 3 subtable" uniFEB4
Substitution2: "'fina' Terminal Forms in Arabic lookup 2 subtable" uniFEB2
Colour: ffff
EndChar

StartChar: uni0635
Encoding: 1589 1589 77
Width: 2392
VWidth: 1854
Flags: HMW
AnchorPoint: "Anchor-5" 1933 695 basechar 0
AnchorPoint: "Anchor-3" 719 -502 basechar 0
LayerCount: 2
Fore
SplineSet
1372 391 m 1
 1536 635 1742 749 1934 749 c 0
 2147 749 2338 603 2338 367 c 0
 2338 48 1991 -50 1741 -50 c 0
 1638 -50 1529 -33 1434 -4 c 1
 1390 -382 1036 -551 720 -551 c 0
 396 -551 54 -373 54 11 c 0
 54 209 166 435 364 670 c 1
 554 510 l 1
 380 303 304 125 304 11 c 0
 304 -183 466 -301 720 -301 c 0
 988 -301 1189 -169 1189 74 c 0
 1189 134 1176 206 1143 293 c 2
 1044 549 l 1
 1276 639 l 1
 1372 391 l 1
1560 219 m 1
 1620 206 1680 200 1741 200 c 0
 1981 200 2088 282 2088 367 c 0
 2088 438 2030 499 1934 499 c 0
 1829 499 1693 439 1560 219 c 1
EndSplineSet
Substitution2: "'init' Initial Forms in Arabic lookup 4 subtable" uniFEBB
Substitution2: "'medi' Medial Forms in Arabic lookup 3 subtable" uniFEBC
Substitution2: "'fina' Terminal Forms in Arabic lookup 2 subtable" uniFEBA
Colour: ffff
EndChar

StartChar: uni0637
Encoding: 1591 1591 78
Width: 1515
VWidth: 1854
Flags: HMW
AnchorPoint: "Anchor-5" 1088 764 basechar 0
AnchorPoint: "Anchor-3" 768 0 basechar 0
LayerCount: 2
Back
SplineSet
632 202 m 1
 1151 202 1190 328 1190 415 c 0
 1190 488 1131 540 1050 540 c 0
 954 540 758 456 632 202 c 1
353 200 m 1
 353 1436 l 1
 603 1436 l 1
 603 583 l 1
 751 724 922 790 1060 790 c 0
 1245 790 1440 665 1440 434 c 0
 1440 111 1169 -50 478 -50 c 2
 80 -50 l 1
 80 200 l 1
 353 200 l 1
EndSplineSet
Fore
SplineSet
632 202 m 1
 1151 202 1190 328 1190 415 c 0
 1190 488 1131 540 1050 540 c 0
 954 540 758 456 632 202 c 1
353 200 m 1
 353 1259 l 1
 603 1259 l 1
 603 543 l 1
 751 704 922 790 1060 790 c 0
 1245 790 1440 665 1440 434 c 0
 1440 111 1169 -50 478 -50 c 2
 80 -50 l 1
 80 200 l 1
 353 200 l 1
EndSplineSet
Substitution2: "'init' Initial Forms in Arabic lookup 4 subtable" uniFEC3
Substitution2: "'medi' Medial Forms in Arabic lookup 3 subtable" uniFEC4
Substitution2: "'fina' Terminal Forms in Arabic lookup 2 subtable" uniFEC2
Colour: ffff
EndChar

StartChar: uni0639
Encoding: 1593 1593 79
Width: 1299
VWidth: 1854
Flags: HMW
AnchorPoint: "Anchor-3" 772 -734 basechar 0
AnchorPoint: "Anchor-5" 596 1079 basechar 0
LayerCount: 2
Fore
SplineSet
1015 912 m 1
 825 751 l 1
 772.807379104 814.609756717 718.165548626 881 596 881 c 0
 493 881 379 797 379 629 c 0
 379 557 470 487 696 487 c 0
 801.778495117 487 913.529999095 505.239148782 1012 523 c 1
 1064 269 l 1
 648.063802169 215.082344726 306 103.963630584 306 -217 c 0
 306 -401 486 -534 772 -534 c 0
 921.750764426 -534 1044.72710861 -494.5969093 1145 -451 c 1
 1245 -681 l 1
 1111.82514762 -738.902109729 953.44461657 -784 772 -784 c 0
 432 -784 56 -607 56 -217 c 0
 56 18 176 193 341 307 c 1
 227 364 129 469 129 629 c 0
 129 927 350 1131 596 1131 c 0
 806.629753518 1131 925.701945674 1018.04143951 1015 912 c 1
EndSplineSet
Substitution2: "'init' Initial Forms in Arabic lookup 4 subtable" uniFECB
Substitution2: "'medi' Medial Forms in Arabic lookup 3 subtable" uniFECC
Substitution2: "'fina' Terminal Forms in Arabic lookup 2 subtable" uniFECA
Colour: ffff
EndChar

StartChar: uni0640
Encoding: 1600 1600 80
Width: 811
VWidth: 1854
Flags: HMW
AnchorPoint: "Anchor-5" 406 904 basechar 0
AnchorPoint: "Anchor-3" 406 0 basechar 0
LayerCount: 2
Fore
SplineSet
0 200 m 2
 811 200 l 1
 811 -50 l 1
 0 -50 l 2
 -69 -50 -125 6 -125 75 c 0
 -125 144 -69 200 0 200 c 2
EndSplineSet
Colour: ffff
EndChar

StartChar: uni0644
Encoding: 1604 1604 81
Width: 1378
VWidth: 1854
Flags: HMW
AnchorPoint: "Anchor-5" 631 712 basechar 0
AnchorPoint: "Anchor-3" 663 -502 basechar 0
LayerCount: 2
Fore
SplineSet
1042 1259 m 1
 1292 1259 l 1
 1292 126 l 2
 1292 -330 973 -553 663 -553 c 0
 374 -553 53 -359 53 -5 c 0
 53 160 119 351 224 544 c 1
 442 422 l 1
 354 261 303 102 303 -5 c 0
 303 -179 464 -303 663 -303 c 0
 853 -303 1042 -193 1042 126 c 2
 1042 1259 l 1
EndSplineSet
Substitution2: "'init' Initial Forms in Arabic lookup 4 subtable" uniFEDF
Substitution2: "'medi' Medial Forms in Arabic lookup 3 subtable" uniFEE0
Substitution2: "'fina' Terminal Forms in Arabic lookup 2 subtable" uniFEDE
Colour: ffff
EndChar

StartChar: uni0645
Encoding: 1605 1605 82
Width: 1199
VWidth: 2374
Flags: HMW
AnchorPoint: "Anchor-5" 750 696 basechar 0
AnchorPoint: "Anchor-3" 668 -50 basechar 0
LayerCount: 2
Fore
SplineSet
329 277 m 1
 359 462 462 746 760 746 c 0
 1015 746 1144 509 1144 302 c 0
 1144 53 963 -49 793 -49 c 0
 682 -49 577 -20 495 13 c 0
 448 32 438 35 401 35 c 0
 347 35 303 4 303 -99 c 2
 303 -808 l 1
 53 -808 l 1
 53 -99 l 2
 53 78 155 240 329 277 c 1
577 249 m 1
 655 224 728 201 793 201 c 2
 797 201 l 2
 877 201 894 202 894 302 c 0
 894 429 825 496 760 496 c 0
 671 496 603 398 577 249 c 1
EndSplineSet
Substitution2: "'init' Initial Forms in Arabic lookup 4 subtable" uniFEE3
Substitution2: "'medi' Medial Forms in Arabic lookup 3 subtable" uniFEE4
Substitution2: "'fina' Terminal Forms in Arabic lookup 2 subtable" uniFEE2
Colour: ffff
EndChar

StartChar: uni0647
Encoding: 1607 1607 83
Width: 869
VWidth: 1854
Flags: HMW
AnchorPoint: "Anchor-5" 435 872 basechar 0
AnchorPoint: "Anchor-3" 435 75 basechar 0
LayerCount: 2
Fore
SplineSet
435 200 m 0
 528 200 553 233 553 306 c 0
 553 378 510 473 435 562 c 1
 360 473 316 376 316 306 c 0
 316 234 341 200 435 200 c 0
435 -50 m 0
 221 -50 66 100 66 306 c 0
 66 517 206 701 353 833 c 0
 380 857 408 882 435 905 c 1
 462 882 490 857 517 833 c 0
 664 701 803 517 803 306 c 0
 803 101 650 -50 435 -50 c 0
EndSplineSet
Substitution2: "'init' Initial Forms in Arabic lookup 4 subtable" uniFEEB
Substitution2: "'medi' Medial Forms in Arabic lookup 3 subtable" uniFEEC
Substitution2: "'fina' Terminal Forms in Arabic lookup 2 subtable" uniFEEA
Colour: ffff
EndChar

StartChar: uni0648
Encoding: 1608 1608 84
Width: 888
VWidth: 1854
Flags: HMW
AnchorPoint: "Anchor-5" 440 725 basechar 0
AnchorPoint: "Anchor-3" 444 -502 basechar 0
LayerCount: 2
Fore
SplineSet
589 215 m 1
 567 416 494 525 434 525 c 0
 378 525 307 441 307 312 c 0
 307 226 342 199 458 199 c 0
 507 199 548 205 589 215 c 1
564 -44 m 1
 530 -49 495 -51 458 -51 c 0
 266 -51 57 46 57 303 c 0
 57 514 195 775 440 775 c 0
 822 775 845 256 845 98 c 0
 845 -267 554 -462 130 -568 c 1
 68 -326 l 1
 352 -255 507 -154 564 -44 c 1
EndSplineSet
PairPos2: "'kern' Horizontal Kerning in Arabic lookup 2 per glyph data 3" uniFEDB dx=-200 dy=0 dh=-200 dv=0 dx=0 dy=0 dh=0 dv=0
PairPos2: "'kern' Horizontal Kerning in Arabic lookup 2 per glyph data 3" uniFB94 dx=-200 dy=0 dh=-200 dv=0 dx=0 dy=0 dh=0 dv=0
PairPos2: "'kern' Horizontal Kerning in Arabic lookup 2 per glyph data 3" uniFB90 dx=-200 dy=0 dh=-200 dv=0 dx=0 dy=0 dh=0 dv=0
PairPos2: "'kern' Horizontal Kerning in Arabic lookup 2 per glyph data 3" uni06AF dx=-200 dy=0 dh=-200 dv=0 dx=0 dy=0 dh=0 dv=0
PairPos2: "'kern' Horizontal Kerning in Arabic lookup 2 per glyph data 3" uni06A9 dx=-200 dy=0 dh=-200 dv=0 dx=0 dy=0 dh=0 dv=0
PairPos2: "'kern' Horizontal Kerning in Arabic lookup 2 per glyph data 1" uni063A dx=-100 dy=0 dh=-100 dv=0 dx=0 dy=0 dh=0 dv=0
PairPos2: "'kern' Horizontal Kerning in Arabic lookup 2 per glyph data 1" uni0639 dx=-100 dy=0 dh=-100 dv=0 dx=0 dy=0 dh=0 dv=0
Substitution2: "'fina' Terminal Forms in Arabic lookup 2 subtable" uniFEEE
Colour: ffff
EndChar

StartChar: uni065A
Encoding: 1626 1626 86
Width: 0
VWidth: 1854
Flags: HMW
AnchorPoint: "Anchor-1" 0 1598 basemark 0
AnchorPoint: "Anchor-1" 1 1209 mark 0
AnchorPoint: "Anchor-4" 1 1209 mark 0
AnchorPoint: "Anchor-5" 1 1209 mark 0
LayerCount: 2
Fore
SplineSet
-253 1811 m 1
 -165 1877 l 1
 0 1656 l 1
 165 1877 l 1
 253 1811 l 1
 0 1474 l 1
 -253 1811 l 1
EndSplineSet
Colour: ff00
EndChar

StartChar: uni066C
Encoding: 1644 1644 88
Width: 587
VWidth: 1854
Flags: HMW
LayerCount: 2
Fore
SplineSet
179 760 m 1
 121 829 l 1
 193 887 271 994 301 1065 c 1
 228 1065 120 1128 120 1237 c 0
 120 1329 189 1411 283 1411 c 0
 379 1411 467 1350 467 1202 c 0
 467 1046 293 851 179 760 c 1
EndSplineSet
EndChar

StartChar: uni066D
Encoding: 1645 1645 89
Width: 910
VWidth: 1854
Flags: HMW
LayerCount: 2
Fore
SplineSet
545 619 m 1
 365 619 l 1
 365 883 l 1
 138 752 l 1
 46 907 l 1
 275 1039 l 1
 46 1172 l 1
 138 1327 l 1
 365 1196 l 1
 365 1459 l 1
 545 1459 l 1
 545 1196 l 1
 772 1327 l 1
 864 1172 l 1
 635 1039 l 1
 864 907 l 1
 772 752 l 1
 545 883 l 1
 545 619 l 1
EndSplineSet
Colour: ff00ff
EndChar

StartChar: uni066E
Encoding: 1646 1646 90
Width: 1782
VWidth: 1854
Flags: HMW
AnchorPoint: "Anchor-5" 892 528 basechar 0
AnchorPoint: "Anchor-3" 892 0 basechar 0
LayerCount: 2
Back
SplineSet
1545 679 m 0
 1572.62207031 595.350585938 1603 499.030273438 1603 400 c 0
 1603 123 1299 75 891 75 c 0
 483 75 179 123 179 400 c 0
 179 499.030654358 209.377920874 595.350916719 237 679 c 1024
EndSplineSet
Fore
SplineSet
1663 736 m 1
 1690 640 1730 509 1730 400 c 0
 1730 -17 1268 -50 892 -50 c 0
 517 -50 53 -18 53 400 c 0
 53 513 91 638 121 736 c 1
 364 671 l 1
 346 610 328 548 313 487 c 0
 306 458 303 430 303 400 c 0
 303 264 451 200 892 200 c 0
 1333 200 1480 263 1480 400 c 0
 1480 433 1478 459 1471 487 c 0
 1455 548 1438 610 1420 671 c 1
 1663 736 l 1
EndSplineSet
Substitution2: "'init' Initial Forms in Arabic lookup 4 subtable" uniFBE8
Substitution2: "'medi' Medial Forms in Arabic lookup 3 subtable" uniFBE9
Substitution2: "'fina' Terminal Forms in Arabic lookup 2 subtable" dotlessfinalBEH
Colour: ffff
EndChar

StartChar: uni066F
Encoding: 1647 1647 91
Width: 1505
VWidth: 1854
Flags: HMW
AnchorPoint: "Anchor-5" 1047 726 basechar 0
AnchorPoint: "Anchor-3" 728 -504 basechar 0
LayerCount: 2
Fore
SplineSet
1047 526 m 0
 969 526 914 433 914 304 c 0
 914 235 950 200 1065 200 c 0
 1114.33497732 200 1156 206 1197 215 c 1
 1172.88419069 399.887871391 1130.85975846 526 1047 526 c 0
303 -3 m 0
 303 -180 471 -304 728 -304 c 0
 965.996971776 -304 1115 -204 1183 -44 c 1
 1146 -48 1104.78872051 -50 1065 -50 c 0
 874 -50 664 48 664 304 c 0
 664 515 803 776 1047 776 c 0
 1429 776 1452 258 1452 99 c 0
 1452 -341 1086 -554 728 -554 c 0
 411 -554 53 -380 53 -3 c 0
 53 195 148 406 260 600 c 1
 470 470 l 1
 374 306 303 125 303 -3 c 0
EndSplineSet
Substitution2: "'init' Initial Forms in Arabic lookup 4 subtable" dotlessinitialFEH
Substitution2: "'medi' Medial Forms in Arabic lookup 3 subtable" dotlessmedialFEH
Substitution2: "'fina' Terminal Forms in Arabic lookup 2 subtable" dotlessfinalQAF
Colour: ffff
EndChar

StartChar: uni0670
Encoding: 1648 1648 92
Width: 0
VWidth: 1854
Flags: HMW
AnchorPoint: "Anchor-1" 0 1598 basemark 0
AnchorPoint: "Anchor-1" 1 1209 mark 0
AnchorPoint: "Anchor-4" 1 1209 mark 0
AnchorPoint: "Anchor-5" 1 1209 mark 0
LayerCount: 2
Fore
SplineSet
-55 1839 m 1
 55 1839 l 1
 55 1500 l 1
 -55 1500 l 1
 -55 1839 l 1
EndSplineSet
Colour: ff00
EndChar

StartChar: uni06A1
Encoding: 1697 1697 93
Width: 1752
VWidth: 1854
Flags: HMW
AnchorPoint: "Anchor-3" 892 0 basechar 0
AnchorPoint: "Anchor-5" 1313 1111 basechar 0
LayerCount: 2
Fore
SplineSet
1699 446 m 0
 1699 23 1281 -50 891 -50 c 0
 515 -50 54 -17 54 400 c 0
 54 535 92 648 126 741 c 1
 364 664 l 1
 335 579 304 480 304 400 c 0
 304 263 450 200 891 200 c 0
 1149 200 1311 240 1387 300 c 1
 1361 298 1338 297 1312 297 c 0
 1120 297 911 394 911 651 c 0
 911 862 1049 1123 1294 1123 c 0
 1676 1123 1699 604 1699 446 c 0
1443 563 m 1
 1421 764 1348 873 1288 873 c 0
 1232 873 1161 789 1161 660 c 0
 1161 574 1196 547 1312 547 c 0
 1361 547 1402 553 1443 563 c 1
EndSplineSet
Substitution2: "'init' Initial Forms in Arabic lookup 4 subtable" dotlessinitialFEH
Substitution2: "'medi' Medial Forms in Arabic lookup 3 subtable" dotlessmedialFEH
Substitution2: "'fina' Terminal Forms in Arabic lookup 2 subtable" dotlessfinalFEH
Colour: ffff
EndChar

StartChar: uni06A9
Encoding: 1705 1705 94
Width: 1848
VWidth: 1854
Flags: HMW
AnchorPoint: "Anchor-5" 1304 1258 basechar 0
AnchorPoint: "Anchor-3" 868 0 basechar 0
LayerCount: 2
Fore
SplineSet
126 741 m 1
 364 664 l 1
 335 579 304 480 304 400 c 0
 304 263 450 200 891 200 c 0
 1188 200 1268 242 1268 298 c 0
 1268 405 1024 699 819 844 c 1
 819 1062 l 1
 1088 1232 1381 1345 1697 1424 c 1
 1747 1179 l 1
 1522 1132 1300 1053 1101 941 c 1
 1298 774 1518 532 1518 298 c 0
 1518 -44 1130 -50 913 -50 c 2
 891 -50 l 2
 515 -50 54 -17 54 400 c 0
 54 535 93 649 126 741 c 1
EndSplineSet
Substitution2: "'init' Initial Forms in Arabic lookup 4 subtable" uniFB90
Substitution2: "'medi' Medial Forms in Arabic lookup 3 subtable" uniFB91
Substitution2: "'fina' Terminal Forms in Arabic lookup 2 subtable" uniFB8F
Colour: ffff
EndChar

StartChar: uni06BA
Encoding: 1722 1722 95
Width: 1542
VWidth: 1854
Flags: HMW
AnchorPoint: "Anchor-3" 734 -502 basechar 0
AnchorPoint: "Anchor-5" 792 539 basechar 0
LayerCount: 2
Fore
SplineSet
303 1 m 0
 303 -182 464 -303 729 -303 c 0
 1016 -303 1239 -159 1239 86 c 0
 1239 222 1160 416 1094 556 c 1
 1324 656 l 1
 1394 508 1489 303 1489 86 c 0
 1489 -354 1084 -553 729 -553 c 0
 402 -553 53 -378 53 1 c 0
 53 199 148 430 260 624 c 1
 470 494 l 1
 374 330 303 129 303 1 c 0
EndSplineSet
Substitution2: "'init' Initial Forms in Arabic lookup 4 subtable" uniFBE8
Substitution2: "'medi' Medial Forms in Arabic lookup 3 subtable" uniFBE9
Substitution2: "'fina' Terminal Forms in Arabic lookup 2 subtable" uniFB9F
Colour: ffff
EndChar

StartChar: uni06CC
Encoding: 1740 1740 96
Width: 1449
VWidth: 1854
Flags: HMW
AnchorPoint: "Anchor-3" 775 -502 basechar 0
AnchorPoint: "Anchor-5" 463 696 basechar 0
LayerCount: 2
Fore
SplineSet
1366 804 m 1
 1274 572 l 1
 1212 596 1125 611 1035 611 c 0
 876 611 799 520 799 384 c 0
 799 299 814 286 814 286 c 1
 819 281 859 260 981 254 c 0
 1102 248 1216 232 1301 147 c 0
 1364 84 1387 -2 1387 -88 c 0
 1387 -399 1090 -553 754 -553 c 0
 343 -553 53 -356 53 -5 c 0
 53 135 79 289 128 442 c 2
 139 476 l 1
 377 402 l 1
 366 366 l 2
 323 233 303 105 303 -5 c 0
 303 -178 409 -303 754 -303 c 0
 1044 -303 1137 -193 1137 -88 c 0
 1137 -42 1128 -32 1125 -29 c 0
 1118 -22 1080 -2 969 4 c 0
 841 10 729 23 644 102 c 0
 562 178 549 285 549 384 c 0
 549 648 744 861 1035 861 c 0
 1151 861 1266 844 1366 804 c 1
EndSplineSet
Substitution2: "'init' Initial Forms in Arabic lookup 4 subtable" uniFEF3
Substitution2: "'medi' Medial Forms in Arabic lookup 3 subtable" uniFEF4
Substitution2: "'fina' Terminal Forms in Arabic lookup 2 subtable" uniFBFD
Colour: ffff
EndChar

StartChar: uniFBE8
Encoding: 64488 64488 100
Width: 547
VWidth: 1854
Flags: HMW
AnchorPoint: "Anchor-5" 303 791 basechar 0
AnchorPoint: "Anchor-3" 274 0 basechar 0
LayerCount: 2
Fore
SplineSet
0 200 m 0
 114 200 187 236 199 251 c 0
 224 280 244 347 244 443 c 0
 244 525 212 669 176 776 c 1
 414 853 l 1
 459 724 494 570 494 443 c 0
 494 324 477 194 391 91 c 0
 298 -19 145 -50 0 -50 c 0
 -69 -50 -125 6 -125 75 c 0
 -125 144 -69 200 0 200 c 0
EndSplineSet
Colour: ffff
EndChar

StartChar: uniFBE9
Encoding: 64489 64489 101
Width: 767
VWidth: 1854
Flags: HMW
AnchorPoint: "Anchor-5" 384 594 basechar 0
AnchorPoint: "Anchor-3" 184 0 basechar 0
LayerCount: 2
Fore
SplineSet
0 200 m 0
 117 200 168 226 196 254 c 0
 230 288 259 367 259 517 c 0
 259 551 259 585 259 619 c 1
 509 619 l 1
 509 585 509 551 509 517 c 0
 509 372 535 293 568 257 c 0
 596 227 645 200 767 200 c 1
 767 -50 l 1
 604 -50 478 -6 384 90 c 1
 291 -8 160 -50 0 -50 c 0
 -69 -50 -125 6 -125 75 c 0
 -125 144 -69 200 0 200 c 0
EndSplineSet
Colour: ffff
EndChar

StartChar: uniFBFD
Encoding: 64509 64509 102
Width: 1473
VWidth: 1854
Flags: HMW
AnchorPoint: "Anchor-5" 883 149 basechar 0
AnchorPoint: "Anchor-3" 739 -573 basechar 0
LayerCount: 2
Fore
SplineSet
1473 -50 m 1
 1390 -50 l 1
 1408 -91 1416 -130 1416 -172 c 0
 1416 -483 1101 -623 739 -623 c 0
 375 -623 53 -447 53 -52 c 0
 53 126 118 332 265 570 c 1
 477 440 l 1
 347 230 303 64 303 -52 c 0
 303 -235 428 -373 739 -373 c 0
 1093 -373 1166 -250 1166 -188 c 0
 1166 -131 1122 -51 812 -51 c 2
 687 -51 l 1
 687 200 l 1
 1473 200 l 1
 1473 -50 l 1
EndSplineSet
Colour: ffff
EndChar

StartChar: uniFE8E
Encoding: 65166 65166 109
Width: 596
VWidth: 1854
Flags: HMW
AnchorPoint: "Anchor-3" 346 0 basechar 0
AnchorPoint: "Anchor-5" 250 1211 basechar 0
LayerCount: 2
Fore
SplineSet
375 1261 m 1
 375 391 l 0
 375 308.032064694 386.607392315 265.25903747 404.437519219 243.977918262 c 0
 425.487883313 218.495898569 474.783693001 200 596 200 c 1
 596 -50 l 1
 436.24776074 -50 306.705291465 -8.95146241761 222.486995776 85.9423918791 c 0
 156.120065087 161.790312667 125 265.090848243 125 391 c 0
 125 1261 l 1
 375 1261 l 1
EndSplineSet
PairPos2: "'kern' Horizontal Kerning in Arabic lookup 2 per glyph data 1" uni063A dx=-225 dy=0 dh=-225 dv=0 dx=0 dy=0 dh=0 dv=0
PairPos2: "'kern' Horizontal Kerning in Arabic lookup 2 per glyph data 1" uni0639 dx=-225 dy=0 dh=-225 dv=0 dx=0 dy=0 dh=0 dv=0
Colour: ffff
EndChar

StartChar: uniFEA2
Encoding: 65186 65186 110
Width: 1398
VWidth: 1854
Flags: HMW
AnchorPoint: "Anchor-3" 805 -736 basechar 0
AnchorPoint: "Anchor-5" 507 853 basechar 0
LayerCount: 2
Fore
SplineSet
1289 -438 m 1
 1376 -671 l 1
 1207 -736 1027 -786 805 -786 c 0
 475 -786 51 -642 51 -226 c 0
 51 206 478 402 892 532 c 1
 589 639 l 2
 555 650 528 653 507 653 c 0
 404 653 370 569 347 385 c 1
 99 412 l 1
 124 663 225 903 507 903 c 0
 558 903 612 896 670 875 c 2
 1306 646 l 1
 1301 390 l 1
 1240 375 1180 359 1123 343 c 1
 1191 253 1253 200 1398 200 c 1
 1398 -50 l 1
 1135 -50 975 99 871 265 c 1
 517 139 301 -16 301 -226 c 0
 301 -416 502 -536 805 -536 c 0
 997 -536 1138 -493 1289 -438 c 1
EndSplineSet
Colour: ffff
EndChar

StartChar: uniFEA3
Encoding: 65187 65187 111
Width: 1366
VWidth: 1854
Flags: HMW
AnchorPoint: "Anchor-5" 480 852 basechar 0
AnchorPoint: "Anchor-3" 708 0 basechar 0
LayerCount: 2
Fore
SplineSet
51 451 m 1
 81 632 165 902 436 902 c 0
 506 902 577 883 653 848 c 2
 1282 544 l 1
 1282 314 l 1
 1130 283 1021 247 905 178 c 0
 715 64 448 -50 0 -50 c 0
 -69 -50 -125 6 -125 75 c 0
 -125 144 -69 200 0 200 c 0
 408 200 595 282 775 391 c 0
 812 413 852 436 892 455 c 1
 543 623 l 2
 494 648 460 652 436 652 c 0
 385 652 329 597 299 411 c 1
 51 451 l 1
EndSplineSet
Colour: ffff
EndChar

StartChar: uniFEA4
Encoding: 65188 65188 112
Width: 1366
VWidth: 1854
Flags: HMW
AnchorPoint: "Anchor-5" 480 852 basechar 0
AnchorPoint: "Anchor-3" 708 0 basechar 0
LayerCount: 2
Fore
SplineSet
1146 282 m 1
 1198 231 1245 200 1366 200 c 1
 1366 -50 l 1
 1143 -50 1001 54 902 175 c 1
 701 54 447 -50 0 -50 c 0
 -69 -50 -125 6 -125 75 c 0
 -125 144 -69 200 0 200 c 0
 408 200 594 281 775 391 c 0
 812 413 852 435 892 454 c 1
 543 623 l 2
 494 648 460 652 436 652 c 0
 385 652 329 597 299 411 c 1
 51 451 l 1
 81 632 165 902 436 902 c 0
 506 902 577 883 653 848 c 2
 1282 544 l 1
 1282 314 l 1
 1237 304 1188 293 1146 282 c 1
EndSplineSet
Colour: ffff
EndChar

StartChar: uniFEAA
Encoding: 65194 65194 113
Width: 1180
VWidth: 1854
Flags: HMW
AnchorPoint: "Anchor-3" 421 0 basechar 0
AnchorPoint: "Anchor-5" 570 857 basechar 0
LayerCount: 2
Fore
SplineSet
1180 -50 m 1
 1034 -50 903 -17 799 95 c 1
 706 -10 563 -50 429 -50 c 0
 281 -50 129 4 6 103 c 1
 159 300 l 1
 233 241 331 200 429 200 c 0
 577 200 640 266 640 336 c 0
 640 357 635 384 618 424 c 0
 557 567 496 710 435 853 c 1
 665 953 l 1
 738 782 811 611 884 440 c 0
 986 201 1016 200 1180 200 c 1
 1180 -50 l 1
EndSplineSet
PairPos2: "'kern' Horizontal Kerning in Arabic lookup 2 per glyph data 3" uniFEDB dx=-300 dy=0 dh=-300 dv=0 dx=0 dy=0 dh=0 dv=0
PairPos2: "'kern' Horizontal Kerning in Arabic lookup 2 per glyph data 3" uniFB94 dx=-300 dy=0 dh=-300 dv=0 dx=0 dy=0 dh=0 dv=0
PairPos2: "'kern' Horizontal Kerning in Arabic lookup 2 per glyph data 3" uniFB90 dx=-300 dy=0 dh=-300 dv=0 dx=0 dy=0 dh=0 dv=0
PairPos2: "'kern' Horizontal Kerning in Arabic lookup 2 per glyph data 3" uni06AF dx=-300 dy=0 dh=-300 dv=0 dx=0 dy=0 dh=0 dv=0
PairPos2: "'kern' Horizontal Kerning in Arabic lookup 2 per glyph data 3" uni06A9 dx=-300 dy=0 dh=-300 dv=0 dx=0 dy=0 dh=0 dv=0
PairPos2: "'kern' Horizontal Kerning in Arabic lookup 2 per glyph data 1" uni063A dx=-250 dy=0 dh=-250 dv=0 dx=0 dy=0 dh=0 dv=0
PairPos2: "'kern' Horizontal Kerning in Arabic lookup 2 per glyph data 1" uni0639 dx=-250 dy=0 dh=-250 dv=0 dx=0 dy=0 dh=0 dv=0
Colour: ffff
EndChar

StartChar: uniFEAE
Encoding: 65198 65198 114
Width: 960
VWidth: 1854
Flags: HMW
AnchorPoint: "Anchor-5" 556 571 basechar 0
AnchorPoint: "Anchor-3" 488 -402 basechar 0
LayerCount: 2
Fore
SplineSet
430 548 m 1
 663 640 l 1
 707 529 747 412 765 305 c 1
 797 224 817 200 960 200 c 1
 960 -50 l 1
 887 -50 821 -39 766 -19 c 1
 713 -280 474 -458 169 -572 c 1
 84 -337 l 1
 373 -236 531 -87 531 131 c 0
 531 243 493 403 430 548 c 1
EndSplineSet
PairPos2: "'kern' Horizontal Kerning in Arabic lookup 2 per glyph data 7" uniE017 dx=-325 dy=0 dh=-325 dv=0 dx=0 dy=0 dh=0 dv=0
PairPos2: "'kern' Horizontal Kerning in Arabic lookup 2 per glyph data 7" uniE015 dx=-250 dy=0 dh=-250 dv=0 dx=0 dy=0 dh=0 dv=0
PairPos2: "'kern' Horizontal Kerning in Arabic lookup 2 per glyph data 7" uniE012 dx=-150 dy=0 dh=-150 dv=0 dx=0 dy=0 dh=0 dv=0
PairPos2: "'kern' Horizontal Kerning in Arabic lookup 2 per glyph data 7" uni06D5 dx=-250 dy=0 dh=-250 dv=0 dx=0 dy=0 dh=0 dv=0
PairPos2: "'kern' Horizontal Kerning in Arabic lookup 2 per glyph data 7" uni06CE dx=-100 dy=0 dh=-100 dv=0 dx=0 dy=0 dh=0 dv=0
PairPos2: "'kern' Horizontal Kerning in Arabic lookup 2 per glyph data 7" uni06C6 dx=-150 dy=0 dh=-150 dv=0 dx=0 dy=0 dh=0 dv=0
PairPos2: "'kern' Horizontal Kerning in Arabic lookup 2 per glyph data 7" uni06BE dx=-250 dy=0 dh=-250 dv=0 dx=0 dy=0 dh=0 dv=0
PairPos2: "'kern' Horizontal Kerning in Arabic lookup 2 per glyph data 7" uni06BA dx=-150 dy=0 dh=-150 dv=0 dx=0 dy=0 dh=0 dv=0
PairPos2: "'kern' Horizontal Kerning in Arabic lookup 2 per glyph data 7" uni06B5 dx=-112 dy=0 dh=-112 dv=0 dx=0 dy=0 dh=0 dv=0
PairPos2: "'kern' Horizontal Kerning in Arabic lookup 2 per glyph data 7" uniFB6C dx=-250 dy=0 dh=-250 dv=0 dx=0 dy=0 dh=0 dv=0
PairPos2: "'kern' Horizontal Kerning in Arabic lookup 2 per glyph data 7" uni06A4 dx=-250 dy=0 dh=-250 dv=0 dx=0 dy=0 dh=0 dv=0
PairPos2: "'kern' Horizontal Kerning in Arabic lookup 2 per glyph data 7" uni0695 dx=-150 dy=0 dh=-150 dv=0 dx=0 dy=0 dh=0 dv=0
PairPos2: "'kern' Horizontal Kerning in Arabic lookup 2 per glyph data 7" uniFBE8 dx=-225 dy=0 dh=-225 dv=0 dx=0 dy=0 dh=0 dv=0
PairPos2: "'kern' Horizontal Kerning in Arabic lookup 2 per glyph data 4" parenleft dx=-300 dy=0 dh=-300 dv=0 dx=0 dy=0 dh=0 dv=0
PairPos2: "'kern' Horizontal Kerning in Arabic lookup 2 per glyph data 4" less dx=-420 dy=0 dh=-420 dv=0 dx=0 dy=0 dh=0 dv=0
PairPos2: "'kern' Horizontal Kerning in Arabic lookup 2 per glyph data 4" guillemotleft dx=-420 dy=0 dh=-420 dv=0 dx=0 dy=0 dh=0 dv=0
PairPos2: "'kern' Horizontal Kerning in Arabic lookup 2 per glyph data 4" bracketleft dx=-300 dy=0 dh=-300 dv=0 dx=0 dy=0 dh=0 dv=0
PairPos2: "'kern' Horizontal Kerning in Arabic lookup 2 per glyph data 3" uniFEDB dx=-300 dy=0 dh=-300 dv=0 dx=0 dy=0 dh=0 dv=0
PairPos2: "'kern' Horizontal Kerning in Arabic lookup 2 per glyph data 3" uniFB94 dx=-300 dy=0 dh=-300 dv=0 dx=0 dy=0 dh=0 dv=0
PairPos2: "'kern' Horizontal Kerning in Arabic lookup 2 per glyph data 3" uniFB90 dx=-300 dy=0 dh=-300 dv=0 dx=0 dy=0 dh=0 dv=0
PairPos2: "'kern' Horizontal Kerning in Arabic lookup 2 per glyph data 3" uni06AF dx=-300 dy=0 dh=-300 dv=0 dx=0 dy=0 dh=0 dv=0
PairPos2: "'kern' Horizontal Kerning in Arabic lookup 2 per glyph data 3" uni06A9 dx=-300 dy=0 dh=-300 dv=0 dx=0 dy=0 dh=0 dv=0
PairPos2: "'kern' Horizontal Kerning in Arabic lookup 2 per glyph data 2" uni0621 dx=-200 dy=0 dh=-200 dv=0 dx=0 dy=0 dh=0 dv=0
PairPos2: "'kern' Horizontal Kerning in Arabic lookup 2 per glyph data 2" uni064A dx=-100 dy=0 dh=-100 dv=0 dx=0 dy=0 dh=0 dv=0
PairPos2: "'kern' Horizontal Kerning in Arabic lookup 2 per glyph data 2" uni0649 dx=-100 dy=0 dh=-100 dv=0 dx=0 dy=0 dh=0 dv=0
PairPos2: "'kern' Horizontal Kerning in Arabic lookup 2 per glyph data 2" uni06CC dx=-100 dy=0 dh=-100 dv=0 dx=0 dy=0 dh=0 dv=0
PairPos2: "'kern' Horizontal Kerning in Arabic lookup 2 per glyph data 2" uniFEFB dx=-325 dy=0 dh=-325 dv=0 dx=0 dy=0 dh=0 dv=0
PairPos2: "'kern' Horizontal Kerning in Arabic lookup 2 per glyph data 2" uniFEF9 dx=-325 dy=0 dh=-325 dv=0 dx=0 dy=0 dh=0 dv=0
PairPos2: "'kern' Horizontal Kerning in Arabic lookup 2 per glyph data 2" uniFEF7 dx=-325 dy=0 dh=-325 dv=0 dx=0 dy=0 dh=0 dv=0
PairPos2: "'kern' Horizontal Kerning in Arabic lookup 2 per glyph data 2" uniFEF5 dx=-325 dy=0 dh=-325 dv=0 dx=0 dy=0 dh=0 dv=0
PairPos2: "'kern' Horizontal Kerning in Arabic lookup 2 per glyph data 2" uniFEEB dx=-250 dy=0 dh=-250 dv=0 dx=0 dy=0 dh=0 dv=0
PairPos2: "'kern' Horizontal Kerning in Arabic lookup 2 per glyph data 2" uniFEE7 dx=-225 dy=0 dh=-225 dv=0 dx=0 dy=0 dh=0 dv=0
PairPos2: "'kern' Horizontal Kerning in Arabic lookup 2 per glyph data 2" uniFEE3 dx=-250 dy=0 dh=-250 dv=0 dx=0 dy=0 dh=0 dv=0
PairPos2: "'kern' Horizontal Kerning in Arabic lookup 2 per glyph data 2" uniFEDF dx=-250 dy=0 dh=-250 dv=0 dx=0 dy=0 dh=0 dv=0
PairPos2: "'kern' Horizontal Kerning in Arabic lookup 2 per glyph data 2" uniFEDB dx=-400 dy=0 dh=-400 dv=0 dx=0 dy=0 dh=0 dv=0
PairPos2: "'kern' Horizontal Kerning in Arabic lookup 2 per glyph data 2" uniFED7 dx=-250 dy=0 dh=-250 dv=0 dx=0 dy=0 dh=0 dv=0
PairPos2: "'kern' Horizontal Kerning in Arabic lookup 2 per glyph data 2" uniFED3 dx=-250 dy=0 dh=-250 dv=0 dx=0 dy=0 dh=0 dv=0
PairPos2: "'kern' Horizontal Kerning in Arabic lookup 2 per glyph data 2" uniFECF dx=-300 dy=0 dh=-300 dv=0 dx=0 dy=0 dh=0 dv=0
PairPos2: "'kern' Horizontal Kerning in Arabic lookup 2 per glyph data 2" uniFECB dx=-300 dy=0 dh=-300 dv=0 dx=0 dy=0 dh=0 dv=0
PairPos2: "'kern' Horizontal Kerning in Arabic lookup 2 per glyph data 2" uniFEC7 dx=-300 dy=0 dh=-300 dv=0 dx=0 dy=0 dh=0 dv=0
PairPos2: "'kern' Horizontal Kerning in Arabic lookup 2 per glyph data 2" uniFEC3 dx=-300 dy=0 dh=-300 dv=0 dx=0 dy=0 dh=0 dv=0
PairPos2: "'kern' Horizontal Kerning in Arabic lookup 2 per glyph data 2" uniFEBF dx=-300 dy=0 dh=-300 dv=0 dx=0 dy=0 dh=0 dv=0
PairPos2: "'kern' Horizontal Kerning in Arabic lookup 2 per glyph data 2" uniFEBB dx=-300 dy=0 dh=-300 dv=0 dx=0 dy=0 dh=0 dv=0
PairPos2: "'kern' Horizontal Kerning in Arabic lookup 2 per glyph data 2" uniFEB7 dx=-200 dy=0 dh=-200 dv=0 dx=0 dy=0 dh=0 dv=0
PairPos2: "'kern' Horizontal Kerning in Arabic lookup 2 per glyph data 2" uniFEB3 dx=-200 dy=0 dh=-200 dv=0 dx=0 dy=0 dh=0 dv=0
PairPos2: "'kern' Horizontal Kerning in Arabic lookup 2 per glyph data 2" uniFEA7 dx=-250 dy=0 dh=-250 dv=0 dx=0 dy=0 dh=0 dv=0
PairPos2: "'kern' Horizontal Kerning in Arabic lookup 2 per glyph data 2" uniFEA3 dx=-250 dy=0 dh=-250 dv=0 dx=0 dy=0 dh=0 dv=0
PairPos2: "'kern' Horizontal Kerning in Arabic lookup 2 per glyph data 2" uniFE9F dx=-250 dy=0 dh=-250 dv=0 dx=0 dy=0 dh=0 dv=0
PairPos2: "'kern' Horizontal Kerning in Arabic lookup 2 per glyph data 2" uniFE9B dx=-225 dy=0 dh=-225 dv=0 dx=0 dy=0 dh=0 dv=0
PairPos2: "'kern' Horizontal Kerning in Arabic lookup 2 per glyph data 2" uniFE97 dx=-225 dy=0 dh=-225 dv=0 dx=0 dy=0 dh=0 dv=0
PairPos2: "'kern' Horizontal Kerning in Arabic lookup 2 per glyph data 2" uniFE91 dx=-225 dy=0 dh=-225 dv=0 dx=0 dy=0 dh=0 dv=0
PairPos2: "'kern' Horizontal Kerning in Arabic lookup 2 per glyph data 2" uniFE8B dx=-225 dy=0 dh=-225 dv=0 dx=0 dy=0 dh=0 dv=0
PairPos2: "'kern' Horizontal Kerning in Arabic lookup 2 per glyph data 2" uniFB94 dx=-400 dy=0 dh=-400 dv=0 dx=0 dy=0 dh=0 dv=0
PairPos2: "'kern' Horizontal Kerning in Arabic lookup 2 per glyph data 2" uniFB90 dx=-400 dy=0 dh=-400 dv=0 dx=0 dy=0 dh=0 dv=0
PairPos2: "'kern' Horizontal Kerning in Arabic lookup 2 per glyph data 2" uniFB7C dx=-250 dy=0 dh=-250 dv=0 dx=0 dy=0 dh=0 dv=0
PairPos2: "'kern' Horizontal Kerning in Arabic lookup 2 per glyph data 2" uni06CA dx=-150 dy=0 dh=-150 dv=0 dx=0 dy=0 dh=0 dv=0
PairPos2: "'kern' Horizontal Kerning in Arabic lookup 2 per glyph data 2" uni06C0 dx=-250 dy=0 dh=-250 dv=0 dx=0 dy=0 dh=0 dv=0
PairPos2: "'kern' Horizontal Kerning in Arabic lookup 2 per glyph data 2" uni06AF dx=-400 dy=0 dh=-400 dv=0 dx=0 dy=0 dh=0 dv=0
PairPos2: "'kern' Horizontal Kerning in Arabic lookup 2 per glyph data 2" uni06A9 dx=-400 dy=0 dh=-400 dv=0 dx=0 dy=0 dh=0 dv=0
PairPos2: "'kern' Horizontal Kerning in Arabic lookup 2 per glyph data 2" uni0698 dx=-150 dy=0 dh=-150 dv=0 dx=0 dy=0 dh=0 dv=0
PairPos2: "'kern' Horizontal Kerning in Arabic lookup 2 per glyph data 2" uni0686 dx=-125 dy=0 dh=-125 dv=0 dx=0 dy=0 dh=0 dv=0
PairPos2: "'kern' Horizontal Kerning in Arabic lookup 2 per glyph data 2" uni067E dx=-250 dy=0 dh=-250 dv=0 dx=0 dy=0 dh=0 dv=0
PairPos2: "'kern' Horizontal Kerning in Arabic lookup 2 per glyph data 2" uni0648 dx=-150 dy=0 dh=-150 dv=0 dx=0 dy=0 dh=0 dv=0
PairPos2: "'kern' Horizontal Kerning in Arabic lookup 2 per glyph data 2" uni0647 dx=-250 dy=0 dh=-250 dv=0 dx=0 dy=0 dh=0 dv=0
PairPos2: "'kern' Horizontal Kerning in Arabic lookup 2 per glyph data 2" uni0646 dx=-150 dy=0 dh=-150 dv=0 dx=0 dy=0 dh=0 dv=0
PairPos2: "'kern' Horizontal Kerning in Arabic lookup 2 per glyph data 2" uni0645 dx=-250 dy=0 dh=-250 dv=0 dx=0 dy=0 dh=0 dv=0
PairPos2: "'kern' Horizontal Kerning in Arabic lookup 2 per glyph data 2" uni0644 dx=-112 dy=0 dh=-112 dv=0 dx=0 dy=0 dh=0 dv=0
PairPos2: "'kern' Horizontal Kerning in Arabic lookup 2 per glyph data 2" uni0643 dx=-300 dy=0 dh=-300 dv=0 dx=0 dy=0 dh=0 dv=0
PairPos2: "'kern' Horizontal Kerning in Arabic lookup 2 per glyph data 2" uni0642 dx=-150 dy=0 dh=-150 dv=0 dx=0 dy=0 dh=0 dv=0
PairPos2: "'kern' Horizontal Kerning in Arabic lookup 2 per glyph data 2" uni0641 dx=-250 dy=0 dh=-250 dv=0 dx=0 dy=0 dh=0 dv=0
PairPos2: "'kern' Horizontal Kerning in Arabic lookup 2 per glyph data 2" uni0638 dx=-300 dy=0 dh=-300 dv=0 dx=0 dy=0 dh=0 dv=0
PairPos2: "'kern' Horizontal Kerning in Arabic lookup 2 per glyph data 2" uni0637 dx=-300 dy=0 dh=-300 dv=0 dx=0 dy=0 dh=0 dv=0
PairPos2: "'kern' Horizontal Kerning in Arabic lookup 2 per glyph data 2" uni0636 dx=-300 dy=0 dh=-300 dv=0 dx=0 dy=0 dh=0 dv=0
PairPos2: "'kern' Horizontal Kerning in Arabic lookup 2 per glyph data 2" uni0635 dx=-300 dy=0 dh=-300 dv=0 dx=0 dy=0 dh=0 dv=0
PairPos2: "'kern' Horizontal Kerning in Arabic lookup 2 per glyph data 2" uni0634 dx=-200 dy=0 dh=-200 dv=0 dx=0 dy=0 dh=0 dv=0
PairPos2: "'kern' Horizontal Kerning in Arabic lookup 2 per glyph data 2" uni0633 dx=-200 dy=0 dh=-200 dv=0 dx=0 dy=0 dh=0 dv=0
PairPos2: "'kern' Horizontal Kerning in Arabic lookup 2 per glyph data 2" uni0632 dx=-150 dy=0 dh=-150 dv=0 dx=0 dy=0 dh=0 dv=0
PairPos2: "'kern' Horizontal Kerning in Arabic lookup 2 per glyph data 2" uni0631 dx=-150 dy=0 dh=-150 dv=0 dx=0 dy=0 dh=0 dv=0
PairPos2: "'kern' Horizontal Kerning in Arabic lookup 2 per glyph data 2" uni0630 dx=-250 dy=0 dh=-250 dv=0 dx=0 dy=0 dh=0 dv=0
PairPos2: "'kern' Horizontal Kerning in Arabic lookup 2 per glyph data 2" uni062F dx=-250 dy=0 dh=-250 dv=0 dx=0 dy=0 dh=0 dv=0
PairPos2: "'kern' Horizontal Kerning in Arabic lookup 2 per glyph data 2" uni062E dx=-125 dy=0 dh=-125 dv=0 dx=0 dy=0 dh=0 dv=0
PairPos2: "'kern' Horizontal Kerning in Arabic lookup 2 per glyph data 2" uni062D dx=-125 dy=0 dh=-125 dv=0 dx=0 dy=0 dh=0 dv=0
PairPos2: "'kern' Horizontal Kerning in Arabic lookup 2 per glyph data 2" uni062C dx=-125 dy=0 dh=-125 dv=0 dx=0 dy=0 dh=0 dv=0
PairPos2: "'kern' Horizontal Kerning in Arabic lookup 2 per glyph data 2" uni062B dx=-250 dy=0 dh=-250 dv=0 dx=0 dy=0 dh=0 dv=0
PairPos2: "'kern' Horizontal Kerning in Arabic lookup 2 per glyph data 2" uni062A dx=-250 dy=0 dh=-250 dv=0 dx=0 dy=0 dh=0 dv=0
PairPos2: "'kern' Horizontal Kerning in Arabic lookup 2 per glyph data 2" uni0629 dx=-250 dy=0 dh=-250 dv=0 dx=0 dy=0 dh=0 dv=0
PairPos2: "'kern' Horizontal Kerning in Arabic lookup 2 per glyph data 2" uni0628 dx=-250 dy=0 dh=-250 dv=0 dx=0 dy=0 dh=0 dv=0
PairPos2: "'kern' Horizontal Kerning in Arabic lookup 2 per glyph data 2" uni0627 dx=-250 dy=0 dh=-250 dv=0 dx=0 dy=0 dh=0 dv=0
PairPos2: "'kern' Horizontal Kerning in Arabic lookup 2 per glyph data 2" uni0624 dx=-150 dy=0 dh=-150 dv=0 dx=0 dy=0 dh=0 dv=0
PairPos2: "'kern' Horizontal Kerning in Arabic lookup 2 per glyph data 2" uni0623 dx=-250 dy=0 dh=-250 dv=0 dx=0 dy=0 dh=0 dv=0
PairPos2: "'kern' Horizontal Kerning in Arabic lookup 2 per glyph data 2" uni0622 dx=-250 dy=0 dh=-250 dv=0 dx=0 dy=0 dh=0 dv=0
PairPos2: "'kern' Horizontal Kerning in Arabic lookup 2 per glyph data 2" uniFB58 dx=-100 dy=0 dh=-100 dv=0 dx=0 dy=0 dh=0 dv=0
PairPos2: "'kern' Horizontal Kerning in Arabic lookup 2 per glyph data 2" uniFEF3 dx=-100 dy=0 dh=-100 dv=0 dx=0 dy=0 dh=0 dv=0
PairPos2: "'kern' Horizontal Kerning in Arabic lookup 2 per glyph data 2" uniFBFE dx=-100 dy=0 dh=-100 dv=0 dx=0 dy=0 dh=0 dv=0
PairPos2: "'kern' Horizontal Kerning in Arabic lookup 2 per glyph data 1" uni063A dx=-200 dy=0 dh=-200 dv=0 dx=0 dy=0 dh=0 dv=0
PairPos2: "'kern' Horizontal Kerning in Arabic lookup 2 per glyph data 1" uni0639 dx=-200 dy=0 dh=-200 dv=0 dx=0 dy=0 dh=0 dv=0
Colour: ffff
EndChar

StartChar: uniFEB2
Encoding: 65202 65202 115
Width: 2684
VWidth: 1854
Flags: HMW
AnchorPoint: "Anchor-5" 1768 594 basechar 0
AnchorPoint: "Anchor-3" 719 -502 basechar 0
LayerCount: 2
Fore
SplineSet
2144 385 m 0
 2144 509 2122 602 2096 704 c 1
 2341 754 l 1
 2394 496 l 2
 2443 255 2455 200 2684 200 c 1
 2684 -50 l 1
 2510 -50 2388 -6 2306 76 c 1
 2246 -1 2155 -50 2033 -50 c 0
 1945 -50 1851 -19 1780 47 c 1
 1719 -15 1638 -50 1543 -50 c 0
 1503 -50 1464 -42 1430 -31 c 1
 1372 -390 1028 -551 719 -551 c 0
 395 -551 53 -373 53 11 c 0
 53 211 165 435 363 670 c 1
 553 510 l 1
 379 303 303 123 303 11 c 0
 303 -183 464 -301 719 -301 c 0
 987 -301 1188 -170 1188 74 c 0
 1188 134 1176 203 1144 287 c 2
 1043 549 l 1
 1277 639 l 1
 1377 376 l 2
 1436 221 1489 200 1543 200 c 0
 1595 200 1637 216 1661 368 c 2
 1701 619 l 1
 1947 579 l 1
 1917 388 l 2
 1915 372 1915 357 1915 337 c 0
 1915 218 1968 200 2033 200 c 0
 2114 200 2144 235 2144 385 c 0
EndSplineSet
Colour: ffff
EndChar

StartChar: uniFEB3
Encoding: 65203 65203 116
Width: 1538
VWidth: 2374
Flags: HMW
AnchorPoint: "Anchor-5" 880 594 basechar 0
AnchorPoint: "Anchor-3" 881 0 basechar 0
LayerCount: 2
Back
SplineSet
1306 706 m 1
 1344 461 l 2
 1351 419 1353 383 1353 350 c 0
 1353 175 1268 75 1116 75 c 0
 924 75 849.03103855 275.994537215 883 469 c 2
 905 594 l 1
 883 469 l 2
 852.59765625 297.071289062 808 75 620 75 c 0
 452 75 402.770507812 281.970703125 380 463 c 2
 364 594 l 1
 380 463 l 2
 406.340820312 265.447265625 281.860023333 75 0 75 c 1025
EndSplineSet
Fore
SplineSet
1485 343 m 0
 1485 124 1345 -50 1128 -50 c 0
 1029 -50 941 -8 880 54 c 1
 818 -9 731 -50 632 -50 c 0
 519 -50 425 1 364 76 c 1
 281 -6 160 -50 0 -50 c 0
 -69 -50 -125 6 -125 75 c 0
 -125 144 -69 200 0 200 c 0
 114 200 176 220 210 261 c 0
 245 304 259 384 259 517 c 2
 259 619 l 1
 509 619 l 1
 509 435 l 2
 509 336 533 262 559 232 c 0
 579 209 592 200 632 200 c 0
 672 200 685 209 705 232 c 0
 731 262 755 336 755 435 c 2
 755 619 l 1
 1005 619 l 1
 1005 435 l 2
 1005 336 1029 262 1055 232 c 0
 1075 209 1088 200 1128 200 c 0
 1176 200 1191 212 1207 236 c 0
 1222 257 1235 297 1235 343 c 0
 1235 361 1233 383 1229 408 c 2
 1182 712 l 1
 1430 749 l 1
 1477 446 l 2
 1482 413 1485 379 1485 343 c 0
EndSplineSet
Colour: ffff
EndChar

StartChar: uniFEB4
Encoding: 65204 65204 117
Width: 1735
VWidth: 2374
Flags: HMW
AnchorPoint: "Anchor-3" 881 0 basechar 0
AnchorPoint: "Anchor-5" 880 594 basechar 0
LayerCount: 2
Back
SplineSet
1731 75 m 16
 1594 75 1500 107 1440 173 c 0
 1397 220 1368 305 1344 461 c 2
 1306 706 l 1
 1344 461 l 2
 1351 419 1353 383 1353 350 c 0
 1353 175 1268 75 1116 75 c 0
 924 75 849.03103855 275.994537215 883 469 c 2
 905 594 l 1
 883 469 l 2
 852.59765625 297.071289062 808 75 620 75 c 0
 452 75 402.770507812 281.970703125 380 463 c 2
 364 594 l 1
 380 463 l 2
 406.340820312 265.447265625 281.860023333 75 0 75 c 1025
EndSplineSet
Fore
SplineSet
1128 200 m 0
 1212 200 1231 259 1231 343 c 0
 1231 410 1220 483 1209 547 c 2
 1182 712 l 1
 1430 749 l 1
 1466 514 l 2
 1484 395 1507 287 1563 241 c 0
 1592 218 1641 200 1735 200 c 1
 1735 -50 l 1
 1600 -50 1476 -17 1388 62 c 1
 1325 -8 1234 -50 1128 -50 c 0
 1027 -50 940 -9 880 53 c 1
 818 -10 732 -50 632 -50 c 0
 519 -50 425 1 364 76 c 1
 281 -6 160 -50 0 -50 c 0
 -69 -50 -125 6 -125 75 c 0
 -125 144 -69 200 0 200 c 0
 114 200 176 220 210 261 c 0
 245 304 259 384 259 517 c 2
 259 619 l 1
 509 619 l 1
 509 435 l 2
 509 336 533 262 559 232 c 0
 579 209 592 200 632 200 c 0
 739 200 755 324 755 435 c 2
 755 619 l 1
 1005 619 l 1
 1005 435 l 2
 1005 349 1025 269 1055 232 c 0
 1075 208 1088 200 1128 200 c 0
EndSplineSet
Colour: ffff
EndChar

StartChar: uniFEBA
Encoding: 65210 65210 118
Width: 2486
VWidth: 1854
Flags: HMW
AnchorPoint: "Anchor-5" 1934 729 basechar 0
AnchorPoint: "Anchor-3" 719 -502 basechar 0
LayerCount: 2
Fore
SplineSet
1560 219 m 1
 1619 206 1680 200 1741 200 c 0
 1981 200 2088 282 2088 367 c 0
 2088 438 2029 499 1934 499 c 0
 1830 499 1695 440 1560 219 c 1
1044 549 m 1
 1276 639 l 1
 1372 391 l 1
 1536 636 1741 749 1934 749 c 0
 2147 749 2338 602 2338 367 c 0
 2338 317 2329 271 2314 231 c 1
 2343 213 2392 200 2486 200 c 1
 2486 -50 l 1
 2343 -50 2229 -18 2147 46 c 1
 2027 -24 1874 -50 1741 -50 c 0
 1639 -50 1531 -34 1434 -5 c 1
 1390 -381 1037 -551 720 -551 c 0
 397 -551 54 -373 54 11 c 0
 54 210 156 433 364 671 c 1
 554 509 l 1
 371 301 304 121 304 11 c 0
 304 -183 465 -301 720 -301 c 0
 987 -301 1189 -169 1189 74 c 0
 1189 136 1177 206 1143 293 c 2
 1044 549 l 1
EndSplineSet
Colour: ffff
EndChar

StartChar: uniFEBB
Encoding: 65211 65211 119
Width: 1612
VWidth: 1854
Flags: HMW
AnchorPoint: "Anchor-5" 1167 769 basechar 0
AnchorPoint: "Anchor-3" 821 0 basechar 0
LayerCount: 2
Fore
SplineSet
0 200 m 0
 117 200 168 227 196 254 c 0
 229 288 257 362 259 502 c 2
 259 619 l 1
 509 619 l 1
 509 369 l 2
 509 358 509 346 510 339 c 1
 702 653 947 790 1157 790 c 0
 1342 790 1537 665 1537 434 c 0
 1537 95 1105 -50 829 -50 c 0
 645 -50 476 -28 371 74 c 1
 282 -18 144 -50 0 -50 c 0
 -69 -50 -125 6 -125 75 c 0
 -125 144 -69 200 0 200 c 0
720 204 m 1
 753 201 789 200 829 200 c 0
 1082 200 1287 353 1287 434 c 0
 1287 498 1245 540 1157 540 c 0
 1059 540 880 470 720 204 c 1
EndSplineSet
Colour: ffff
EndChar

StartChar: uniFEBC
Encoding: 65212 65212 120
Width: 1635
VWidth: 1854
Flags: HMW
AnchorPoint: "Anchor-3" 821 0 basechar 0
AnchorPoint: "Anchor-5" 1167 769 basechar 0
LayerCount: 2
Fore
SplineSet
0 200 m 0
 117 200 168 226 196 254 c 0
 241 299 259 396 259 517 c 2
 259 619 l 1
 509 619 l 1
 509 369 l 2
 509 359 509 348 510 340 c 1
 701 654 947 790 1157 790 c 0
 1342 790 1537 665 1537 434 c 0
 1537 356 1513 286 1474 228 c 1
 1506 211 1554 200 1635 200 c 1
 1635 -50 l 1
 1492 -50 1367 -15 1279 61 c 1
 1139 -15 968 -50 829 -50 c 0
 643 -50 477 -27 370 74 c 1
 278 -15 148 -50 0 -50 c 0
 -69 -50 -125 6 -125 75 c 0
 -125 144 -69 200 0 200 c 0
720 204 m 1
 753 201 789 200 829 200 c 0
 1082 200 1287 353 1287 434 c 0
 1287 498 1245 540 1157 540 c 0
 1059 540 880 470 720 204 c 1
EndSplineSet
Colour: ffff
EndChar

StartChar: uniFEC2
Encoding: 65218 65218 121
Width: 1538
VWidth: 1854
Flags: HMW
AnchorPoint: "Anchor-3" 768 0 basechar 0
AnchorPoint: "Anchor-5" 1088 764 basechar 0
LayerCount: 2
Back
SplineSet
632 202 m 1
 1184 223 1190 328 1190 424 c 0
 1190 488 1138 540 1050 540 c 0
 954 540 758 456 632 202 c 1
353 200 m 1
 353 1436 l 1
 603 1436 l 1
 603 583 l 1
 751 724 922 790 1060 790 c 0
 1245 790 1440 665 1440 434 c 0
 1440 355 1423 282 1387 222 c 1
 1420 208 1467 200 1538 200 c 1
 1538 -50 l 1
 1401 -50 1279 -22 1189 55 c 1
 1033 -16 805 -50 478 -50 c 2
 80 -50 l 1
 80 200 l 1
 353 200 l 1
EndSplineSet
Fore
SplineSet
632 202 m 1
 1184 223 1190 328 1190 424 c 0
 1190 488 1138 540 1050 540 c 0
 954 540 758 456 632 202 c 1
353 200 m 1
 353 1259 l 1
 603 1259 l 1
 603 543 l 1
 751 704 922 790 1060 790 c 0
 1245 790 1440 665 1440 434 c 0
 1440 355 1423 282 1387 222 c 1
 1420 208 1467 200 1538 200 c 1
 1538 -50 l 1
 1401 -50 1279 -22 1189 55 c 1
 1033 -16 805 -50 478 -50 c 2
 80 -50 l 1
 80 200 l 1
 353 200 l 1
EndSplineSet
Colour: ffff
EndChar

StartChar: uniFEC3
Encoding: 65219 65219 122
Width: 1317
VWidth: 1854
Flags: HMW
AnchorPoint: "Anchor-3" 548 0 basechar 0
AnchorPoint: "Anchor-5" 868 764 basechar 0
LayerCount: 2
Back
SplineSet
0 200 m 2
 133 200 l 1
 133 1436 l 1
 383 1436 l 1
 383 583 l 1
 531 724 702 790 840 790 c 0
 1025 790 1220 665 1220 434 c 0
 1220 111 949 -50 258 -50 c 2
 0 -50 l 2
 -69 -50 -125 6 -125 75 c 0
 -125 144 -69 200 0 200 c 2
412 202 m 1
 963 223 970 328 970 424 c 0
 970 488 918 540 830 540 c 0
 734 540 537 455 412 202 c 1
EndSplineSet
Fore
SplineSet
0 200 m 2
 133 200 l 1
 133 1259 l 1
 383 1259 l 1
 383 543 l 1
 531 704 702 790 840 790 c 0
 1025 790 1220 665 1220 434 c 0
 1220 111 949 -50 258 -50 c 2
 0 -50 l 2
 -69 -50 -125 6 -125 75 c 0
 -125 144 -69 200 0 200 c 2
412 202 m 1
 963 223 970 328 970 424 c 0
 970 488 918 540 830 540 c 0
 734 540 537 455 412 202 c 1
EndSplineSet
Colour: ffff
EndChar

StartChar: uniFEC4
Encoding: 65220 65220 123
Width: 1318
VWidth: 1854
Flags: HMW
AnchorPoint: "Anchor-5" 868 764 basechar 0
AnchorPoint: "Anchor-3" 548 0 basechar 0
LayerCount: 2
Back
SplineSet
-0 200 m 2
 133 201 l 1
 133 1436 l 1
 383 1436 l 1
 383 583 l 1
 531 724 700 790 840 790 c 0
 1025 790 1220 665 1220 434 c 0
 1220 355 1203 282 1167 222 c 1
 1200 208 1247 200 1318 200 c 1
 1318 -50 l 1
 1181 -50 1059 -22 969 55 c 1
 813 -16 585 -50 258 -50 c 2
 0 -50 l 2
 -69 -50 -125 6 -125 75 c 0
 -125 144 -69 200 -0 200 c 2
412 202 m 1
 963 223 970 328 970 424 c 0
 970 488 918 540 830 540 c 0
 743 540 569 469 443 261 c 0
 432 243 421 221 412 202 c 1
EndSplineSet
Fore
SplineSet
-0 200 m 2
 133 201 l 1
 133 1259 l 1
 383 1259 l 1
 383 543 l 1
 531 704 700 790 840 790 c 0
 1025 790 1220 665 1220 434 c 0
 1220 355 1203 282 1167 222 c 1
 1200 208 1247 200 1318 200 c 1
 1318 -50 l 1
 1181 -50 1059 -22 969 55 c 1
 813 -16 585 -50 258 -50 c 2
 0 -50 l 2
 -69 -50 -125 6 -125 75 c 0
 -125 144 -69 200 -0 200 c 2
412 202 m 1
 963 223 970 328 970 424 c 0
 970 488 918 540 830 540 c 0
 743 540 569 469 443 261 c 0
 432 243 421 221 412 202 c 1
EndSplineSet
Colour: ffff
EndChar

StartChar: uniFECA
Encoding: 65226 65226 124
Width: 1144
VWidth: 2374
Flags: HMW
AnchorPoint: "Anchor-5" 622 761 basechar 0
AnchorPoint: "Anchor-3" 688 -739 basechar 0
LayerCount: 2
Fore
SplineSet
797 472 m 0
 797 537 706 563 608 563 c 0
 528 563 442 546 397 519 c 1
 475 445 551 381 645 325 c 1
 753 381 797 435 797 472 c 0
1047 474 m 0
 1047 358 981 287 915 222 c 1
 985 208 1060 200 1144 200 c 1
 1144 -50 l 1
 946 -50 777 -18 637 46 c 1
 442 -42 290 -153 290 -301 c 0
 290 -400 440 -540 716 -540 c 0
 831 -540 955 -509 1059 -470 c 1
 1148 -703 l 1
 1012 -752 859 -790 715 -790 c 0
 392 -790 40 -623 40 -304 c 0
 40 -53 219 104 385 200 c 1
 273 284 185 369 101 459 c 1
 109 645 l 1
 233 741 393 812 594 812 c 0
 800 812 1047 706 1047 474 c 0
EndSplineSet
Colour: ffff
EndChar

StartChar: uniFECB
Encoding: 65227 65227 125
Width: 1083
VWidth: 1854
Flags: HMW
AnchorPoint: "Anchor-3" 468 0 basechar 0
AnchorPoint: "Anchor-5" 527 843 basechar 0
LayerCount: 2
Fore
SplineSet
0 200 m 0
 49 200 97 202 143 205 c 1
 102 264 78 334 78 411 c 0
 78 697 291 893 527 893 c 0
 698 893 826 810 900 721 c 1
 708 561 l 1
 672 605 616 643 527 643 c 0
 433 643 328 567 328 411 c 0
 328 352 360 310 455 286 c 0
 485 279 527 273 567 273 c 0
 582 273 598 274 610 276 c 2
 906 332 l 1
 953 87 l 1
 462 -7 l 2
 318 -34 164 -50 0 -50 c 0
 -69 -50 -125 6 -125 75 c 0
 -125 144 -69 200 0 200 c 0
EndSplineSet
Colour: ffff
EndChar

StartChar: uniFECC
Encoding: 65228 65228 126
Width: 996
VWidth: 1853
Flags: HMW
AnchorPoint: "Anchor-5" 519 762 basechar 0
AnchorPoint: "Anchor-3" 488 0 basechar 0
LayerCount: 2
Fore
SplineSet
13 595 m 1
 131 733 310 811 519 811 c 0
 707 811 957 706 957 439 c 0
 957 349 919 269 866 208 c 1
 907 203 950 200 996 200 c 1
 996 -50 l 1
 834 -50 689 -19 566 30 c 1
 402 -24 204 -50 0 -50 c 0
 -69 -50 -125 6 -125 75 c 0
 -125 144 -69 200 0 200 c 0
 85 200 171 205 248 215 c 1
 164 280 88 350 13 420 c 1
 13 595 l 1
287 507 m 1
 379 425 470 356 573 302 c 1
 661 349 707 401 707 439 c 0
 707 507 649 561 519 561 c 0
 437 561 345 537 287 507 c 1
EndSplineSet
Colour: ffff
EndChar

StartChar: uniFEDB
Encoding: 65243 65243 127
Width: 999
VWidth: 1854
Flags: HMW
AnchorPoint: "Anchor-5" 455 1258 basechar 0
AnchorPoint: "Anchor-3" 355 0 basechar 0
LayerCount: 2
Fore
SplineSet
0 200 m 2
 92 200 l 2
 380 200 419 226 419 298 c 0
 419 405 175 699 -30 844 c 1
 -30 1062 l 1
 239 1232 518 1355 848 1424 c 1
 898 1179 l 1
 667 1133 450 1053 252 941 c 1
 451 773 669 532 669 298 c 0
 669 -43 313 -50 92 -50 c 2
 0 -50 l 2
 -69 -50 -125 6 -125 75 c 0
 -125 144 -69 200 0 200 c 2
EndSplineSet
MultipleSubs2: "Multiple substitution 0 subtable" uniFEDB uniE000 uniE000
Colour: ffff
EndChar

StartChar: uniFEDC
Encoding: 65244 65244 128
Width: 900
VWidth: 1854
Flags: HMW
AnchorPoint: "Anchor-5" 455 1258 basechar 0
AnchorPoint: "Anchor-3" 355 0 basechar 0
LayerCount: 2
Fore
SplineSet
0 200 m 2
 92 200 l 2
 380 200 419 226 419 298 c 0
 419 405 175 699 -30 844 c 1
 -30 1062 l 1
 239 1232 522 1356 848 1424 c 1
 898 1179 l 1
 673 1132 450 1052 252 941 c 1
 426 795 611 594 658 392 c 1
 710 249 731 200 900 200 c 1
 900 -50 l 1
 753 -50 649 -5 575 62 c 1
 453 -48 246 -50 92 -50 c 2
 0 -50 l 2
 -69 -50 -125 6 -125 75 c 0
 -125 144 -69 200 0 200 c 2
EndSplineSet
MultipleSubs2: "Multiple substitution 0 subtable" uniFEDC uniE000 uniE000
Colour: ffff
EndChar

StartChar: uniFEDE
Encoding: 65246 65246 129
Width: 1549
VWidth: 1854
Flags: HMW
AnchorPoint: "Anchor-3" 663 -502 basechar 0
AnchorPoint: "Anchor-5" 631 712 basechar 0
LayerCount: 2
Fore
SplineSet
1042 1259 m 1
 1292 1259 l 1
 1292 517 l 2
 1292 379 1316 299 1345 263 c 0
 1372 230 1419 200 1549 200 c 1
 1549 -50 l 1
 1450 -50 1360 -34 1284 2 c 1
 1231 -371 943 -553 663 -553 c 0
 374 -553 53 -359 53 -5 c 0
 53 160 119 351 224 544 c 1
 442 422 l 1
 354 261 303 102 303 -5 c 0
 303 -179 464 -303 663 -303 c 0
 853 -303 1042 -193 1042 126 c 2
 1042 1259 l 1
EndSplineSet
Colour: ffff
EndChar

StartChar: uniFEDF
Encoding: 65247 65247 130
Width: 596
VWidth: 1854
Flags: HMW
AnchorPoint: "Anchor-5" 346 1211 basechar 0
AnchorPoint: "Anchor-3" 242 0 basechar 0
LayerCount: 2
Fore
SplineSet
0 200 m 0
 121 200 171 219 192 244 c 0
 210 265 221 308 221 391 c 0
 221 1261 l 1
 471 1261 l 1
 471 391 l 0
 471 265 440 162 374 86 c 0
 290 -9 160 -50 0 -50 c 0
 -69 -50 -125 6 -125 75 c 0
 -125 144 -69 200 0 200 c 0
EndSplineSet
Colour: ffff
EndChar

StartChar: uniFEE0
Encoding: 65248 65248 131
Width: 692
VWidth: 1854
Flags: HMW
AnchorPoint: "Anchor-3" 346 0 basechar 0
AnchorPoint: "Anchor-5" 346 1211 basechar 0
LayerCount: 2
Fore
SplineSet
0 200 m 0
 110 200 152 226 174 251 c 0
 208 294 221 371 221 474 c 2
 221 1259 l 1
 471 1259 l 1
 471 474 l 2
 471 371 484 293 518 251 c 0
 539 226 581 200 692 200 c 1
 692 -50 l 1
 553 -50 431 -16 346 69 c 1
 258 -19 138 -50 0 -50 c 0
 -69 -50 -125 6 -125 75 c 0
 -125 144 -69 200 0 200 c 0
EndSplineSet
Colour: ffff
EndChar

StartChar: uniFEE2
Encoding: 65250 65250 132
Width: 1329
VWidth: 2374
Flags: HMW
AnchorPoint: "Anchor-3" 668 -50 basechar 0
AnchorPoint: "Anchor-5" 750 696 basechar 0
LayerCount: 2
Fore
SplineSet
1329 -50 m 1
 1222 -50 1126 -22 1044 42 c 1
 973 -25 881 -49 793 -49 c 0
 685 -49 576 -20 495 13 c 0
 449 31 438 35 401 35 c 0
 347 35 303 4 303 -99 c 2
 303 -808 l 1
 53 -808 l 1
 53 -99 l 2
 53 78 155 240 329 277 c 1
 359 462 462 746 760 746 c 0
 990 746 1119 549 1141 364 c 0
 1159 230 1201 200 1329 200 c 1
 1329 -50 l 1
577 249 m 1
 654 223 727 201 793 201 c 0
 877 201 894 209 894 302 c 0
 894 429 825 496 760 496 c 0
 671 496 603 399 577 249 c 1
EndSplineSet
Colour: ffff
EndChar

StartChar: uniFEE3
Encoding: 65251 65251 133
Width: 1046
VWidth: 1854
Flags: HMW
AnchorPoint: "Anchor-5" 590 744 basechar 0
AnchorPoint: "Anchor-3" 619 0 basechar 0
LayerCount: 2
Back
SplineSet
291 298 m 5
 346 193 516 75 648 75 c 4
 764 75 868 185 868 322 c 4
 868 474 762 641 605 641 c 4
 466 641 375 534 321.87890625 388.64453125 c 4
 249.257847744 189.931228208 183 75 0 75 c 1029
EndSplineSet
Fore
SplineSet
0 200 m 0
 87 200 109 217 156 314 c 0
 172 346 187 386 204 432 c 0
 263 596 388 766 605 766 c 0
 861 766 993 515 993 322 c 0
 993 126 845 -50 648 -50 c 0
 520 -50 399 15 309 89 c 1
 236 2 130 -50 0 -50 c 0
 -69 -50 -125 6 -125 75 c 0
 -125 144 -69 200 0 200 c 0
429 319 m 1
 487 256 596 200 648 200 c 0
 683 200 743 244 743 322 c 0
 743 432 663 516 605 516 c 0
 543 516 486 473 439 345 c 2
 429 319 l 1
EndSplineSet
Colour: ffff
EndChar

StartChar: uniFEE4
Encoding: 65252 65252 134
Width: 1238
VWidth: 1854
Flags: HMW
AnchorPoint: "Anchor-5" 590 744 basechar 0
AnchorPoint: "Anchor-3" 619 0 basechar 0
LayerCount: 2
Fore
SplineSet
0 200 m 0
 87 200 109 217 156 314 c 0
 172 346 187 386 204 432 c 0
 263 596 388 766 605 766 c 0
 838 766 969 556 990 374 c 0
 996 323 1015 286 1033 263 c 0
 1060 230 1108 200 1238 200 c 1
 1238 -50 l 1
 1100 -50 978 -21 888 55 c 1
 826 -10 743 -50 648 -50 c 0
 520 -50 399 15 309 89 c 1
 236 2 130 -50 0 -50 c 0
 -69 -50 -125 6 -125 75 c 0
 -125 144 -69 200 0 200 c 0
429 319 m 1
 487 256 596 200 648 200 c 0
 683 200 743 244 743 322 c 0
 743 432 663 516 605 516 c 0
 543 516 486 473 439 345 c 2
 429 319 l 1
EndSplineSet
Colour: ffff
EndChar

StartChar: uniFEEA
Encoding: 65258 65258 135
Width: 1041
VWidth: 2374
Flags: HMW
AnchorPoint: "Anchor-5" 493 1003 basechar 0
AnchorPoint: "Anchor-3" 513 0 basechar 0
LayerCount: 2
Fore
SplineSet
558 679 m 1
 385 634 305 549 305 497 c 0
 305 449 339 405 477 405 c 0
 496 405 538 411 573 418 c 1
 558 679 l 1
1041 -50 m 1
 855 -50 692 19 625 170 c 1
 573 160 523 155 477 155 c 0
 299 155 55 240 55 497 c 0
 55 759 313 884 543 932 c 1
 536 1030 l 1
 786 1045 l 1
 820 481 l 2
 828 347 847 277 867 251 c 0
 888 226 930 200 1041 200 c 1
 1041 -50 l 1
EndSplineSet
Colour: ffff
EndChar

StartChar: uniFEEB
Encoding: 65259 65259 136
Width: 1293
VWidth: 1854
Flags: HMW
AnchorPoint: "Anchor-5" 578 952 basechar 0
AnchorPoint: "Anchor-3" 678 28 basechar 0
LayerCount: 2
Fore
SplineSet
603 511.872070312 m 0
 603 574.641601562 581.661489734 631 499 631 c 0
 424.747280238 631 322 564.858953766 322 461 c 0
 322 394.898375188 382 334 477 288 c 1
 553.723884879 321.64839453 603 417.714123384 603 511.872070312 c 0
864 200 m 0
 935.848904341 200 990 232.088322375 990 310 c 0
 990 379.241781133 935.258789062 446.68359375 817 511 c 1
 811.341796875 393.59375 784 298 728 216 c 1
 774.401367188 206.288085938 821.889961677 200 864 200 c 0
0 200 m 0
 59 200 116 203 169 209 c 1
 112 275 72 361 72 461 c 0
 72 619 158 736 258 804 c 1
 209 846 176 881 140 922 c 1
 325 1089 l 1
 407 1002 518 898 681 840 c 0
 902 761 1240 627 1240 310 c 0
 1240 116 1098 -50 854 -50 c 0
 758 -50 592 -22 473 19 c 1
 337 -29 173 -50 0 -50 c 0
 -69 -50 -125 6 -125 75 c 0
 -125 144 -69 200 0 200 c 0
EndSplineSet
Colour: ffff
EndChar

StartChar: uniFEEC
Encoding: 65260 65260 137
Width: 986
VWidth: 1854
Flags: HMW
AnchorPoint: "Anchor-5" 494 782 basechar 0
AnchorPoint: "Anchor-3" 494 -538 basechar 0
LayerCount: 2
Back
SplineSet
357.340042152 234.350393012 m 1
 576.858763939 284.638621782 630 369.832931578 630 447 c 0
 630 563.440075061 604.66081085 567 544 567 c 0
 467.091777589 567 379.688926921 490.969749219 357.340042152 234.350393012 c 1
745.99999472 146.734810317 m 0
 816.155402497 184.253551292 900.143121012 200 986 200 c 2
 1011 200 l 1
 1011 175 l 1
 1011 -25 l 1
 1011 -50 l 1
 986 -50 l 2
 835.145007887 -50 825 -64.8292029607 825 -160 c 2
 825 -434 l 1
 825 -445.394255878 l 1
 816.400101514 -452.868934001 l 1
 709.400101514 -545.868934001 l 1
 702.346079343 -552 l 1
 693 -552 l 1
 656 -552 l 2
 389.921737395 -552 184.928486066 -311.357200074 123.115616362 -47.1558144179 c 1
 81.5280597672 -49.2749950025 43.0305280808 -50 0 -50 c 0
 -68.8441488926 -50 -125 6.15544521039 -125 75 c 0
 -125 143.844148893 -68.8445547896 200 0 200 c 0
 35.7706224346 200 72.8143490886 201.339323833 105.048008429 202.848951855 c 1
 121.741825703 517.073422343 239.5670756 817 544 817 c 0
 742.981617267 817 880 666.015932424 880 447 c 0
 880 324.251648079 828.797931246 224.424944974 744.756935998 149.000034576 c 0
 664.000006584 89.5826359886 l 0
 582.068509178 39.884092679 480.622616501 4.32868708757 372.884023099 -17.5247202712 c 1
 410.73523563 -148.453171931 494.723037845 -242.182148228 575 -281.30086873 c 1
 575 -160 l 2
 575 -53.2596383339 609.223157137 28.9169103498 665.711514176 87.000035816 c 0
 745.99999472 146.734810317 l 0
EndSplineSet
Fore
SplineSet
357 234 m 1
 577 284 630 370 630 447 c 0
 630 541 605 567 544 567 c 0
 467 567 379 491 357 234 c 1
986 200 m 1
 986 -50 l 1
 854 -50 825 -94 825 -189 c 0
 825 -445 l 1
 702 -552 l 1
 656 -552 l 2
 390 -552 195 -311 133 -47 c 1
 91 -49 43 -50 0 -50 c 0
 -69 -50 -125 6 -125 75 c 0
 -125 144 -69 200 0 200 c 0
 36 200 83 201 115 203 c 1
 132 517 240 817 544 817 c 0
 743 817 870 694 870 493 c 0
 870 219 604 28 373 -18 c 1
 411 -149 495 -245 586 -287 c 1
 586 47 773 198 986 200 c 1
EndSplineSet
Colour: ffff
EndChar

StartChar: zero
Encoding: 48 48 139
Width: 1269
VWidth: 1816
Flags: HMW
LayerCount: 2
Fore
SplineSet
635 -67 m 0
 168 -67 100 433 100 706 c 0
 100 979 168 1479 635 1479 c 0
 1102 1479 1169 979 1169 706 c 0
 1169 433 1102 -67 635 -67 c 0
635 142 m 0
 831 142 919 404 919 706 c 0
 919 1008 831 1268 635 1268 c 0
 439 1268 350 1008 350 706 c 0
 350 404 439 142 635 142 c 0
EndSplineSet
Colour: ffff00
EndChar

StartChar: one
Encoding: 49 49 140
Width: 732
VWidth: 1819
Flags: HMW
LayerCount: 2
Fore
SplineSet
102 1024 m 1
 100 1218 l 1
 217 1219 l 2
 373 1219 382 1230 382 1389 c 2
 382 1459 l 1
 632 1459 l 1
 632 -47 l 1
 382 -47 l 1
 382 1042 l 1
 330 1030 277 1026 219 1025 c 2
 102 1024 l 1
EndSplineSet
Colour: ffff00
EndChar

StartChar: two
Encoding: 50 50 141
Width: 1231
VWidth: 1816
Flags: HMW
LayerCount: 2
Fore
SplineSet
1131 162 m 1
 1131 -47 l 1
 100 -47 l 1
 100 193 l 1
 694 657 l 2
 820 751 881 851 881 980 c 0
 881 1180 748 1268 616 1268 c 0
 469 1268 351 1170 351 955 c 1
 101 955 l 1
 101 1293 341 1479 616 1479 c 0
 875 1479 1131 1301 1131 980 c 0
 1131 776 1021 612 852 483 c 2
 457 162 l 1
 1131 162 l 1
EndSplineSet
Colour: ffff00
EndChar

StartChar: three
Encoding: 51 51 142
Width: 1249
VWidth: 1816
Flags: HMW
LayerCount: 2
Fore
SplineSet
409 1042 m 1
 159 1042 l 1
 159 1346 399 1479 636 1479 c 0
 861 1479 1110 1339 1110 1058 c 0
 1110 945 1061 825 978 755 c 1
 1083 675 1149 531 1149 376 c 0
 1149 55 853 -67 623 -67 c 0
 362 -67 100 84 100 413 c 1
 350 413 l 1
 350 233 457 142 623 142 c 0
 778 142 899 216 899 376 c 0
 899 558 781 653 614 653 c 2
 516 653 l 1
 516 848 l 1
 614 848 l 2
 780 848 860 951 860 1058 c 0
 860 1197 760 1269 636 1269 c 0
 488 1269 409 1195 409 1042 c 1
EndSplineSet
Colour: ffff00
EndChar

StartChar: four
Encoding: 52 52 143
Width: 1297
VWidth: 1816
Flags: HMW
LayerCount: 2
Fore
SplineSet
784 490 m 1
 784 1101 l 1
 359 490 l 1
 784 490 l 1
1197 490 m 1
 1197 294 l 1
 1034 294 l 1
 1034 -47 l 1
 784 -47 l 1
 784 294 l 1
 100 294 l 1
 100 458 l 1
 792 1459 l 1
 1034 1459 l 1
 1034 490 l 1
 1197 490 l 1
EndSplineSet
Colour: ffff00
EndChar

StartChar: five
Encoding: 53 53 144
Width: 1217
VWidth: 1816
Flags: HMW
LayerCount: 2
Fore
SplineSet
573 840 m 0
 456 840 342 787 272 721 c 1
 113 785 l 1
 178 1459 l 1
 1092 1459 l 1
 1092 1248 l 1
 408 1248 l 1
 388 1008 l 1
 452 1027 512 1034 573 1034 c 0
 925 1034 1117 785 1117 481 c 0
 1117 147 918 -67 573 -67 c 0
 264 -67 100 132 100 366 c 1
 350 366 l 1
 350 231 414 142 573 142 c 0
 773 142 867 232 867 481 c 0
 867 705 766 840 573 840 c 0
EndSplineSet
Colour: ffff00
EndChar

StartChar: six
Encoding: 54 54 145
Width: 1245
VWidth: 1816
Flags: HMW
LayerCount: 2
Fore
SplineSet
639 738 m 0
 557 738 448 701 351 619 c 1
 364 343 434 142 638 142 c 0
 793 142 895 299 895 436 c 0
 895 640 774 738 639 738 c 0
100 689 m 0
 100 1126 296 1479 668 1479 c 0
 855 1479 958 1426 1084 1317 c 1
 949 1158 l 1
 865 1232 775 1270 691 1270 c 0
 534 1270 397 1116 357 829 c 1
 429 888 548 934 639 934 c 0
 925 934 1145 740 1145 436 c 0
 1145 209 965 -67 638 -67 c 0
 157 -67 100 398 100 689 c 0
EndSplineSet
Colour: ffff00
EndChar

StartChar: seven
Encoding: 55 55 146
Width: 1177
VWidth: 1816
Flags: HMW
LayerCount: 2
Fore
SplineSet
100 1248 m 1
 100 1459 l 1
 1017 1459 l 1
 1077 1293 l 1
 465 -63 l 1
 232 17 l 1
 800 1248 l 1
 100 1248 l 1
EndSplineSet
Colour: ffff00
EndChar

StartChar: eight
Encoding: 56 56 147
Width: 1207
VWidth: 1816
Flags: HMW
LayerCount: 2
Fore
SplineSet
793 1084 m 0
 793 1174 744 1268 604 1268 c 0
 464 1268 414 1173 414 1084 c 0
 414 943 457 882 603 882 c 0
 748 882 793 943 793 1084 c 0
350 366 m 0
 350 240 430 142 604 142 c 0
 778 142 857 239 857 366 c 0
 857 521 733 648 603 648 c 0
 467 648 350 526 350 366 c 0
886 765 m 1
 1002 685 1107 514 1107 366 c 0
 1107 118 900 -67 604 -67 c 0
 308 -67 100 117 100 366 c 0
 100 515 204 687 319 766 c 1
 237 829 164 966 164 1084 c 0
 164 1266 305 1479 604 1479 c 0
 903 1479 1043 1264 1043 1084 c 0
 1043 965 968 828 886 765 c 1
EndSplineSet
Colour: ffff00
EndChar

StartChar: nine
Encoding: 57 57 148
Width: 1245
VWidth: 1816
Flags: HMW
LayerCount: 2
Fore
SplineSet
606 674 m 4
 688 674 797 711 894 793 c 5
 881 1069 811 1270 607 1270 c 4
 452 1270 350 1113 350 976 c 4
 350 772 471 674 606 674 c 4
1145 723 m 4
 1145 286 949 -67 577 -67 c 4
 390 -67 287 -14 161 95 c 5
 296 254 l 5
 380 180 470 142 554 142 c 4
 711 142 848 296 888 583 c 5
 816 524 697 478 606 478 c 4
 320 478 100 672 100 976 c 4
 100 1203 280 1479 607 1479 c 4
 1088 1479 1145 1014 1145 723 c 4
EndSplineSet
Colour: ffff00
EndChar

StartChar: uni0622
Encoding: 1570 1570 149
Width: 560
VWidth: 1854
Flags: HMW
AnchorPoint: "Anchor-5" 280 1472 basechar 0
AnchorPoint: "Anchor-3" 280 0 basechar 0
LayerCount: 2
Fore
SplineSet
725 1449 m 1
 634 1341 553 1280 427 1280 c 0
 364 1280 305 1295 252 1313 c 0
 202 1330 156 1343 134 1343 c 0
 81 1343 61 1318 -9 1229 c 1
 -165 1355 l 1
 -84 1455 -6 1538 134 1538 c 0
 198 1538 255 1522 308 1505 c 0
 358 1489 406 1475 427 1475 c 0
 485 1475 507 1496 573 1577 c 1
 725 1449 l 1
405 -47 m 1
 155 -47 l 1
 155 1136 l 1
 405 1136 l 1
 405 -47 l 1
EndSplineSet
PairPos2: "'kern' Horizontal Kerning in Arabic lookup 2 per glyph data 5" uniE017 dx=100 dy=0 dh=100 dv=0 dx=0 dy=0 dh=0 dv=0
PairPos2: "'kern' Horizontal Kerning in Arabic lookup 2 per glyph data 5" uniE015 dx=100 dy=0 dh=100 dv=0 dx=0 dy=0 dh=0 dv=0
PairPos2: "'kern' Horizontal Kerning in Arabic lookup 2 per glyph data 5" uni06B5 dx=100 dy=0 dh=100 dv=0 dx=0 dy=0 dh=0 dv=0
PairPos2: "'kern' Horizontal Kerning in Arabic lookup 2 per glyph data 5" uniFB6C dx=150 dy=0 dh=150 dv=0 dx=0 dy=0 dh=0 dv=0
PairPos2: "'kern' Horizontal Kerning in Arabic lookup 2 per glyph data 5" uniE012 dx=100 dy=0 dh=100 dv=0 dx=0 dy=0 dh=0 dv=0
PairPos2: "'kern' Horizontal Kerning in Arabic lookup 2 per glyph data 1" uni063A dx=-225 dy=0 dh=-225 dv=0 dx=0 dy=0 dh=0 dv=0
PairPos2: "'kern' Horizontal Kerning in Arabic lookup 2 per glyph data 1" uni0639 dx=-225 dy=0 dh=-225 dv=0 dx=0 dy=0 dh=0 dv=0
PairPos2: "'kern' Horizontal Kerning in Arabic lookup 2 per glyph data 0" uni06AF dx=200 dy=0 dh=200 dv=0 dx=0 dy=0 dh=0 dv=0
PairPos2: "'kern' Horizontal Kerning in Arabic lookup 2 per glyph data 0" uni06A9 dx=200 dy=0 dh=200 dv=0 dx=0 dy=0 dh=0 dv=0
PairPos2: "'kern' Horizontal Kerning in Arabic lookup 2 per glyph data 0" uniFEDB dx=200 dy=0 dh=200 dv=0 dx=0 dy=0 dh=0 dv=0
PairPos2: "'kern' Horizontal Kerning in Arabic lookup 2 per glyph data 0" uniFB94 dx=200 dy=0 dh=200 dv=0 dx=0 dy=0 dh=0 dv=0
PairPos2: "'kern' Horizontal Kerning in Arabic lookup 2 per glyph data 0" uniFB90 dx=200 dy=0 dh=200 dv=0 dx=0 dy=0 dh=0 dv=0
PairPos2: "'kern' Horizontal Kerning in Arabic lookup 2 per glyph data 0" uniFED7 dx=150 dy=0 dh=150 dv=0 dx=0 dy=0 dh=0 dv=0
PairPos2: "'kern' Horizontal Kerning in Arabic lookup 2 per glyph data 0" uniFED3 dx=150 dy=0 dh=150 dv=0 dx=0 dy=0 dh=0 dv=0
PairPos2: "'kern' Horizontal Kerning in Arabic lookup 2 per glyph data 0" uniFE9B dx=150 dy=0 dh=150 dv=0 dx=0 dy=0 dh=0 dv=0
PairPos2: "'kern' Horizontal Kerning in Arabic lookup 2 per glyph data 0" uniFE97 dx=150 dy=0 dh=150 dv=0 dx=0 dy=0 dh=0 dv=0
PairPos2: "'kern' Horizontal Kerning in Arabic lookup 2 per glyph data 0" uni0639 dx=-200 dy=0 dh=-200 dv=0 dx=0 dy=0 dh=0 dv=0
PairPos2: "'kern' Horizontal Kerning in Arabic lookup 2 per glyph data 0" uni063A dx=-200 dy=0 dh=-200 dv=0 dx=0 dy=0 dh=0 dv=0
PairPos2: "'kern' Horizontal Kerning in Arabic lookup 2 per glyph data 0" uni0622 dx=400 dy=0 dh=400 dv=0 dx=0 dy=0 dh=0 dv=0
PairPos2: "'kern' Horizontal Kerning in Arabic lookup 2 per glyph data 0" uni0627 dx=200 dy=0 dh=200 dv=0 dx=0 dy=0 dh=0 dv=0
PairPos2: "'kern' Horizontal Kerning in Arabic lookup 2 per glyph data 0" uni0623 dx=200 dy=0 dh=200 dv=0 dx=0 dy=0 dh=0 dv=0
PairPos2: "'kern' Horizontal Kerning in Arabic lookup 2 per glyph data 0" uni0625 dx=200 dy=0 dh=200 dv=0 dx=0 dy=0 dh=0 dv=0
PairPos2: "'kern' Horizontal Kerning in Arabic lookup 2 per glyph data 0" uniFE8B dx=100 dy=0 dh=100 dv=0 dx=0 dy=0 dh=0 dv=0
PairPos2: "'kern' Horizontal Kerning in Arabic lookup 2 per glyph data 0" uni0644 dx=100 dy=0 dh=100 dv=0 dx=0 dy=0 dh=0 dv=0
PairPos2: "'kern' Horizontal Kerning in Arabic lookup 2 per glyph data 0" uniFEDF dx=100 dy=0 dh=100 dv=0 dx=0 dy=0 dh=0 dv=0
PairPos2: "'kern' Horizontal Kerning in Arabic lookup 2 per glyph data 0" uniFEFB dx=100 dy=0 dh=100 dv=0 dx=0 dy=0 dh=0 dv=0
PairPos2: "'kern' Horizontal Kerning in Arabic lookup 2 per glyph data 0" uniFEF9 dx=100 dy=0 dh=100 dv=0 dx=0 dy=0 dh=0 dv=0
PairPos2: "'kern' Horizontal Kerning in Arabic lookup 2 per glyph data 0" uniFEF7 dx=100 dy=0 dh=100 dv=0 dx=0 dy=0 dh=0 dv=0
PairPos2: "'kern' Horizontal Kerning in Arabic lookup 2 per glyph data 0" uniFEF5 dx=100 dy=0 dh=100 dv=0 dx=0 dy=0 dh=0 dv=0
Ligature2: "'liga' Standard Ligatures in Arabic lookup 9 subtable" uni0627 uni0653
Substitution2: "'fina' Terminal Forms in Arabic lookup 2 subtable" uniFE82
LCarets2: 1 0
Colour: ffff
EndChar

StartChar: uni0643
Encoding: 1603 1603 168
Width: 1585
VWidth: 1854
Flags: HMW
AnchorPoint: "Anchor-5" 810 971 basechar 0
AnchorPoint: "Anchor-3" 868 0 basechar 0
LayerCount: 2
Fore
SplineSet
1240 1259 m 1
 1490 1259 l 1
 1490 517 l 2
 1490 356 1468 211 1377 100 c 0
 1256 -46 1072 -50 896 -50 c 2
 868 -50 l 2
 490 -50 53 -13 53 400 c 0
 53 497 73 601 94 683 c 1
 336 626 l 1
 320 561 303 464 303 400 c 0
 303 259 430 200 868 200 c 0
 1069 200 1153 221 1185 260 c 0
 1216 296 1240 376 1240 517 c 2
 1240 1259 l 1
EndSplineSet
Refer: 25 1620 N 1 0 0 1 811 -892 2
Substitution2: "'init' Initial Forms in Arabic lookup 4 subtable" uniFEDB
Substitution2: "'medi' Medial Forms in Arabic lookup 3 subtable" uniFEDC
Substitution2: "'fina' Terminal Forms in Arabic lookup 2 subtable" uniFEDA
Colour: ffff
EndChar

StartChar: uniFEEE
Encoding: 65262 65262 194
Width: 898
VWidth: 1854
Flags: HMW
AnchorPoint: "Anchor-3" 412 -502 basechar 0
AnchorPoint: "Anchor-5" 440 726 basechar 0
LayerCount: 2
Fore
SplineSet
590 200 m 1
 568 401 494 526 434 526 c 0
 378 526 307 442 307 313 c 0
 307 227 342 200 458 200 c 2
 590 200 l 1
827 -50 m 1
 756 -325 494 -477 130 -568 c 1
 68 -326 l 1
 347 -256 502 -156 560 -50 c 1
 458 -50 l 2
 266 -50 57 47 57 304 c 0
 57 515 195 776 440 776 c 0
 768 776 827 382 841 200 c 1
 898 200 l 1
 898 -50 l 1
 827 -50 l 1
EndSplineSet
PairPos2: "'kern' Horizontal Kerning in Arabic lookup 2 per glyph data 3" uniFEDB dx=-200 dy=0 dh=-200 dv=0 dx=0 dy=0 dh=0 dv=0
PairPos2: "'kern' Horizontal Kerning in Arabic lookup 2 per glyph data 3" uniFB94 dx=-200 dy=0 dh=-200 dv=0 dx=0 dy=0 dh=0 dv=0
PairPos2: "'kern' Horizontal Kerning in Arabic lookup 2 per glyph data 3" uniFB90 dx=-200 dy=0 dh=-200 dv=0 dx=0 dy=0 dh=0 dv=0
PairPos2: "'kern' Horizontal Kerning in Arabic lookup 2 per glyph data 3" uni06AF dx=-200 dy=0 dh=-200 dv=0 dx=0 dy=0 dh=0 dv=0
PairPos2: "'kern' Horizontal Kerning in Arabic lookup 2 per glyph data 3" uni06A9 dx=-200 dy=0 dh=-200 dv=0 dx=0 dy=0 dh=0 dv=0
PairPos2: "'kern' Horizontal Kerning in Arabic lookup 2 per glyph data 1" uni063A dx=-100 dy=0 dh=-100 dv=0 dx=0 dy=0 dh=0 dv=0
PairPos2: "'kern' Horizontal Kerning in Arabic lookup 2 per glyph data 1" uni0639 dx=-100 dy=0 dh=-100 dv=0 dx=0 dy=0 dh=0 dv=0
Colour: ffff
EndChar

StartChar: uniFEDA
Encoding: 65242 65242 231
Width: 1748
VWidth: 1854
Flags: HMW
AnchorPoint: "Anchor-5" 809 971 basechar 0
AnchorPoint: "Anchor-3" 868 0 basechar 0
LayerCount: 2
Fore
SplineSet
1366 87 m 1
 1242 -49 1058 -50 881 -50 c 2
 868 -50 l 2
 490 -50 53 -13 53 400 c 0
 53 497 73 601 94 683 c 1
 336 626 l 1
 320 561 303 464 303 400 c 0
 303 259 430 200 868 200 c 0
 1069 200 1153 221 1185 260 c 0
 1225 308 1240 402 1240 517 c 2
 1240 1259 l 1
 1490 1259 l 1
 1490 517 l 2
 1490 403 1506 312 1545 263 c 0
 1572 229 1618 200 1748 200 c 1
 1748 -50 l 1
 1593 -50 1457 -12 1366 87 c 1
EndSplineSet
Refer: 25 1620 N 1 0 0 1 824 -892 2
Colour: ffff
EndChar

StartChar: uniFB8F
Encoding: 64399 64399 238
Width: 1744
VWidth: 1854
Flags: HMW
AnchorPoint: "Anchor-3" 868 0 basechar 0
AnchorPoint: "Anchor-5" 1304 1258 basechar 0
LayerCount: 2
Fore
SplineSet
1697 1424 m 1
 1747 1179 l 1
 1518 1133 1299 1053 1101 941 c 1
 1273 795 1456 597 1505 397 c 1
 1560 246 1577 200 1744 200 c 1
 1744 -50 l 1
 1595 -50 1490 -4 1418 64 c 1
 1289 -47 1074 -50 922 -50 c 2
 891 -50 l 2
 515 -50 54 -17 54 400 c 0
 54 535 92 648 126 741 c 1
 364 664 l 1
 335 579 304 480 304 400 c 0
 304 263 450 200 891 200 c 0
 1188 200 1268 242 1268 298 c 0
 1268 405 1024 699 819 844 c 1
 819 1062 l 1
 1088 1232 1363 1352 1697 1424 c 1
EndSplineSet
Colour: ffff
EndChar

StartChar: exclam
Encoding: 33 33 246
Width: 613
VWidth: 1647
Flags: HMW
LayerCount: 2
Fore
SplineSet
431 366 m 1
 181 366 l 1
 181 1459 l 1
 431 1459 l 1
 431 366 l 1
EndSplineSet
Refer: 0 46 N 1 0 0 1 80 0 2
Colour: ffff
EndChar

StartChar: uni066B
Encoding: 1643 1643 247
Width: 787
VWidth: 1854
Flags: HMW
LayerCount: 2
Fore
SplineSet
281 -335 m 1
 49 -245 l 1
 515 945 l 1
 747 855 l 1
 281 -335 l 1
EndSplineSet
PairPos2: "'kern' Horizontal Kerning in Arabic lookup 3 per glyph data 1" uni066B dx=-50 dy=0 dh=-50 dv=0 dx=0 dy=0 dh=0 dv=0
PairPos2: "'kern' Horizontal Kerning in Arabic lookup 3 per glyph data 1" uni06F2 dx=-100 dy=0 dh=-100 dv=0 dx=0 dy=0 dh=0 dv=0
PairPos2: "'kern' Horizontal Kerning in Arabic lookup 3 per glyph data 1" uni06F3 dx=-75 dy=0 dh=-75 dv=0 dx=0 dy=0 dh=0 dv=0
PairPos2: "'kern' Horizontal Kerning in Arabic lookup 3 per glyph data 1" uni06F0 dx=-50 dy=0 dh=-50 dv=0 dx=0 dy=0 dh=0 dv=0
PairPos2: "'kern' Horizontal Kerning in Arabic lookup 3 per glyph data 1" uni06F7 dx=-100 dy=0 dh=-100 dv=0 dx=0 dy=0 dh=0 dv=0
PairPos2: "'kern' Horizontal Kerning in Arabic lookup 3 per glyph data 0" uni0667 dx=-100 dy=0 dh=-100 dv=0 dx=0 dy=0 dh=0 dv=0
PairPos2: "'kern' Horizontal Kerning in Arabic lookup 3 per glyph data 0" uni0662 dx=-100 dy=0 dh=-100 dv=0 dx=0 dy=0 dh=0 dv=0
PairPos2: "'kern' Horizontal Kerning in Arabic lookup 3 per glyph data 0" uni0663 dx=-150 dy=0 dh=-150 dv=0 dx=0 dy=0 dh=0 dv=0
Colour: ffff
EndChar

StartChar: uniE000
Encoding: 57344 57344 248
Width: 120
VWidth: 1854
Flags: HMW
LayerCount: 2
Fore
SplineSet
0 200 m 2
 120 200 l 1
 120 -50 l 1
 0 -50 l 2
 -69 -50 -125 6 -125 75 c 0
 -125 144 -69 200 0 200 c 2
EndSplineSet
Colour: ffff
EndChar

StartChar: uniE001
Encoding: 57345 57345 249
Width: 320
VWidth: 1854
Flags: HMW
LayerCount: 2
Fore
SplineSet
0 200 m 2
 320 200 l 1
 320 -50 l 1
 0 -50 l 2
 -69 -50 -125 6 -125 75 c 0
 -125 144 -69 200 0 200 c 2
EndSplineSet
Colour: ffff
EndChar

StartChar: uniE002
Encoding: 57346 57346 250
Width: 450
VWidth: 1854
Flags: HMW
LayerCount: 2
Fore
SplineSet
0 200 m 2
 450 200 l 1
 450 -50 l 1
 0 -50 l 2
 -69 -50 -125 6 -125 75 c 0
 -125 144 -69 200 0 200 c 2
EndSplineSet
Colour: ffff
EndChar

StartChar: simpledot
Encoding: 1114131 -1 251
Width: 2730
VWidth: 2370
Flags: HMW
LayerCount: 2
Fore
SplineSet
1017.59960938 132 m 1
 1187 301.400390625 l 1
 1356.40039062 132 l 1
 1187 -37.400390625 l 1
 1017.59960938 132 l 1
EndSplineSet
Colour: ff0000
EndChar

StartChar: hyphen
Encoding: 45 45 252
Width: 993
VWidth: 1647
Flags: HMW
LayerCount: 2
Fore
SplineSet
898 608 m 1
 898 412 l 1
 95 412 l 1
 95 608 l 1
 898 608 l 1
EndSplineSet
Colour: ffff00
EndChar

StartChar: numbersign
Encoding: 35 35 254
Width: 1693
VWidth: 1819
Flags: HMW
LayerCount: 2
Fore
SplineSet
466 -53 m 1
 223 5 l 1
 338 394 l 1
 100 394 l 1
 100 588 l 1
 407 588 l 1
 480 858 l 1
 192 858 l 1
 192 1054 l 1
 548 1054 l 1
 669 1464 l 1
 912 1406 l 1
 808 1054 l 1
 1096 1054 l 1
 1217 1464 l 1
 1460 1406 l 1
 1356 1054 l 1
 1593 1054 l 1
 1593 858 l 1
 1287 858 l 1
 1214 588 l 1
 1501 588 l 1
 1501 394 l 1
 1146 394 l 1
 1014 -53 l 1
 771 5 l 1
 886 394 l 1
 598 394 l 1
 466 -53 l 1
1028 858 m 1
 739 858 l 1
 666 588 l 1
 955 588 l 1
 1028 858 l 1
EndSplineSet
Colour: ffff00
EndChar

StartChar: ampersand
Encoding: 38 38 257
Width: 1288
VWidth: 1819
Flags: HMW
LayerCount: 2
Fore
SplineSet
540 891 m 1
 676 965 739 1017 739 1113 c 0
 739 1176 695 1268 594 1268 c 0
 491 1268 440 1195 440 1103 c 0
 440 1055 453 1007 486 964 c 2
 540 891 l 1
767 176 m 1
 469 583 l 1
 391 527 350 474 350 376 c 0
 350 248 428 142 595 142 c 0
 658 142 720 155 767 176 c 1
1080 149 m 1
 1177 20 l 1
 965 -101 l 1
 893 -4 l 1
 805 -46 704 -67 595 -67 c 0
 316 -67 100 119 100 376 c 0
 100 564 211 688 329 770 c 1
 280 836 l 1
 217 913 190 1018 190 1103 c 0
 190 1290 334 1479 594 1479 c 0
 834 1479 989 1292 989 1113 c 0
 989 895 818 780 680 704 c 1
 919 365 l 1
 933 410 938 461 938 521 c 1
 1188 521 l 1
 1188 373 1157 253 1080 149 c 1
EndSplineSet
Colour: ffff00
EndChar

StartChar: quotesingle
Encoding: 39 39 258
Width: 400
VWidth: 1819
Flags: HMW
LayerCount: 2
Fore
SplineSet
125 1416 m 1
 275 1416 l 1
 275 891 l 1
 125 891 l 1
 125 1416 l 1
EndSplineSet
Colour: ff00
EndChar

StartChar: plus
Encoding: 43 43 259
Width: 993
VWidth: 1647
Flags: HMW
LayerCount: 2
Fore
SplineSet
898 608 m 1
 898 412 l 1
 606 412 l 1
 606 109 l 1
 386 109 l 1
 386 412 l 1
 95 412 l 1
 95 608 l 1
 386 608 l 1
 386 911 l 1
 606 911 l 1
 606 608 l 1
 898 608 l 1
EndSplineSet
Colour: ffff00
EndChar

StartChar: comma
Encoding: 44 44 260
Width: 502
VWidth: 1854
Flags: HMW
LayerCount: 2
Fore
SplineSet
213 -271 m 1
 146 -219 l 1
 178 -183 270 -76 270 45 c 1
 172 45 120 89 120 179 c 0
 120 254 175 305 242 305 c 0
 328 305 382 248 382 134 c 0
 382 -57 286 -182 213 -271 c 1
EndSplineSet
EndChar

StartChar: question
Encoding: 63 63 262
Width: 1067
VWidth: 1854
Flags: HMW
LayerCount: 2
Fore
SplineSet
332 938 m 1
 85 908 l 1
 79 943 75 989 75 1024 c 0
 75 1248 228 1459 528 1459 c 0
 827 1459 992 1226 992 983 c 0
 992 810 904.822073958 741.872053183 816 678 c 0
 727 614 638 549 638 380 c 1
 388 380 l 1
 388 593 491 683 585 764 c 0
 664 832 736 894 736 1018 c 0
 736 1134 655 1248 528 1248 c 0
 387 1248 325 1163 325 1024 c 0
 325 993 328 966 332 938 c 1
EndSplineSet
Refer: 0 46 N -1 0 0 1 742 0 2
Colour: ffff00
EndChar

StartChar: at
Encoding: 64 64 263
Width: 2061
VWidth: 1819
Flags: HMW
LayerCount: 2
Fore
SplineSet
1046 1113 m 0
 1280 1113 1395 1025 1506 936 c 1
 1451 301 l 2
 1450 294 1450 291 1450 279 c 0
 1450 182 1508 138 1580 138 c 0
 1699 138 1824 282 1824 530 c 0
 1824 986 1456 1337 1031 1337 c 0
 606 1337 237 986 237 530 c 0
 237 74 605 -275 1031 -275 c 0
 1114 -275 1193 -260 1268 -240 c 1
 1337 -415 l 1
 1244 -444 1138 -463 1031 -463 c 0
 465 -463 25 -8 25 530 c 0
 25 1068 464 1523 1031 1523 c 0
 1598 1523 2036 1068 2036 530 c 0
 2036 268 1900 -69 1554 -69 c 0
 1432 -69 1338 -19 1278 53 c 1
 1190 -26 1080 -69 963 -69 c 0
 716 -69 477 98 477 452 c 0
 477 856 726 1113 1046 1113 c 0
1216 480 m 2
 1247 853 l 1
 1201 882 1152 902 1046 902 c 0
 901 902 727 778 727 452 c 0
 727 201 852 142 963 142 c 0
 1055 142 1193 218 1216 480 c 2
EndSplineSet
Colour: ffff00
EndChar

StartChar: A
Encoding: 65 65 264
Width: 1489
VWidth: 1819
Flags: HMW
LayerCount: 2
Fore
SplineSet
534 552 m 1
 955 552 l 1
 745 1112 l 1
 534 552 l 1
316 -47 m 1
 50 -47 l 1
 633 1459 l 1
 857 1459 l 1
 1439 -47 l 1
 1173 -47 l 1
 1030 358 l 1
 460 358 l 1
 316 -47 l 1
EndSplineSet
Colour: ffff00
EndChar

StartChar: B
Encoding: 66 66 265
Width: 1316
VWidth: 1819
Flags: HMW
LayerCount: 2
Fore
SplineSet
100 1459 m 1
 690 1459 l 2
 948 1459 1153 1268 1153 1024 c 0
 1153 909 1107 807 1033 732 c 1
 1146 652 1216 524 1216 381 c 0
 1216 135 1009 -47 753 -47 c 2
 100 -47 l 1
 100 1459 l 1
350 608 m 1
 350 162 l 1
 753 162 l 2
 870 162 966 239 966 381 c 0
 966 525 866 608 753 608 c 2
 350 608 l 1
690 804 m 2
 806 804 903 882 903 1024 c 0
 903 1167 804 1248 690 1248 c 2
 350 1248 l 1
 350 804 l 1
 690 804 l 2
EndSplineSet
Colour: ffff00
EndChar

StartChar: C
Encoding: 67 67 266
Width: 1338
VWidth: 1819
Flags: HMW
LayerCount: 2
Fore
SplineSet
756 1268 m 0
 456 1268 300 1037 300 706 c 0
 300 375 456 142 756 142 c 0
 893 142 977 189 1056 259 c 1
 1238 120 l 1
 1118 6 960 -67 756 -67 c 0
 274 -67 50 313 50 706 c 0
 50 1099 274 1479 756 1479 c 0
 957 1479 1119 1408 1238 1292 c 1
 1055 1153 l 1
 977 1224 894 1268 756 1268 c 0
EndSplineSet
Colour: ffff00
EndChar

StartChar: D
Encoding: 68 68 267
Width: 1322
VWidth: 1819
Flags: HMW
LayerCount: 2
Fore
SplineSet
565 1459 m 2
 1052 1459 1272 1105 1272 706 c 0
 1272 307 1052 -47 565 -47 c 2
 100 -47 l 1
 100 1459 l 1
 565 1459 l 2
565 1248 m 2
 350 1248 l 1
 350 162 l 1
 565 162 l 2
 873 162 1022 354 1022 706 c 0
 1022 1058 873 1248 565 1248 c 2
EndSplineSet
Colour: ffff00
EndChar

StartChar: E
Encoding: 69 69 268
Width: 1131
VWidth: 1819
Flags: HMW
LayerCount: 2
Fore
SplineSet
1031 162 m 1
 1031 -47 l 1
 100 -47 l 1
 100 1459 l 1
 1031 1459 l 1
 1031 1248 l 1
 350 1248 l 1
 350 804 l 1
 1031 804 l 1
 1031 608 l 1
 350 608 l 1
 350 162 l 1
 1031 162 l 1
EndSplineSet
Colour: ffff00
EndChar

StartChar: F
Encoding: 70 70 269
Width: 1131
VWidth: 1819
Flags: HMW
LayerCount: 2
Fore
SplineSet
350 -47 m 1
 100 -47 l 1
 100 1459 l 1
 1031 1459 l 1
 1031 1248 l 1
 350 1248 l 1
 350 804 l 1
 915 804 l 1
 915 608 l 1
 350 608 l 1
 350 -47 l 1
EndSplineSet
Colour: ffff00
EndChar

StartChar: G
Encoding: 71 71 270
Width: 1480
VWidth: 1819
Flags: HMW
LayerCount: 2
Fore
SplineSet
1315 1272 m 1
 1133 1133 l 1
 1064 1198 950 1268 806 1268 c 0
 506 1268 350 1037 350 706 c 0
 350 375 506 142 806 142 c 0
 1091 142 1130 260 1130 445 c 2
 1130 555 l 1
 753 554 l 1
 751 778 l 1
 1380 781 l 1
 1380 460 l 2
 1380 199 1233 -67 806 -67 c 0
 324 -67 100 313 100 706 c 0
 100 1099 324 1479 806 1479 c 0
 1004 1479 1197 1392 1315 1272 c 1
EndSplineSet
Colour: ffff00
EndChar

StartChar: H
Encoding: 72 72 271
Width: 1319
VWidth: 1819
Flags: HMW
LayerCount: 2
Fore
SplineSet
969 1459 m 1
 1219 1459 l 1
 1219 -47 l 1
 969 -47 l 1
 969 630 l 1
 350 630 l 1
 350 -47 l 1
 100 -47 l 1
 100 1459 l 1
 350 1459 l 1
 350 826 l 1
 969 826 l 1
 969 1459 l 1
EndSplineSet
Colour: ffff00
EndChar

StartChar: I
Encoding: 73 73 272
Width: 450
VWidth: 1819
Flags: HMW
LayerCount: 2
Fore
SplineSet
350 -47 m 1
 100 -47 l 1
 100 1459 l 1
 350 1459 l 1
 350 -47 l 1
EndSplineSet
Colour: ffff00
EndChar

StartChar: J
Encoding: 74 74 273
Width: 934
VWidth: 1819
Flags: HMW
LayerCount: 2
Fore
SplineSet
100 2 m 1
 233 193 l 1
 269 166 310 142 375 142 c 0
 503 142 584 189 584 380 c 2
 584 1459 l 1
 834 1459 l 1
 834 380 l 2
 834 77 619 -67 375 -67 c 0
 276 -67 182 -46 100 2 c 1
EndSplineSet
Colour: ffff00
EndChar

StartChar: K
Encoding: 75 75 274
Width: 1319
VWidth: 1819
Flags: HMW
LayerCount: 2
Fore
SplineSet
940 1459 m 1
 1269 1459 l 1
 608 733 l 1
 1262 -47 l 1
 944 -47 l 1
 442 558 l 1
 350 460 l 1
 350 -47 l 1
 100 -47 l 1
 100 1459 l 1
 350 1459 l 1
 350 808 l 1
 940 1459 l 1
EndSplineSet
Colour: ffff00
EndChar

StartChar: L
Encoding: 76 76 275
Width: 1131
VWidth: 1819
Flags: HMW
LayerCount: 2
Fore
SplineSet
1031 162 m 1
 1031 -47 l 1
 100 -47 l 1
 100 1459 l 1
 350 1459 l 1
 350 162 l 1
 1031 162 l 1
EndSplineSet
Colour: ffff00
EndChar

StartChar: M
Encoding: 77 77 276
Width: 1765
VWidth: 1819
Flags: HMW
LayerCount: 2
Fore
SplineSet
350 -47 m 1
 100 -47 l 1
 100 1459 l 1
 359 1459 l 1
 861 222 l 1
 1409 1459 l 1
 1665 1459 l 1
 1665 -47 l 1
 1415 -47 l 1
 1415 960 l 1
 975 -47 l 1
 736 -47 l 1
 350 922 l 1
 350 -47 l 1
EndSplineSet
Colour: ffff00
EndChar

StartChar: N
Encoding: 78 78 277
Width: 1366
VWidth: 1819
Flags: HMW
LayerCount: 2
Fore
SplineSet
1016 1459 m 1
 1266 1459 l 1
 1266 -47 l 1
 1020 -47 l 1
 350 1043 l 1
 350 -47 l 1
 100 -47 l 1
 100 1459 l 1
 346 1459 l 1
 1016 368 l 1
 1016 1459 l 1
EndSplineSet
Colour: ffff00
EndChar

StartChar: O
Encoding: 79 79 278
Width: 1512
VWidth: 1819
Flags: HMW
LayerCount: 2
Fore
SplineSet
756 1479 m 0
 1238 1479 1462 1099 1462 706 c 0
 1462 313 1238 -67 756 -67 c 0
 274 -67 50 313 50 706 c 0
 50 1099 274 1479 756 1479 c 0
756 1268 m 0
 456 1268 300 1037 300 706 c 0
 300 375 456 142 756 142 c 0
 1056 142 1212 375 1212 706 c 0
 1212 1037 1056 1268 756 1268 c 0
EndSplineSet
Colour: ffff00
EndChar

StartChar: P
Encoding: 80 80 279
Width: 1253
VWidth: 1819
Flags: HMW
LayerCount: 2
Fore
SplineSet
350 -47 m 1
 100 -47 l 1
 100 1459 l 1
 690 1459 l 2
 948 1459 1153 1268 1153 1024 c 0
 1153 779 946 593 690 593 c 2
 350 593 l 1
 350 -47 l 1
350 1248 m 1
 350 804 l 1
 690 804 l 2
 806 804 903 882 903 1024 c 0
 903 1167 804 1248 690 1248 c 2
 350 1248 l 1
EndSplineSet
Colour: ffff00
EndChar

StartChar: R
Encoding: 82 82 281
Width: 1253
VWidth: 1819
Flags: HMW
LayerCount: 2
Fore
SplineSet
100 1459 m 1
 690 1459 l 2
 948 1459 1153 1268 1153 1024 c 0
 1153 895 1096 783 1004 705 c 1
 1097 624 1153 509 1153 381 c 2
 1153 -47 l 1
 903 -47 l 1
 903 396 l 2
 903 525 803 608 690 608 c 2
 350 608 l 1
 350 -47 l 1
 100 -47 l 1
 100 1459 l 1
350 804 m 1
 690 804 l 2
 806 804 903 882 903 1024 c 0
 903 1167 804 1248 690 1248 c 2
 350 1248 l 1
 350 804 l 1
EndSplineSet
Colour: ffff00
EndChar

StartChar: S
Encoding: 83 83 282
Width: 1296
VWidth: 1819
Flags: HMW
LayerCount: 2
Fore
SplineSet
1166 1005 m 1
 916 1005 l 1
 916 1163 812 1268 635 1268 c 0
 477 1268 380 1187 380 1043 c 0
 380 943 474 861 694 804 c 0
 884 755 1196 652 1196 354 c 0
 1196 64 908 -67 662 -67 c 0
 387 -67 100 88 100 406 c 1
 350 406 l 1
 350 249 473 142 662 142 c 0
 831 142 946 225 946 369 c 0
 946 480 847 563 621 620 c 0
 436 667 130 769 130 1058 c 0
 130 1328 378 1479 635 1479 c 0
 921 1479 1166 1302 1166 1005 c 1
EndSplineSet
Colour: ffff00
EndChar

StartChar: T
Encoding: 84 84 283
Width: 1350
VWidth: 1819
Flags: HMW
LayerCount: 2
Fore
SplineSet
800 -47 m 1
 550 -47 l 1
 550 1248 l 1
 100 1248 l 1
 100 1459 l 1
 1250 1459 l 1
 1250 1248 l 1
 800 1248 l 1
 800 -47 l 1
EndSplineSet
Colour: ffff00
EndChar

StartChar: U
Encoding: 85 85 284
Width: 1326
VWidth: 1819
Flags: HMW
LayerCount: 2
Fore
SplineSet
976 1459 m 1
 1226 1459 l 1
 1226 458 l 2
 1226 147 970 -67 663 -67 c 0
 356 -67 100 147 100 458 c 2
 100 1459 l 1
 350 1459 l 1
 350 443 l 2
 350 251 490 142 663 142 c 0
 836 142 976 251 976 443 c 2
 976 1459 l 1
EndSplineSet
Colour: ffff00
EndChar

StartChar: V
Encoding: 86 86 285
Width: 1489
VWidth: 1819
Flags: HMW
LayerCount: 2
Fore
SplineSet
1173 1459 m 1
 1439 1459 l 1
 856 -47 l 1
 632 -47 l 1
 50 1459 l 1
 316 1459 l 1
 744 300 l 1
 1173 1459 l 1
EndSplineSet
Colour: ffff00
EndChar

StartChar: W
Encoding: 87 87 286
Width: 2064
VWidth: 1819
Flags: HMW
LayerCount: 2
Back
SplineSet
1756 1459 m 1
 2014 1459 l 1
 1586 -47 l 1
 1331 -47 l 1
 1032 1074 l 1
 732 -47 l 1
 477 -47 l 1
 50 1459 l 1
 308 1459 l 1
 605 338 l 1
 905 1459 l 1
 1159 1459 l 1
 1458 338 l 1
 1756 1459 l 1
EndSplineSet
Fore
SplineSet
1756 1459 m 1
 2014 1459 l 1
 1586 -47 l 1
 1331 -47 l 1
 1032 1124 l 1
 732 -47 l 1
 477 -47 l 1
 50 1459 l 1
 308 1459 l 1
 605 288 l 1
 905 1459 l 1
 1159 1459 l 1
 1458 288 l 1
 1756 1459 l 1
EndSplineSet
Colour: ffff00
EndChar

StartChar: X
Encoding: 88 88 287
Width: 1370
VWidth: 1819
Flags: HMW
LayerCount: 2
Fore
SplineSet
1320 -47 m 1
 1029 -47 l 1
 685 531 l 1
 341 -47 l 1
 50 -47 l 1
 539 705 l 1
 50 1459 l 1
 341 1459 l 1
 685 903 l 1
 1029 1459 l 1
 1320 1459 l 1
 831 705 l 1
 1320 -47 l 1
EndSplineSet
Colour: ffff00
EndChar

StartChar: Y
Encoding: 89 89 288
Width: 1367
VWidth: 1819
Flags: HMW
LayerCount: 2
Fore
SplineSet
1029 1459 m 1
 1317 1459 l 1
 809 641 l 1
 809 -47 l 1
 559 -47 l 1
 559 641 l 1
 50 1459 l 1
 339 1459 l 1
 684 854 l 1
 1029 1459 l 1
EndSplineSet
Colour: ffff00
EndChar

StartChar: Z
Encoding: 90 90 289
Width: 1350
VWidth: 1819
Flags: HMW
LayerCount: 2
Fore
SplineSet
100 1248 m 1
 100 1459 l 1
 1250 1459 l 1
 1250 1275 l 1
 385 162 l 1
 1250 162 l 1
 1250 -47 l 1
 100 -47 l 1
 100 136 l 1
 965 1248 l 1
 100 1248 l 1
EndSplineSet
Colour: ffff00
EndChar

StartChar: bracketleft
Encoding: 91 91 290
Width: 642
VWidth: 1819
Flags: HMW
LayerCount: 2
Fore
SplineSet
567 162 m 1
 567 -47 l 1
 95 -47 l 1
 95 1459 l 1
 567 1459 l 1
 567 1248 l 1
 345 1248 l 1
 345 162 l 1
 567 162 l 1
EndSplineSet
Colour: ffff00
EndChar

StartChar: backslash
Encoding: 92 92 291
Width: 1019
VWidth: 1819
Flags: HMW
LayerCount: 2
Fore
SplineSet
992 34 m 1
 769 -79 l 1
 27 1377 l 1
 250 1490 l 1
 992 34 l 1
EndSplineSet
Colour: ffff
EndChar

StartChar: bracketright
Encoding: 93 93 292
Width: 642
VWidth: 1819
Flags: HMW
LayerCount: 2
Fore
SplineSet
75 1248 m 1
 75 1459 l 1
 547 1459 l 1
 547 -47 l 1
 75 -47 l 1
 75 162 l 1
 297 162 l 1
 297 1248 l 1
 75 1248 l 1
EndSplineSet
Colour: ffff00
EndChar

StartChar: asciicircum
Encoding: 94 94 293
Width: 704
VWidth: 1819
Flags: HMW
LayerCount: 2
Fore
SplineSet
630 1173 m 1
 544 1105 l 1
 352 1348 l 1
 160 1105 l 1
 74 1173 l 1
 306 1466 l 1
 398 1466 l 1
 630 1173 l 1
EndSplineSet
Colour: ff00
EndChar

StartChar: underscore
Encoding: 95 95 294
Width: 666
VWidth: 1819
Flags: HMW
LayerCount: 2
Fore
SplineSet
691 200 m 1
 691 -50 l 1
 -25 -50 l 1
 -25 200 l 1
 691 200 l 1
EndSplineSet
Colour: ffff
EndChar

StartChar: grave
Encoding: 96 96 295
Width: 524
VWidth: 1819
Flags: HMW
LayerCount: 2
Fore
SplineSet
410 1192 m 1
 317 1133 l 1
 114 1458 l 1
 207 1517 l 1
 410 1192 l 1
EndSplineSet
Colour: ff00
EndChar

StartChar: a
Encoding: 97 97 296
Width: 1125
VWidth: 1819
Flags: HMW
LayerCount: 2
Fore
SplineSet
368 746 m 1
 118 746 l 1
 118 990 336 1111 550 1111 c 0
 747 1111 984 996 984 751 c 2
 984 322 l 2
 984 174.333317735 1003.7421875 31.9580078125 1025 -47 c 1
 783 -47 l 1
 753.037109375 51.4501953125 734 163.048252648 734 322 c 2
 734 751 l 2
 734 837 663 900 550 900 c 0
 421 900 368 832 368 746 c 1
EndSplineSet
Refer: 430 57355 N 1 0 0 1 23 0 2
Colour: ffff00
EndChar

StartChar: b
Encoding: 98 98 297
Width: 1208
VWidth: 1819
Flags: HMW
LayerCount: 2
Fore
SplineSet
350 -47 m 1
 100 -47 l 1
 100 1459 l 1
 350 1459 l 1
 350 -47 l 1
EndSplineSet
Refer: 434 57359 N 1 0 0 1 5 0 2
Colour: ffff00
EndChar

StartChar: c
Encoding: 99 99 298
Width: 1124
VWidth: 1819
Flags: HMW
LayerCount: 2
Fore
SplineSet
798 303 m 1
 1024 207 l 1
 942 48 796 -67 569 -67 c 0
 203 -67 50 247 50 521 c 0
 50 795 202 1111 569 1111 c 0
 794 1111 944 995 1024 838 c 1
 798 742 l 1
 753 833 691 900 569 900 c 0
 399 900 300 743 300 521 c 0
 300 299 398 142 569 142 c 0
 693 142 751 210 798 303 c 1
EndSplineSet
Colour: ffff00
EndChar

StartChar: d
Encoding: 100 100 299
Width: 1208
VWidth: 1819
Flags: HMW
LayerCount: 2
Fore
SplineSet
1108 -47 m 1
 858 -47 l 1
 858 1459 l 1
 1108 1459 l 1
 1108 -47 l 1
EndSplineSet
Refer: 434 57359 N -1 0 0 -1 1203 1043 2
Colour: ffff00
EndChar

StartChar: e
Encoding: 101 101 300
Width: 1145
VWidth: 1819
Flags: HMW
LayerCount: 2
Fore
SplineSet
311 429 m 1
 340 228 468 141 639 141 c 0
 731 141 835 166 944 212 c 1
 1037 44 l 1
 890 -27 764 -67 595 -67 c 0
 258 -67 50 197 50 521 c 0
 50 795 202 1111 569 1111 c 0
 933 1111 1095 797 1095 521 c 2
 1095 429 l 1
 311 429 l 1
311 613 m 1
 833 613 l 1
 800 785 713 900 569 900 c 0
 426 900 342 786 311 613 c 1
EndSplineSet
Colour: ffff00
EndChar

StartChar: f
Encoding: 102 102 301
Width: 823
VWidth: 1819
Flags: HMW
LayerCount: 2
Fore
SplineSet
511 1469 m 1
 597 1469 670 1437 723 1386 c 1
 723 1243 l 1
 519 1243 l 2
 480 1243 460 1216 460 1181 c 2
 460 -47 l 1
 210 -47 l 1
 210 1181 l 2
 210 1331 334 1469 511 1469 c 1
EndSplineSet
Refer: 429 57354 N 1.04072 0 0 1 -13.4609 410 2
Colour: ffff00
EndChar

StartChar: g
Encoding: 103 103 302
Width: 1258
VWidth: 1819
Flags: HMW
LayerCount: 2
Fore
SplineSet
908 1091 m 1
 1158 1091 l 1
 1158 62 l 2
 1158 -325 899 -487 611 -487 c 0
 451 -487 282 -438 143 -349 c 1
 228 -170 l 1
 323 -229 459 -270 585 -270 c 0
 757 -270 908 -194 908 12 c 2
 908 1091 l 1
EndSplineSet
Refer: 434 57359 N -1 0 0 -1 1253 1043 2
Colour: ffff00
EndChar

StartChar: h
Encoding: 104 104 303
Width: 1138
VWidth: 1819
Flags: HMW
LayerCount: 2
Fore
SplineSet
350 -47 m 1
 100 -47 l 1
 100 1459 l 1
 350 1459 l 1
 350 -47 l 1
EndSplineSet
Refer: 432 57357 N 1 0 0 1 25 0 2
Colour: ffff00
EndChar

StartChar: k
Encoding: 107 107 306
Width: 1115
VWidth: 1819
Flags: HMW
LayerCount: 2
Fore
SplineSet
744 1068 m 1
 1065 1068 l 1
 568 520 l 1
 1029 -47 l 1
 715 -47 l 1
 405 341 l 1
 350 279 l 1
 350 -47 l 1
 100 -47 l 1
 100 1459 l 1
 350 1459 l 1
 350 636 l 1
 744 1068 l 1
EndSplineSet
Colour: ffff00
EndChar

StartChar: l
Encoding: 108 108 307
Width: 450
VWidth: 1819
Flags: HMW
LayerCount: 2
Fore
SplineSet
350 -47 m 1
 100 -47 l 1
 100 1459 l 1
 350 1459 l 1
 350 -47 l 1
EndSplineSet
Colour: ffff00
EndChar

StartChar: m
Encoding: 109 109 308
Width: 1626
VWidth: 1819
Flags: HMW
LayerCount: 2
Fore
SplineSet
100 1091 m 1
 350 1091 l 1
 350 -47 l 1
 100 -47 l 1
 100 1091 l 1
EndSplineSet
Refer: 431 57356 N 1 0 0 1 -543 0 2
Refer: 431 57356 N 1 0 0 1 45 0 2
Colour: ffff00
EndChar

StartChar: n
Encoding: 110 110 309
Width: 1138
VWidth: 1819
Flags: HMW
LayerCount: 2
Fore
SplineSet
350 -47 m 1
 100 -47 l 1
 100 1091 l 1
 350 1091 l 1
 350 -47 l 1
EndSplineSet
Refer: 432 57357 N 1 0 0 1 25 0 2
Colour: ffff00
EndChar

StartChar: o
Encoding: 111 111 310
Width: 1138
VWidth: 1819
Flags: HMW
LayerCount: 2
Fore
SplineSet
569 900 m 0
 399 900 300 743 300 521 c 0
 300 299 398 142 569 142 c 0
 740 142 838 299 838 521 c 0
 838 743 739 900 569 900 c 0
569 1111 m 0
 936 1111 1088 795 1088 521 c 0
 1088 247 935 -67 569 -67 c 0
 203 -67 50 247 50 521 c 0
 50 795 202 1111 569 1111 c 0
EndSplineSet
Colour: ffff00
EndChar

StartChar: p
Encoding: 112 112 311
Width: 1208
VWidth: 1819
Flags: HMW
LayerCount: 2
Fore
SplineSet
100 1091 m 1
 350 1091 l 1
 350 -467 l 1
 100 -467 l 1
 100 1091 l 1
EndSplineSet
Refer: 434 57359 N 1 0 0 1 5 0 2
Colour: ffff00
EndChar

StartChar: q
Encoding: 113 113 312
Width: 1208
VWidth: 1819
Flags: HMW
LayerCount: 2
Fore
SplineSet
858 1091 m 1
 1108 1091 l 1
 1108 -467 l 1
 858 -467 l 1
 858 1091 l 1
EndSplineSet
Refer: 434 57359 N -1 0 0 -1 1203 1043 2
Colour: ffff00
EndChar

StartChar: r
Encoding: 114 114 313
Width: 804
VWidth: 1819
Flags: HMW
LayerCount: 2
Fore
SplineSet
100 1091 m 1
 350 1091 l 1
 350 -47 l 1
 100 -47 l 1
 100 1091 l 1
EndSplineSet
Refer: 433 57358 N 1 0 0 1 25 0 2
Colour: ffff00
EndChar

StartChar: s
Encoding: 115 115 314
Width: 1109
VWidth: 1819
Flags: HMW
LayerCount: 2
Fore
SplineSet
992 729 m 1
 742 729 l 1
 742 841 684 900 554 900 c 0
 420 900 365 845 365 777 c 0
 365 708 398 652 569 632 c 0
 713.018302243 615.155754124 1009 557 1009 302 c 0
 1009 36 763 -67 554 -67 c 0
 328 -67 100 42 100 327 c 1
 350 327 l 1
 350 207 418 142 554 142 c 0
 693 142 759 203 759 289 c 0
 759 371 712 428 535 448 c 0
 401.015685872 463.139470523 115 516 115 754 c 0
 115 1012 353 1111 554 1111 c 0
 773 1111 992 1006 992 729 c 1
EndSplineSet
Colour: ffff00
EndChar

StartChar: t
Encoding: 116 116 315
Width: 864
VWidth: 1819
Flags: HMW
LayerCount: 2
Fore
SplineSet
260 230 m 2
 260 1354 l 1
 510 1354 l 1
 510 230 l 2
 510 195 530 168 569 168 c 2
 773 168 l 1
 773 25 l 1
 720 -26 647 -58 561 -58 c 1
 384 -58 260 80 260 230 c 2
EndSplineSet
Refer: 429 57354 N 1.13844 0 0 1 -21.7668 410 2
Colour: ffff00
EndChar

StartChar: u
Encoding: 117 117 316
Width: 1138
VWidth: 1819
Flags: HMW
LayerCount: 2
Fore
SplineSet
788 1091 m 1
 1038 1091 l 1
 1038 -47 l 1
 788 -47 l 1
 788 1091 l 1
EndSplineSet
Refer: 432 57357 N -1 0 0 -1 1113 1044 2
Colour: ffff00
EndChar

StartChar: v
Encoding: 118 118 317
Width: 1209
VWidth: 1819
Flags: HMW
LayerCount: 2
Fore
SplineSet
894 1091 m 1
 1159 1091 l 1
 726 -47 l 1
 485 -47 l 1
 50 1091 l 1
 315 1091 l 1
 605 276 l 1
 894 1091 l 1
EndSplineSet
Colour: ffff00
EndChar

StartChar: w
Encoding: 119 119 318
Width: 1609
VWidth: 1819
Flags: HMW
LayerCount: 2
Back
SplineSet
1300 1091 m 1
 1559 1091 l 1
 1235 -47 l 1
 994 -47 l 1
 805 693 l 1
 616 -47 l 1
 375 -47 l 1
 50 1091 l 1
 309 1091 l 1
 495 370 l 1
 677 1091 l 1
 932 1091 l 1
 1115 370 l 1
 1300 1091 l 1
EndSplineSet
Fore
SplineSet
1300 1091 m 1
 1559 1091 l 1
 1235 -47 l 1
 994 -47 l 1
 805 743 l 1
 616 -47 l 1
 375 -47 l 1
 50 1091 l 1
 309 1091 l 1
 495 320 l 1
 677 1091 l 1
 932 1091 l 1
 1115 320 l 1
 1300 1091 l 1
EndSplineSet
Colour: ffff00
EndChar

StartChar: x
Encoding: 120 120 319
Width: 1327
VWidth: 1819
Flags: HMW
LayerCount: 2
Fore
SplineSet
966 1091 m 1
 1277 1091 l 1
 818 506 l 1
 1252 -47 l 1
 941 -47 l 1
 664 358 l 1
 386 -47 l 1
 74 -47 l 1
 509 506 l 1
 50 1091 l 1
 361 1091 l 1
 664 655 l 1
 966 1091 l 1
EndSplineSet
Colour: ffff00
EndChar

StartChar: y
Encoding: 121 121 320
Width: 1209
VWidth: 1819
Flags: HMW
LayerCount: 2
Fore
SplineSet
893 1091 m 1
 1159 1091 l 1
 750 28 l 2
 668 -184 558 -467 221 -467 c 2
 142 -467 l 1
 142 -241 l 1
 221 -241 l 2
 340 -241 401 -169 475 5 c 1
 50 1091 l 1
 316 1091 l 1
 607 298 l 1
 893 1091 l 1
EndSplineSet
Colour: ffff00
EndChar

StartChar: z
Encoding: 122 122 321
Width: 1071
VWidth: 1819
Flags: HMW
LayerCount: 2
Fore
SplineSet
100 880 m 1
 100 1091 l 1
 971 1091 l 1
 971 908 l 1
 390 162 l 1
 971 162 l 1
 971 -47 l 1
 100 -47 l 1
 100 136 l 1
 680 880 l 1
 100 880 l 1
EndSplineSet
Colour: ffff00
EndChar

StartChar: bar
Encoding: 124 124 322
Width: 440
VWidth: 1819
Flags: HMW
LayerCount: 2
Fore
SplineSet
95 1459 m 1
 345 1459 l 1
 345 -467 l 1
 95 -467 l 1
 95 1459 l 1
EndSplineSet
Colour: ffff
EndChar

StartChar: asciitilde
Encoding: 126 126 323
Width: 868
VWidth: 1819
Flags: HMW
LayerCount: 2
Fore
SplineSet
581 1239 m 0
 606 1239 662 1266 706 1369 c 1
 808 1325 l 1
 754 1199 668 1129 581 1129 c 0
 514 1129 458 1154 401 1198 c 0
 349 1237 330 1244 288 1244 c 0
 259 1244 206 1222 163 1120 c 1
 61 1164 l 1
 116 1293 204 1354 288 1354 c 0
 354 1354 407 1331 467 1286 c 0
 518 1248 540 1239 581 1239 c 0
EndSplineSet
Colour: ff00
EndChar

StartChar: cent
Encoding: 162 162 325
Width: 1124
VWidth: 1819
Flags: HMW
LayerCount: 2
Fore
SplineSet
694 -411 m 1
 444 -411 l 1
 444 90 l 1
 694 90 l 1
 694 -411 l 1
694 953 m 1
 444 953 l 1
 444 1459 l 1
 694 1459 l 1
 694 953 l 1
EndSplineSet
Refer: 298 99 N 1 0 0 1 0 0 2
Colour: ffff00
EndChar

StartChar: sterling
Encoding: 163 163 326
Width: 1254
VWidth: 1819
Flags: HMW
LayerCount: 2
Fore
SplineSet
594 1248 m 0
 543 1248 482 1188 482 1108 c 2
 482 267 l 2
 482 232 478 196 468 162 c 1
 1159 162 l 1
 1159 -47 l 1
 95 -47 l 1
 95 162 l 1
 120 162 l 2
 162 162 183 170 196 177 c 0
 214 187 232 206 232 267 c 2
 232 1108 l 2
 232 1292 381 1459 594 1459 c 0
 795 1459 928 1319 956 1146 c 1
 709 1111 l 1
 693 1183 656 1248 594 1248 c 0
EndSplineSet
Refer: 429 57354 N 1 0 0 1 20 0 2
Colour: ffff00
EndChar

StartChar: currency
Encoding: 164 164 327
Width: 1357
VWidth: 1819
Flags: HMW
LayerCount: 2
Fore
SplineSet
843 129 m 1
 1043 263 l 1
 1307 -38 l 1
 1107 -172 l 1
 843 129 l 1
1043 778 m 1
 843 912 l 1
 1107 1213 l 1
 1307 1079 l 1
 1043 778 l 1
314 263 m 1
 514 129 l 1
 250 -172 l 1
 50 -38 l 1
 314 263 l 1
514 912 m 1
 314 778 l 1
 50 1079 l 1
 250 1213 l 1
 514 912 l 1
EndSplineSet
Refer: 310 111 N 1 0 0 1 109.5 0 2
Colour: ffff00
EndChar

StartChar: brokenbar
Encoding: 166 166 329
Width: 440
VWidth: 1819
Flags: HMW
LayerCount: 2
Fore
SplineSet
345 -47 m 1
 95 -47 l 1
 95 544 l 1
 345 544 l 1
 345 -47 l 1
345 850 m 1
 95 850 l 1
 95 1459 l 1
 345 1459 l 1
 345 850 l 1
EndSplineSet
Colour: ffff
EndChar

StartChar: section
Encoding: 167 167 330
Width: 952
VWidth: 1819
Flags: HMW
LayerCount: 2
Fore
SplineSet
466 829 m 1
 347 826 275 778 275 682 c 0
 275 624 307 606 485 581 c 1
 611 583 677 625 677 718 c 0
 677 784 641 803 466 829 c 1
27 301 m 1
 277 301 l 1
 277 183 332 135 476 135 c 0
 604 135 677 180 677 276 c 0
 677 301 643 331 457 357 c 0
 309 377 25 419 25 682 c 0
 25 788 68 872 132 932 c 1
 69 976 25 1042 25 1136 c 0
 25 1399 278 1501 476 1501 c 0
 691 1501 926 1393 926 1111 c 1
 676 1111 l 1
 676 1228 621 1277 476 1277 c 0
 348 1277 275 1232 275 1136 c 0
 275 1111 311 1081 497 1053 c 0
 649 1031 927 982 927 718 c 0
 927 614 886 532 825 476 c 1
 885 432 927 367 927 276 c 0
 927 13 674 -91 476 -91 c 0
 260 -91 27 20 27 301 c 1
EndSplineSet
Colour: ffff00
EndChar

StartChar: copyright
Encoding: 169 169 332
Width: 1670
VWidth: 1819
Flags: HMW
LayerCount: 2
Fore
SplineSet
1020 564 m 1
 1182 462 l 1
 1099 361 970 302 835 302 c 0
 571 302 395 510 395 729 c 0
 395 948 570 1158 835 1158 c 0
 970 1158 1099 1098 1182 997 c 1
 1020 895 l 1
 973 952 902 982 835 982 c 0
 708 982 595 876 595 729 c 0
 595 582 707 476 835 476 c 0
 902 476 973 507 1020 564 c 1
25 728 m 0
 25 1159 377 1523 835 1523 c 0
 1293 1523 1645 1159 1645 728 c 0
 1645 298 1293 -69 835 -69 c 0
 377 -69 25 298 25 728 c 0
275 728 m 0
 275 402 537 157 835 157 c 0
 1133 157 1395 402 1395 728 c 0
 1395 1053 1133 1299 835 1299 c 0
 537 1299 275 1053 275 728 c 0
EndSplineSet
Colour: ffff00
EndChar

StartChar: ordfeminine
Encoding: 170 170 333
Width: 747
VWidth: 1819
Flags: HMW
LayerCount: 2
Fore
SplineSet
485 1062 m 1
 485 1144 l 1
 457 1148 438 1148 411 1148 c 0
 261 1148 205 1106 205 1031 c 0
 205 987 233 949 310 949 c 0
 396 949 452 984 485 1062 c 1
595 1052 m 2
 595 966 618 947 635 933 c 1
 567 847 l 1
 546 864 526 884 512 914 c 1
 458 865 390 839 310 839 c 0
 187 839 95 919 95 1031 c 0
 95 1200 251 1258 411 1258 c 0
 437 1258 462 1257 485 1254 c 1
 485 1307 l 2
 485 1368 436 1400 350 1400 c 0
 262 1400 218 1368 218 1302 c 1
 108 1302 l 1
 108 1456 240 1510 350 1510 c 0
 456 1510 595 1458 595 1307 c 2
 595 1052 l 2
EndSplineSet
Colour: ff00
EndChar

StartChar: logicalnot
Encoding: 172 172 334
Width: 1073
VWidth: 1819
Flags: HMW
LayerCount: 2
Fore
SplineSet
75 397 m 1
 75 623 l 1
 978 623 l 1
 978 213 l 1
 728 213 l 1
 728 397 l 1
 75 397 l 1
EndSplineSet
Colour: ffff00
EndChar

StartChar: registered
Encoding: 174 174 336
Width: 1670
VWidth: 1819
Flags: HMW
LayerCount: 2
Fore
SplineSet
720 722 m 1
 866 722 l 2
 953 722 1017 772 1017 854 c 0
 1017 937 953 988 866 988 c 2
 720 988 l 1
 720 722 l 1
1185 396 m 1
 1023 294 l 1
 815 548 l 1
 720 548 l 1
 720 345 l 1
 520 345 l 1
 520 1162 l 1
 866 1162 l 2
 1057 1162 1217 1033 1217 854 c 0
 1217 730 1140 632 1032 583 c 1
 1185 396 l 1
275 728 m 0
 275 402 537 157 835 157 c 0
 1133 157 1395 402 1395 728 c 0
 1395 1053 1133 1299 835 1299 c 0
 521 1299 275 1038 275 728 c 0
25 728 m 0
 25 1159 377 1523 835 1523 c 0
 1293 1523 1645 1159 1645 728 c 0
 1645 298 1293 -69 835 -69 c 0
 377 -69 25 298 25 728 c 0
EndSplineSet
Colour: ffff00
EndChar

StartChar: degree
Encoding: 176 176 338
Width: 646
VWidth: 1819
Flags: HMW
LayerCount: 2
Fore
SplineSet
570 1428 m 0
 570 1291 460 1181 323 1181 c 0
 186 1181 76 1291 76 1428 c 0
 76 1565 186 1675 323 1675 c 0
 460 1675 570 1565 570 1428 c 0
460 1428 m 0
 460 1505 400 1565 323 1565 c 0
 246 1565 186 1505 186 1428 c 0
 186 1351 246 1291 323 1291 c 0
 400 1291 460 1351 460 1428 c 0
EndSplineSet
Colour: ff00
EndChar

StartChar: uni00B2
Encoding: 178 178 340
Width: 658
VWidth: 1819
Flags: HMW
LayerCount: 2
Fore
SplineSet
95 1298 m 1
 98 1439 202 1510 309 1510 c 0
 410 1510 523 1443 523 1303 c 0
 523 1225 489 1172 451 1140 c 2
 256 974 l 1
 513 974 l 1
 513 864 l 1
 95 864 l 1
 95 972 l 1
 374 1217 l 0
 402 1242 413 1259 413 1303 c 0
 413 1370 368 1400 309 1400 c 0
 245 1400 207 1368 205 1298 c 1
 95 1298 l 1
EndSplineSet
Colour: ff00
EndChar

StartChar: uni00B3
Encoding: 179 179 341
Width: 606
VWidth: 1819
Flags: HMW
LayerCount: 2
Fore
SplineSet
205 1316 m 1
 95 1316 l 1
 95 1431 192 1510 303 1510 c 0
 411 1510 511 1432 511 1321 c 0
 511 1267 486 1220 450 1187 c 1
 486 1154 511 1106 511 1053 c 0
 511 942 411 864 303 864 c 0
 192 864 95 943 95 1058 c 1
 205 1058 l 1
 205 1015 240 974 303 974 c 0
 363 974 401 1014 401 1053 c 0
 401 1092 363 1132 303 1132 c 2
 237 1132 l 1
 237 1242 l 1
 303 1242 l 2
 363 1242 401 1282 401 1321 c 0
 401 1360 363 1400 303 1400 c 0
 240 1400 205 1359 205 1316 c 1
EndSplineSet
Colour: ff00
EndChar

StartChar: acute
Encoding: 180 180 342
Width: 517
VWidth: 1819
Flags: HMW
LayerCount: 2
Fore
SplineSet
313 1516 m 1
 406 1459 l 1
 204 1134 l 1
 111 1191 l 1
 313 1516 l 1
EndSplineSet
Colour: ff00
EndChar

StartChar: mu
Encoding: 181 181 343
Width: 1118
VWidth: 1819
Flags: HMW
LayerCount: 2
Fore
SplineSet
768 1091 m 1
 1018 1091 l 1
 1018 -47 l 1
 768 -47 l 1
 768 57 l 1
 686 -10 583 -48 469 -48 c 0
 424 -48 384 -43 350 -34 c 1
 350 -834 l 1
 100 -834 l 1
 100 1091 l 1
 350 1091 l 1
 350 366 l 0
 350 256 383 178 509 178 c 0
 670 178 768 265 768 420 c 0
 768 1091 l 1
EndSplineSet
EndChar

StartChar: paragraph
Encoding: 182 182 344
Width: 1316
VWidth: 1819
Flags: HMW
LayerCount: 2
Fore
SplineSet
708 1248 m 1
 591 1248 l 2
 476 1248 350 1149 350 951 c 0
 350 753 476 654 591 654 c 2
 708 654 l 1
 708 1248 l 1
1216 -467 m 1
 996 -467 l 1
 996 1248 l 1
 928 1248 l 1
 928 -467 l 1
 708 -467 l 1
 708 445 l 1
 591 445 l 2
 306 445 100 674 100 951 c 0
 100 1227 306 1459 591 1459 c 2
 1216 1459 l 1
 1216 -467 l 1
EndSplineSet
Colour: ffff00
EndChar

StartChar: cedilla
Encoding: 184 184 346
Width: 723
VWidth: 1819
Flags: HW
LayerCount: 2
Fore
SplineSet
164 -342 m 1
 205 -385 266 -404 342 -404 c 0
 436 -404 505 -359 505 -318 c 0
 505 -232 409 -111 314 -38 c 1
 376 54 l 1
 505 -39 605 -171 605 -318 c 0
 605 -467 454 -514 342 -514 c 0
 243 -514 162 -484 98 -413 c 1
 164 -342 l 1
EndSplineSet
Colour: ffff00
EndChar

StartChar: uni00B9
Encoding: 185 185 347
Width: 457
VWidth: 1819
Flags: HMW
LayerCount: 2
Fore
SplineSet
84 1258 m 1
 84 1368 l 1
 224 1368 l 1
 225 1460 l 1
 335 1460 l 1
 335 824 l 1
 225 824 l 1
 225 1258 l 1
 84 1258 l 1
EndSplineSet
Colour: ff00
EndChar

StartChar: onequarter
Encoding: 188 188 349
Width: 1965
VWidth: 1819
Flags: HMW
LayerCount: 2
Fore
SplineSet
125 1204 m 1
 125 1398 l 1
 219 1398 l 2
 346 1398 346 1405 346 1575 c 2
 346 1615 l 1
 596 1615 l 1
 596 505 l 1
 346 505 l 1
 346 1220 l 1
 294 1208 241 1204 182 1204 c 0
 163 1204 144 1204 125 1204 c 1
1840 34 m 1
 1840 -162 l 1
 1744 -162 l 1
 1744 -383 l 1
 1494 -383 l 1
 1494 -162 l 1
 980 -162 l 1
 980 -13 l 1
 1509 813 l 1
 1744 813 l 1
 1744 34 l 1
 1840 34 l 1
1494 34 m 1
 1494 431 l 1
 1238 34 l 1
 1494 34 l 1
657 -37 m 1
 447 84 l 1
 1507 1492 l 1
 1717 1371 l 1
 657 -37 l 1
EndSplineSet
Colour: ffff00
EndChar

StartChar: onehalf
Encoding: 189 189 350
Width: 2096
VWidth: 1819
Flags: HMW
LayerCount: 2
Fore
SplineSet
2031 -220 m 1
 2031 -431 l 1
 1194 -431 l 1
 1194 -251 l 1
 1705 247 l 2
 1763 304 1789 371 1789 433 c 0
 1789 529 1727 610 1627 610 c 0
 1513 610 1445 557 1445 408 c 1
 1195 408 l 1
 1195 681 1385 819 1612 819 c 0
 1822 819 2031 675 2031 418 c 0
 2031 264 1961 163 1885 91 c 2
 1572 -220 l 1
 2031 -220 l 1
654 -37 m 1
 444 85 l 1
 1505 1492 l 1
 1715 1370 l 1
 654 -37 l 1
125 1204 m 1
 125 1398 l 1
 219 1398 l 2
 346 1398 346 1405 346 1575 c 2
 346 1615 l 1
 596 1615 l 1
 596 505 l 1
 346 505 l 1
 346 1220 l 1
 294 1208 241 1204 182 1204 c 0
 163 1204 144 1204 125 1204 c 1
EndSplineSet
Colour: ffff00
EndChar

StartChar: threequarters
Encoding: 190 190 351
Width: 2140
VWidth: 2047
Flags: HMW
LayerCount: 2
Fore
SplineSet
2015 34 m 1
 2015 -162 l 1
 1919 -162 l 1
 1919 -383 l 1
 1669 -383 l 1
 1669 -162 l 1
 1155 -162 l 1
 1155 -13 l 1
 1684 813 l 1
 1919 813 l 1
 1919 34 l 1
 2015 34 l 1
1669 34 m 1
 1669 431 l 1
 1413 34 l 1
 1669 34 l 1
426 944 m 2
 315 944 l 1
 315 1140 l 1
 426 1140 l 2
 560 1140 610 1183 610 1303 c 0
 610 1375 537 1458 443 1458 c 0
 344 1458 275 1404 275 1255 c 1
 25 1255 l 1
 25 1528 216 1667 443 1667 c 0
 667 1667 860 1509 860 1303 c 0
 860 1199 826 1108 758 1042 c 1
 826 975 860 885 860 782 c 0
 860 576 667 417 443 417 c 0
 216 417 25 556 25 829 c 1
 275 829 l 1
 275 680 344 628 443 628 c 0
 537 628 610 710 610 782 c 0
 610 901 561 944 426 944 c 2
832 -37 m 1
 622 85 l 1
 1683 1492 l 1
 1893 1370 l 1
 832 -37 l 1
EndSplineSet
Colour: ffff00
EndChar

StartChar: AE
Encoding: 198 198 359
Width: 1958
VWidth: 1819
Flags: HMW
LayerCount: 2
Fore
SplineSet
874 1105 m 1
 588 518 l 1
 874 518 l 1
 874 1105 l 1
1858 162 m 1
 1858 -47 l 1
 874 -47 l 1
 874 322 l 1
 493 322 l 1
 324 -47 l 1
 50 -47 l 1
 773 1459 l 1
 1858 1459 l 1
 1858 1248 l 1
 1124 1248 l 1
 1124 790 l 1
 1858 790 l 1
 1858 596 l 1
 1124 596 l 1
 1124 162 l 1
 1858 162 l 1
EndSplineSet
Colour: ffff00
EndChar

StartChar: Thorn
Encoding: 222 222 383
Width: 1129
VWidth: 1819
Flags: HMW
LayerCount: 2
Fore
SplineSet
350 468 m 1
 562 468 l 2
 725 468 829 549 829 707 c 0
 829 865 725 946 562 946 c 2
 350 946 l 1
 350 468 l 1
350 -47 m 1
 100 -47 l 1
 100 1459 l 1
 350 1459 l 1
 350 1140 l 1
 562 1140 l 2
 822 1140 1079 1006 1079 707 c 0
 1079 408 822 274 562 274 c 2
 350 274 l 1
 350 -47 l 1
EndSplineSet
Colour: ffff00
EndChar

StartChar: germandbls
Encoding: 223 223 384
Width: 1199
VWidth: 1819
Flags: HMW
LayerCount: 2
Fore
SplineSet
517 -47 m 1
 517 177 l 1
 814 177 849 185 849 251 c 0
 849 309 818 343 746 394 c 0
 674 445 554 531 554 690 c 0
 554 805 605 866 649 918 c 0
 683.821020207 959.15211479 715 996 715 1052 c 0
 715 1189 655 1268 532 1268 c 0
 404 1268 350 1191 350 1052 c 2
 350 -47 l 1
 100 -47 l 1
 100 1052 l 2
 100 1263 235 1479 532 1479 c 0
 822 1479 965 1266 965 1052 c 0
 965 953 912.552610678 888.533058222 866 834 c 0
 831 793 799 755 799 711 c 0
 799 663 843 612 901 570 c 0
 982 512 1099 415 1099 251 c 0
 1099 -40 785 -47 517 -47 c 1
EndSplineSet
Colour: ffff00
EndChar

StartChar: ae
Encoding: 230 230 391
Width: 1779
VWidth: 1819
Flags: HMW
LayerCount: 2
Fore
SplineSet
684 376 m 2
 684 477 l 1
 658 480 609 481 608 481 c 0
 436 481 288 407 288 275 c 0
 288 212 330 140 440 140 c 0
 554 140 684 252 684 376 c 2
318 726 m 1
 68 726 l 1
 68 970 258 1111 500 1111 c 0
 662 1111 760 1047 847 955 c 1
 930 1038 1047 1111 1203 1111 c 0
 1567 1111 1729 797 1729 521 c 2
 1729 429 l 1
 945 429 l 1
 968 223 1105 138 1274 138 c 0
 1371 138 1479 166 1582 215 c 1
 1671 44 l 1
 1524 -27 1367 -67 1229 -67 c 0
 1023 -67 866 44 774 188 c 1
 700 32 536 -67 376 -67 c 0
 176 -67 50 71 50 270 c 0
 50 567 363 627 608 627 c 0
 634 627 659 626 684 624 c 1
 684 731 l 2
 684 817 613 900 500 900 c 0
 371 900 318 812 318 726 c 1
945 613 m 1
 1467 613 l 1
 1434 785 1347 900 1203 900 c 0
 1060 900 976 786 945 613 c 1
EndSplineSet
EndChar

StartChar: eth
Encoding: 240 240 401
Width: 1138
VWidth: 1819
Flags: HMW
LayerCount: 2
Fore
SplineSet
282 1411 m 0
 648 1343 954 837 962 555 c 1024
380 1099 m 1
 765 1411 l 1025
EndSplineSet
Refer: 310 111 N 1 0 0 1 0 0 2
EndChar

StartChar: dotlessi
Encoding: 305 305 417
Width: 450
VWidth: 1819
Flags: HMW
LayerCount: 2
Fore
SplineSet
100 1091 m 1
 350 1091 l 1
 350 -47 l 1
 100 -47 l 1
 100 1091 l 1
EndSplineSet
Colour: ffff00
EndChar

StartChar: OE
Encoding: 338 338 418
Width: 1685
VWidth: 1819
Flags: HMW
LayerCount: 2
Fore
SplineSet
1585 1459 m 1
 1585 1248 l 1
 904 1248 l 1
 904 804 l 1
 1585 804 l 1
 1585 608 l 1
 904 608 l 1
 904 162 l 1
 1585 162 l 1
 1585 -47 l 1
 756 -47 l 2
 274 -47 50 313 50 706 c 0
 50 1099 274 1459 756 1459 c 2
 1585 1459 l 1
654 186 m 1
 654 1225 l 1
 421 1184 300 998 300 706 c 0
 300 413 423 228 654 186 c 1
EndSplineSet
Colour: ffff00
EndChar

StartChar: uniE003
Encoding: 57347 57347 420
Width: 1762
VWidth: 1819
Flags: HMW
LayerCount: 2
Fore
SplineSet
1560 1486 m 1
 1685 1357 l 1
 202 -75 l 1
 77 54 l 1
 1560 1486 l 1
EndSplineSet
Colour: ff00ff
EndChar

StartChar: uniE004
Encoding: 57348 57348 421
Width: 1088
VWidth: 1819
Flags: HMW
LayerCount: 2
Fore
SplineSet
212 -67 m 1
 70 43 l 1
 876 1080 l 1
 1018 970 l 1
 212 -67 l 1
EndSplineSet
Colour: ff00ff
EndChar

StartChar: uniE005
Encoding: 57349 57349 423
Width: 1462
VWidth: 1819
Flags: HMW
LayerCount: 2
Fore
SplineSet
1390 17 m 1
 1253 -98 l 1
 765 485 l 1
 902 600 l 1
 1390 17 l 1
EndSplineSet
Colour: ff00ff
EndChar

StartChar: uniE006
Encoding: 57350 57350 424
Width: 1146
VWidth: 1819
Flags: HMW
LayerCount: 2
Fore
SplineSet
221 60 m 1
 221 240 l 1
 925 240 l 1
 925 60 l 1
 221 60 l 1
221 386 m 1
 221 566 l 1
 925 566 l 1
 925 386 l 1
 221 386 l 1
EndSplineSet
Colour: ff00ff
EndChar

StartChar: uniE007
Encoding: 57351 57351 425
Width: 869
VWidth: 1954
Flags: HMW
LayerCount: 2
Fore
SplineSet
588 1518 m 1
 557 1531 506 1552 472 1552 c 0
 401 1552 370 1505 370 1482 c 0
 370 1440 384 1434 456 1411 c 0
 513 1394 632 1356 632 1226 c 0
 632 1074 463 1012 344 1012 c 0
 263 1012 195 1031 136 1061 c 1
 200 1196 l 1
 241 1178 279 1162 344 1162 c 0
 442 1162 482 1210 482 1231 c 0
 482 1239 479 1246 412 1267 c 0
 346 1288 220 1333 220 1482 c 0
 220 1607 338 1702 472 1702 c 0
 542 1702 595 1678 645 1655 c 1
 588 1518 l 1
EndSplineSet
Colour: ffff
EndChar

StartChar: uniE008
Encoding: 57352 57352 426
Width: 1454
VWidth: 1819
Flags: HMW
LayerCount: 2
Fore
SplineSet
673 1137 m 0
 673 982 551 853 392 853 c 0
 235 853 110 982 110 1137 c 0
 110 1285 226 1426 392 1426 c 0
 558 1426 673 1284 673 1137 c 0
501 1137 m 0
 501 1203 453 1255 392 1255 c 0
 331 1255 282 1202 282 1137 c 0
 282 1073 330 1024 392 1024 c 0
 453 1024 501 1073 501 1137 c 0
EndSplineSet
Colour: ff00ff
EndChar

StartChar: uniE009
Encoding: 57353 57353 427
Width: 1146
VWidth: 1819
Flags: HMW
LayerCount: 2
Fore
SplineSet
483 1638 m 1
 663 1638 l 1
 663 -209 l 1
 483 -209 l 1
 483 1638 l 1
EndSplineSet
Colour: ff00ff
EndChar

StartChar: uni0237
Encoding: 567 567 428
Width: 450
VWidth: 1819
Flags: HMW
LayerCount: 2
Fore
SplineSet
100 -189 m 2
 100 1091 l 1
 350 1091 l 1
 350 -189 l 2
 350 -339 226 -477 49 -477 c 1
 -37 -477 -110 -445 -163 -394 c 1
 -163 -251 l 1
 41 -251 l 2
 80 -251 100 -224 100 -189 c 2
EndSplineSet
Colour: ffff00
EndChar

StartChar: uniE00A
Encoding: 57354 57354 429
Width: 1214
VWidth: 1819
Flags: HMW
LayerCount: 2
Fore
SplineSet
85 443 m 1
 85 593 l 1
 699 593 l 1
 699 443 l 1
 85 443 l 1
EndSplineSet
Colour: ff00ff
EndChar

StartChar: uniE00B
Encoding: 57355 57355 430
Width: 1108
VWidth: 1819
Flags: HMW
LayerCount: 2
Fore
SplineSet
801 453 m 1
 754 464 687 471 635 471 c 0
 463 471 315 397 315 265 c 0
 315 202 364 145 464 145 c 0
 587 145 711 252 711 376 c 1
 841 376 l 1
 841 95 618 -57 403 -57 c 0
 203 -57 77 61 77 260 c 0
 77 557 390 657 635 657 c 0
 719 657 800 647 870 628 c 1
 801 453 l 1
EndSplineSet
Colour: ffff00
EndChar

StartChar: uniE00C
Encoding: 57356 57356 431
Width: 1536
VWidth: 1819
Flags: HMW
LayerCount: 2
Back
SplineSet
853 692 m 1
 853 879 925 1091 1157 1091 c 0
 1449 1091 1461 815 1461 692 c 0
 1461 -47 l 1
 1211 -47 l 1
 1211 692 l 0
 1211 808 1161 865 1052 865 c 0
 943 865 893 810 893 692 c 1
 853 692 l 1
EndSplineSet
Fore
SplineSet
853 712 m 1
 853 899 935 1111 1167 1111 c 0
 1459 1111 1481 835 1481 712 c 0
 1481 -47 l 1
 1231 -47 l 1
 1231 712 l 0
 1231 828 1171 885 1062 885 c 0
 953 885 893 830 893 712 c 1
 853 712 l 1
EndSplineSet
Colour: ffff00
EndChar

StartChar: uniE00D
Encoding: 57357 57357 432
Width: 1068
VWidth: 1819
Flags: HMW
LayerCount: 2
Back
SplineSet
285 623 m 1
 285 890 380 1091 639 1091 c 0
 954 1091 993 815 993 677 c 0
 993 -47 l 1
 743 -47 l 1
 743 623 l 0
 743 745 703 865 534 865 c 0
 376 865 325 745 325 623 c 1
 285 623 l 1
EndSplineSet
Fore
SplineSet
285 623 m 1
 285 890 390 1091 649 1091 c 0
 964 1091 1013 815 1013 677 c 0
 1013 -47 l 1
 763 -47 l 1
 763 623 l 0
 763 745 713 865 544 865 c 0
 386 865 325 745 325 623 c 1
 285 623 l 1
EndSplineSet
Colour: ffff00
EndChar

StartChar: uniE00E
Encoding: 57358 57358 433
Width: 754
VWidth: 1819
Flags: HMW
LayerCount: 2
Fore
SplineSet
195 531 m 1
 195 780 316 1091 641 1091 c 2
 679 1091 l 1
 679 865 l 1
 581 865 l 2
 424 865 325 735 325 531 c 1
 195 531 l 1
EndSplineSet
Colour: ffff00
EndChar

StartChar: uniE00F
Encoding: 57359 57359 434
Width: 1158
VWidth: 1819
Flags: HMW
LayerCount: 2
Back
SplineSet
704 1091 m 0
 1073 1091 1133 792 1133 521 c 0
 1133 250 1072 -47 704 -47 c 0
 397 -47 275 248 275 521 c 0
 275 794 396 1091 704 1091 c 0
614 865 m 0
 444 865 345 743 345 521 c 0
 345 299 443 177 614 177 c 0
 785 177 883 299 883 521 c 0
 883 743 784 865 614 865 c 0
EndSplineSet
Fore
SplineSet
709 -67 m 0
 374 -67 265 248 265 521 c 0
 265 793 373 1111 709 1111 c 0
 1045 1111 1153 793 1153 521 c 0
 1153 248 1044 -67 709 -67 c 0
624 885 m 0
 453 885 345 743 345 521 c 0
 345 299 452 157 624 157 c 0
 796 157 903 299 903 521 c 0
 903 743 795 885 624 885 c 0
EndSplineSet
Colour: ffff00
EndChar

StartChar: quoteright
Encoding: 8217 8217 436
Width: 598
VWidth: 1854
Flags: HMW
LayerCount: 2
Fore
SplineSet
322 746 m 1
 256 794 l 1
 309 855 358 971 358 1066 c 0
 358 1177 120 1045 120 1231 c 0
 120 1330 169 1411 290 1411 c 0
 413 1411 478 1316 478 1179 c 0
 478 999 401 845 322 746 c 1
EndSplineSet
EndChar

StartChar: quoteleft
Encoding: 8216 8216 437
Width: 598
VWidth: 1854
Flags: HMW
LayerCount: 2
Fore
SplineSet
276 746 m 1
 197 845 120 999 120 1179 c 0
 120 1316 185 1411 308 1411 c 0
 429 1411 478 1330 478 1231 c 0
 478 1045 240 1177 240 1066 c 0
 240 971 289 855 342 794 c 1
 276 746 l 1
EndSplineSet
EndChar

StartChar: uniFB9F
Encoding: 64415 64415 462
Width: 1690
VWidth: 1854
Flags: HW
AnchorPoint: "Anchor-5" 827 773 basechar 0
AnchorPoint: "Anchor-3" 728 -502 basechar 0
LayerCount: 2
Fore
SplineSet
303 1 m 0
 303 -182 464 -303 729 -303 c 0
 1017 -303 1239 -158 1239 86 c 0
 1239 147 1225 220 1192 306 c 0
 1159 391 1126 476 1093 561 c 1
 1327 651 l 1
 1451 333 l 2
 1490 233 1515 199 1690 199 c 1
 1690 -51 l 1
 1614 -51 1541 -42 1480 -22 c 1
 1417 -390 1052 -553 729 -553 c 0
 401 -553 53 -377 53 1 c 0
 53 199 148 430 260 624 c 1
 470 494 l 1
 374 330 303 129 303 1 c 0
EndSplineSet
Colour: ff
EndChar

